<svg xmlns="http://www.w3.org/2000/svg" width="60" height="60" fill="#e5322d" fill-rule="evenodd"><g fill-rule="nonzero"><path d="M19.212 32.933a1.45 1.45 0 0 1 1.448 1.454 1.45 1.45 0 0 1-1.316 1.448l-.132.006h-6.217a1.45 1.45 0 0 1-1.448-1.454 1.45 1.45 0 0 1 1.316-1.448l.132-.006h6.217zm0-20.787A1.45 1.45 0 0 1 20.66 13.6a1.45 1.45 0 0 1-1.316 1.448l-.132.006h-6.217a1.45 1.45 0 0 1-1.448-1.454 1.45 1.45 0 0 1 1.316-1.448l.132-.006h6.217z"/><path d="M16.016 13.591a1.45 1.45 0 0 1 1.442 1.322l.006.132.004 18.304a1.45 1.45 0 0 1-1.448 1.455 1.45 1.45 0 0 1-1.442-1.322l-.006-.132-.004-18.304a1.45 1.45 0 0 1 1.448-1.455z"/></g><path d="M51.552 3.38v.029a3.381 3.381 0 1 1-6.761 0V3.38a3.38 3.38 0 1 1 6.761 0zm-44.791 0v.029a3.38 3.38 0 1 1-6.761 0V3.38a3.38 3.38 0 1 1 6.76 0zm0 44.135v.029a3.381 3.381 0 1 1-6.761 0v-.029a3.381 3.381 0 1 1 6.761 0z"/><path d="M60 41.408L28.632 28.497 41.483 60l3.301-10.304 8.344 8.405 4.967-5.086-8.347-8.296L60 41.408zm-26.727-8.25l19.339 7.96-7.615 2.46 9.52 9.463-1.405 1.438-9.469-9.538-2.448 7.64-7.922-19.422zM49.44 2.122v29.68a1.27 1.27 0 0 1-1.268 1.273 1.27 1.27 0 0 1-1.262-1.151l-.006-.123V4.667H4.648v41.589l25.354.001a1.27 1.27 0 0 1 1.262 1.151l.006.123a1.27 1.27 0 0 1-1.146 1.267l-.122.006H2.113V2.122H49.44z" fill-rule="nonzero"/></svg>