<svg xmlns="http://www.w3.org/2000/svg" width="60" height="60"><path d="M59.867 13.917c-.312-1.219-1.181-2.237-2.319-2.758l.202-.463c.27-.622.278-1.312.017-1.943-.185-.463-.498-.849-.894-1.127l1.063-2.514A3.71 3.71 0 0 0 55.971.294a3.72 3.72 0 0 0-4.841 1.909v.008.008l-1.054 2.472a2.55 2.55 0 0 0-2.766 1.505L29.066 48.614c-.093.21-.127.437-.11.664l.422 5.735c-.818-1.102-1.67-2.212-2.674-3.179-1.341-1.287-3.416-2.926-5.921-2.355-1.797.412-3.002 2.018-4.074 3.439l-.953 1.194c-1.771 1.926-3.07 1.774-3.905 1.497-.734-.252-1.484-.673-2.193-1.219l3.331-2.514c1.029-.841 2.21-1.884 3.146-3.204.624-.883 1.341-2.069 1.324-3.431-.008-1.354-.649-2.725-1.704-3.658-1.914-1.69-4.352-2.018-6.857-.933-2.733 1.177-4.656 3.692-5.01 6.559-.278 2.245.489 4.718 2.109 6.812l-5.432 3.38c-.557.336-.734 1.06-.396 1.615a1.18 1.18 0 0 0 1.619.395l5.836-3.641c1.071.942 2.26 1.657 3.458 2.069 2.252.765 4.411.042 6.41-2.136.371-.404.725-.875 1.096-1.362.827-1.093 1.763-2.338 2.716-2.556 1.071-.244 2.227.294 3.745 1.758 1.02.975 1.881 2.153 2.8 3.397l2.075 2.657c.236.269.557.404.886.404.228 0 .447-.067.649-.193.177-.05.346-.143.498-.261l7.245-5.878.008-.008a.91.91 0 0 0 .093-.084l.101-.109c.008-.008.017-.017.017-.025.017-.025.034-.05.059-.076.008-.017.017-.025.025-.042.017-.025.025-.05.042-.076.008-.017.017-.025.025-.042l.051-.101v-.008-.008L56.629 13.32a1.86 1.86 0 0 1 .962 1.186c.143.547.017 1.135-.329 1.581-.008.008-.017.017-.017.025l-.025.025c-2.1 3.027-3.348 5.777-3.913 8.653-.228 1.152-.354 2.38-.405 3.868-.017.647.489 1.194 1.139 1.211h.042c.633 0 1.155-.505 1.181-1.144.042-1.362.16-2.472.363-3.49.498-2.548 1.628-5.012 3.534-7.77a4.16 4.16 0 0 0 .708-3.549zM6.218 47.504c.253-2.044 1.636-3.843 3.61-4.692.531-.227 1.189-.42 1.889-.42.801 0 1.653.244 2.471.967.557.488.902 1.219.911 1.909.008.698-.472 1.463-.894 2.06-.776 1.093-1.805 1.993-2.716 2.741l-3.534 2.649c-1.324-1.648-1.949-3.54-1.738-5.214zm26.061 8.081l-.253-3.439a10.73 10.73 0 0 0 2.944 1.261l-2.69 2.178zm4.959-4.205a8.33 8.33 0 0 1-5.288-2.254l11.555-26.868 5.221 2.228-11.487 26.893zm12.415-29.046l-5.221-2.228 5.372-12.488 5.179 2.245-5.33 12.471zm5.642-18.332l-1.02 2.422-1.543-.673 1.029-2.413c.177-.412.666-.605 1.088-.42.422.176.616.664.447 1.085z" fill="#e5322d"/></svg>