<svg xmlns="http://www.w3.org/2000/svg" width="60" height="60"><path d="M58.828 47.509h-6.875v-7.858a1.17 1.17 0 0 0-1.172-1.172h-19.61v-5.17h16.527a1.17 1.17 0 0 0 1.172-1.172V5.906a1.17 1.17 0 0 0-1.172-1.172h-18.98L25.554.473A1.17 1.17 0 0 0 24.613 0H12.302a1.17 1.17 0 0 0-1.172 1.172v4.734 26.231a1.17 1.17 0 0 0 1.172 1.172h16.526v5.17H9.218a1.17 1.17 0 0 0-1.172 1.172v5.49a1.17 1.17 0 0 0-.462-.097H1.172A1.17 1.17 0 0 0 0 46.215v12.613A1.17 1.17 0 0 0 1.172 60h16.093a1.17 1.17 0 0 0 1.172-1.172V48.681a1.17 1.17 0 0 0-1.172-1.172H10.39v-6.686h18.438v4.318a1.17 1.17 0 0 0-.462-.097h-6.412a1.17 1.17 0 0 0-1.172 1.172v12.613A1.17 1.17 0 0 0 21.953 60h16.093a1.17 1.17 0 0 0 1.172-1.172V48.681a1.17 1.17 0 0 0-1.172-1.172h-6.875v-6.686H49.61v4.318a1.17 1.17 0 0 0-.462-.097h-6.412a1.17 1.17 0 0 0-1.172 1.172v12.613A1.17 1.17 0 0 0 42.735 60h16.093A1.17 1.17 0 0 0 60 58.828V48.681a1.17 1.17 0 0 0-1.172-1.172zm-42.735 2.344v7.803H2.344V47.387h4.651l1.48 1.992a1.17 1.17 0 0 0 .941.473h6.678zm-2.62-47.509h10.55l1.775 2.39H13.473v-2.39zm23.401 47.509v7.803H23.125V47.387h4.651l1.48 1.992a1.17 1.17 0 0 0 .941.473h6.678 0zM13.473 30.965V7.077h14.655 18.398v23.888H13.473h0zm30.434 26.691V47.387h4.651l1.48 1.992a1.17 1.17 0 0 0 .941.473h6.677v7.803H43.907z" fill="#e5322d"/></svg>