<?xml version="1.0" encoding="UTF-8"?>
<svg width="48px" height="48px" viewBox="0 0 48 48" version="1.1" xmlns="http://www.w3.org/2000/svg" xmlns:xlink="http://www.w3.org/1999/xlink">
    <title>IOS_logo</title>
    <g id="PDF---Product-New-Version---FINALES" stroke="none" stroke-width="1" fill="none" fill-rule="evenodd">
        <g id="content-desktop-1366" transform="translate(-366.000000, -3512.000000)" fill-rule="nonzero">
            <g id="Group-10" transform="translate(366.000000, 3400.000000)">
                <g id="IOS_logo" transform="translate(0.000000, 112.000000)">
                    <rect id="Rectangle" fill="#8E8E93" x="0" y="0" width="48" height="48" rx="11.1340206"></rect>
                    <path d="M7.8883299,33.7830928 L6.75926598,33.7830928 L6.75926598,18.6955052 L7.8883299,18.6955052 L7.8883299,33.7830928 Z M7.30772784,14.9970309 C6.83158763,14.9970309 6.43783918,14.6193402 6.43783918,14.1432 C6.43783918,13.6530062 6.82958351,13.2733113 7.30772784,13.2733113 C7.79792165,13.2733113 8.18766186,13.6510021 8.18766186,14.1432 C8.18766186,14.6193402 7.79792165,14.9970309 7.30772784,14.9970309 Z" id="Shape" fill="#FFFFFF"></path>
                    <path d="M18.8548454,34.0775258 C13.3341031,34.0775258 9.84643299,30.0574021 9.84643299,23.6669691 C9.84643299,17.3084536 13.3501856,13.2724948 18.8548454,13.2724948 C24.3595052,13.2724948 27.8612784,17.308701 27.8612784,23.6669691 C27.8612784,30.0576495 24.3736082,34.0775258 18.8548454,34.0775258 L18.8548454,34.0775258 Z M18.8548454,14.3109278 C14.0494021,14.3109278 10.9816082,17.939134 10.9816082,23.6667216 C10.9816082,29.3985155 14.0635052,33.0408247 18.8548454,33.0408247 C23.6602887,33.0408247 26.7280825,29.3985155 26.7280825,23.6667216 C26.7280825,17.9371546 23.6602887,14.3109278 18.8548454,14.3109278 Z" id="Shape" fill="#FFFFFF"></path>
                    <path d="M35.9010309,34.0775258 C31.7564536,34.0775258 28.7851546,31.7370309 28.6164124,28.3900206 L29.7233814,28.3900206 C29.8921386,31.134433 32.4697732,33.0549278 35.9854021,33.0549278 C39.4166598,33.0549278 41.8114639,31.1062021 41.8114639,28.4743918 C41.8114639,26.356899 40.383068,25.1393814 36.9938969,24.2855258 L34.599167,23.6968825 C30.8603629,22.7425979 29.1627959,21.2298309 29.1627959,18.6964701 C29.1627959,15.5443052 32.1058887,13.2742021 35.7905072,13.2742021 C39.5995794,13.2742021 42.4441979,15.5162474 42.5708784,18.485666 L41.4639093,18.485666 C41.3092157,16.0628041 38.9426722,14.2968 35.762301,14.2968 C32.720734,14.2968 30.2977237,16.1189691 30.2977237,18.6682639 C30.2977237,20.6873072 31.7823835,21.8486351 35.0309196,22.6601814 L37.2870186,23.2347464 C41.1945649,24.2010804 42.9463175,25.7017979 42.9463175,28.3897979 C42.9463175,31.7366845 40.1316371,34.0773031 35.9007093,34.0773031 L35.9010309,34.0775258 Z" id="Path" fill="#FFFFFF"></path>
                </g>
            </g>
        </g>
    </g>
</svg>