<?xml version="1.0" encoding="UTF-8"?>
<svg width="43px" height="50px" viewBox="0 0 43 50" version="1.1" xmlns="http://www.w3.org/2000/svg" xmlns:xlink="http://www.w3.org/1999/xlink">
    <title>Android_robot</title>
    <g id="PDF---Product-New-Version---FINALES" stroke="none" stroke-width="1" fill="none" fill-rule="evenodd">
        <g id="content-desktop-1366" transform="translate(-516.000000, -3511.000000)" fill-rule="nonzero">
            <g id="Group-10" transform="translate(366.000000, 3400.000000)">
                <g id="Group-13" transform="translate(141.000000, 112.000000)">
                    <g id="Android_robot" transform="translate(10.000000, 0.000000)">
                        <g id="Group" fill="#A4C639">
                            <g id="b-link" transform="translate(7.418182, 3.604808)" stroke="#FFFFFF" stroke-width="2.55294002">
                                <g id="b">
                                    <ellipse id="Oval" cx="12.9818182" cy="11.8764209" rx="12.9818182" ry="11.8764209"></ellipse>
                                    <rect id="Rectangle" x="0" y="8.90731568" width="25.9636364" height="25.7322453" rx="3.90032503"></rect>
                                </g>
                            </g>
                            <g id="a-link" transform="translate(25.941641, 24.000000) scale(-1, 1) translate(-25.941641, -24.000000) translate(11.083283, 0.000000)" stroke="#FFFFFF" stroke-width="1.27647001">
                                <g id="a">
                                    <path d="M25.9549361,-0.320198642 C26.4621168,-0.322119278 26.8748251,0.0874749906 26.8767457,0.594655762 C26.8767545,0.596979678 26.8767545,0.59930362 26.8767457,0.601627536 L26.837425,10.9358588 C26.8354762,11.448037 26.4207521,11.8627536 25.9085739,11.8646932 C25.4013931,11.8666138 24.9886849,11.4570196 24.9867642,10.9498388 C24.9867554,10.9475149 24.9867554,10.9451909 24.9867643,10.942867 L25.0260849,0.608635777 C25.0280337,0.0964575548 25.4427578,-0.318259082 25.9549361,-0.320198642 Z" id="Rectangle" transform="translate(25.931755, 5.772247) rotate(29.000000) translate(-25.931755, -5.772247) "></path>
                                    <rect id="c" x="0" y="15.4812285" width="6.84755245" height="18.8043331" rx="3.42377622"></rect>
                                    <g id="c-link" transform="translate(12.125874, 29.195667)">
                                        <rect id="c" x="0" y="0" width="6.84755245" height="18.8043331" rx="3.42377622"></rect>
                                    </g>
                                </g>
                            </g>
                            <g id="a" stroke="#FFFFFF" stroke-width="1.27647001">
                                <path d="M25.9549361,-0.320198642 C26.4621168,-0.322119278 26.8748251,0.0874749906 26.8767457,0.594655762 C26.8767545,0.596979678 26.8767545,0.59930362 26.8767457,0.601627536 L26.837425,10.9358588 C26.8354762,11.448037 26.4207521,11.8627536 25.9085739,11.8646932 C25.4013931,11.8666138 24.9886849,11.4570196 24.9867642,10.9498388 C24.9867554,10.9475149 24.9867554,10.9451909 24.9867643,10.942867 L25.0260849,0.608635777 C25.0280337,0.0964575548 25.4427578,-0.318259082 25.9549361,-0.320198642 Z" id="Rectangle" transform="translate(25.931755, 5.772247) rotate(29.000000) translate(-25.931755, -5.772247) "></path>
                                <rect id="c" x="0" y="15.4812285" width="6.84755245" height="18.8043331" rx="3.42377622"></rect>
                                <g id="c-link" transform="translate(12.125874, 29.195667)">
                                    <rect id="c" x="0" y="0" width="6.84755245" height="18.8043331" rx="3.42377622"></rect>
                                </g>
                            </g>
                            <g id="b" transform="translate(7.418182, 3.604808)">
                                <ellipse id="Oval" cx="12.9818182" cy="11.8764209" rx="12.9818182" ry="11.8764209"></ellipse>
                                <rect id="Rectangle" x="0" y="8.90731568" width="25.9636364" height="25.7322453" rx="3.90032503"></rect>
                            </g>
                        </g>
                        <g id="Group" transform="translate(6.847552, 9.118860)" fill="#FFFFFF" stroke="#FFFFFF" stroke-width="1.27647001">
                            <line x1="0" y1="6.85721922" x2="27.1048951" y2="6.85721922" id="Path"></line>
                            <ellipse id="Oval" cx="7.56083916" cy="0.565543853" rx="1" ry="1"></ellipse>
                            <ellipse id="Oval" cx="19.5440559" cy="0.565543853" rx="1" ry="1"></ellipse>
                        </g>
                    </g>
                </g>
            </g>
        </g>
    </g>
</svg>