<?xml version="1.0" encoding="UTF-8"?>
<svg width="39px" height="48px" viewBox="0 0 39 48" version="1.1" xmlns="http://www.w3.org/2000/svg" xmlns:xlink="http://www.w3.org/1999/xlink">
    <title>Group 5</title>
    <g id="PDF---Product-New-Version---FINALES" stroke="none" stroke-width="1" fill="none" fill-rule="evenodd">
        <g id="content-desktop-1366" transform="translate(-664.000000, -3512.000000)" fill="#8E8E93" fill-rule="nonzero">
            <g id="Group-10" transform="translate(366.000000, 3400.000000)">
                <g id="Group-12" transform="translate(290.000000, 112.000000)">
                    <g id="Group-5" transform="translate(8.000000, 0.000000)">
                        <path d="M32.5737758,25.5262745 C32.6218928,21.7868077 34.5797283,18.3326792 37.7613519,16.3740477 C35.745091,13.4906398 32.4890574,11.7280384 28.9754874,11.6179616 C25.2789123,11.2294216 21.6952727,13.8328729 19.8115275,13.8328729 C17.891372,13.8328729 14.9911237,11.65654 11.8680106,11.7208728 C7.7588333,11.8538095 4.02083278,14.1365135 2.02163318,17.7338106 C-2.23563902,25.1145874 0.939909109,35.9618916 5.01809352,41.9280053 C7.05850878,44.8494321 9.44314937,48.1127232 12.563447,47.9970091 C15.6168302,47.8701877 16.7572129,46.0473775 20.442886,46.0473775 C24.0943716,46.0473775 25.1642623,47.9970091 28.3478757,47.9234345 C31.6243142,47.8701877 33.6885866,44.9890352 35.6574515,42.0399464 C37.1234879,39.9583288 38.2515998,37.6576872 39,35.2232416 C35.1085943,33.5751778 32.5783045,29.7570514 32.5737758,25.5262745 Z" id="_Path_"></path>
                        <path d="M26.5605754,7.69425842 C28.347031,5.54684921 29.2271538,2.7867098 29.0140357,-1.03028697e-13 C26.2847538,0.287038301 23.7636614,1.59319271 21.9530871,3.65821142 C20.1652259,5.69563244 19.2595003,8.36112588 19.4354008,11.0676041 C22.2012662,11.0961126 24.8273954,9.85279688 26.5605754,7.69425842 Z" id="_Path_2"></path>
                    </g>
                </g>
            </g>
        </g>
    </g>
</svg>