<svg xmlns="http://www.w3.org/2000/svg" width="48" height="48"><path d="M24 0C13.861 0 0 7.663 0 24c0 15.921 13.332 24 24 24 18.302 0 24-16.035 24-24 0-11.754-8.995-24-24-24zm-5.565 2.258c-2.504 2.135-4.583 5.669-5.924 10.054-1.739-1.03-3.335-2.306-4.753-3.789 2.929-3.071 6.633-5.225 10.677-6.265zM6.728 9.676a23.53 23.53 0 0 0 5.357 4.176c-.737 2.863-1.172 6.038-1.228 9.373H1.569c.17-4.98 1.984-9.732 5.159-13.55zm0 28.649c-3.184-3.817-4.989-8.57-5.159-13.55h9.288c.057 3.345.491 6.51 1.228 9.373-1.956 1.124-3.761 2.523-5.357 4.176zm1.03 1.162c1.417-1.483 3.014-2.759 4.753-3.789 1.342 4.375 3.42 7.918 5.924 10.054a22.64 22.64 0 0 1-10.677-6.265zm15.468 6.907c-4.025-.51-7.493-5.008-9.364-11.452 2.891-1.465 6.085-2.287 9.364-2.409v13.861zm0-15.402a24.04 24.04 0 0 0-9.761 2.428c-.633-2.646-1.011-5.565-1.068-8.646h10.828v6.217h0zm0-7.767H12.397c.057-3.08.435-6 1.068-8.646 3.024 1.474 6.35 2.315 9.761 2.428v6.217zm0-7.757c-3.288-.113-6.472-.945-9.364-2.409C15.732 6.605 19.2 2.117 23.225 1.606v13.861zm18.047-5.792c3.175 3.817 4.989 8.57 5.159 13.55h-9.279c-.057-3.345-.491-6.51-1.228-9.373a23.96 23.96 0 0 0 5.348-4.176zm-1.03-1.162c-1.417 1.483-3.014 2.759-4.753 3.789-1.342-4.375-3.42-7.909-5.924-10.054a22.64 22.64 0 0 1 10.677 6.265zM24.775 1.606c4.025.51 7.493 5.008 9.364 11.452-2.891 1.465-6.076 2.287-9.364 2.409V1.606h0zm0 15.402a24.04 24.04 0 0 0 9.761-2.428c.633 2.646 1.011 5.565 1.068 8.646H24.775v-6.217zm0 7.767h10.828c-.057 3.08-.435 6-1.068 8.646a23.74 23.74 0 0 0-9.761-2.428v-6.217h0zm0 21.619V32.532c3.288.113 6.472.945 9.364 2.409-1.871 6.454-5.339 10.942-9.364 11.452zm4.791-.652c2.504-2.135 4.583-5.669 5.924-10.054 1.739 1.03 3.335 2.306 4.753 3.789-2.929 3.071-6.633 5.225-10.677 6.265zm11.707-7.417a23.96 23.96 0 0 0-5.348-4.176c.737-2.863 1.172-6.038 1.228-9.373h9.279c-.17 4.98-1.984 9.732-5.159 13.55z" fill="#484a54"/></svg>