<?xml version="1.0" encoding="UTF-8"?>
<svg width="201px" height="42px" viewBox="0 0 201 42" version="1.1" xmlns="http://www.w3.org/2000/svg" xmlns:xlink="http://www.w3.org/1999/xlink">
    <title>Group 6 Copy</title>
    <g id="PDF---Product-New-Version---FINALES" stroke="none" stroke-width="1" fill="none" fill-rule="evenodd">
        <g id="content-mobile-1366" transform="translate(-691.000000, -234.000000)">
            <g id="Group-3" transform="translate(474.000000, 234.000000)">
                <g id="Group-5" transform="translate(217.000000, 0.000000)">
                    <rect id="Rectangle" fill="#000000" x="0" y="0" width="201" height="41.556142" rx="5.86384615"></rect>
                    <g id="Group-4" transform="translate(49.000000, 9.000000)" fill="#FFFFFF">
                        <g id="_Group_">
                            <g id="_Group_3">
                                <path d="M15.3865299,12.7792201 C15.409243,11.0167505 16.3334652,9.38876473 17.8353938,8.46563025 C16.8835906,7.106633 15.3465344,6.27588997 13.6879044,6.22400884 C11.9428904,6.0408917 10.2511754,7.26793029 9.36194814,7.26793029 C8.45551227,7.26793029 7.08640722,6.24218965 5.61210711,6.27251524 C3.67231259,6.33516987 1.90773717,7.41104495 0.963987683,9.10650907 C-1.045765,12.5851945 0.453329686,17.6976908 2.37850441,20.5095976 C3.34171008,21.8865084 4.46742098,23.4245531 5.94039096,23.3700107 C7.38178059,23.3102426 7.92011166,22.4511213 9.65999217,22.4511213 C11.383724,22.4511213 11.8887913,23.3700107 13.3916477,23.3353321 C14.938326,23.3102322 15.9128066,21.9523021 16.8422185,20.5623531 C17.5342802,19.5812538 18.0668206,18.4969255 18.4201134,17.3495335 C16.5831294,16.5727778 15.388674,14.7732442 15.3865299,12.7792201 L15.3865299,12.7792201 Z" id="_Path_"></path>
                                <path d="M12.5479049,4.37470857 C13.3912182,3.36260032 13.8066866,2.06170664 13.7060795,0.74829106 C12.4176844,0.883577587 11.2275683,1.49918943 10.372862,2.47246578 C9.52887891,3.43273371 9.10131899,4.68902123 9.18435417,5.96462579 C10.4900251,5.97806584 11.729732,5.39206861 12.5479049,4.37470857 L12.5479049,4.37470857 Z" id="_Path_2"></path>
                            </g>
                            <g id="Group" transform="translate(24.979223, 10.157824)">
                                <path d="M8.62746091,9.72642608 L3.70865877,9.72642608 L2.52741468,13.2134539 L0.444005702,13.2134539 L5.10301562,0.31234961 L7.26760447,0.31234961 L11.9266144,13.2134539 L9.80767622,13.2134539 L8.62746091,9.72642608 Z M4.21809054,8.11734109 L8.11705231,8.11734109 L6.1949951,2.45815295 L6.14120771,2.45815295 L4.21809054,8.11734109 Z" id="Shape" fill-rule="nonzero"></path>
                                <path d="M21.9884921,8.51099203 C21.9884921,11.4339264 20.4236492,13.3118588 18.0621794,13.3118588 C16.8415563,13.3756939 15.691796,12.7365252 15.1019717,11.6662356 L15.0572874,11.6662356 L15.0572874,16.3250739 L13.1260959,16.3250739 L13.1260959,3.80751205 L14.9954153,3.80751205 L14.9954153,5.37195535 L15.0309341,5.37195535 C15.646962,4.30837567 16.7979621,3.66948211 18.0266606,3.70909671 C20.4144733,3.7091071 21.9884921,5.59617151 21.9884921,8.51099203 Z M20.0035132,8.51099203 C20.0035132,6.60668183 19.0191397,5.35470955 17.5172184,5.35470955 C16.0416817,5.35470955 15.0491923,6.6330492 15.0491923,8.51099203 C15.0491923,10.4061807 16.0416817,11.6753884 17.5172184,11.6753884 C19.0191501,11.6753884 20.0035132,10.4325584 20.0035132,8.51099203 Z" id="Shape" fill-rule="nonzero"></path>
                                <path d="M32.3436441,8.51099203 C32.3436441,11.4339264 30.7788012,13.3118588 28.4173314,13.3118588 C27.1967083,13.3756939 26.046948,12.7365252 25.4571236,11.6662356 L25.4124394,11.6662356 L25.4124394,16.3250739 L23.4812479,16.3250739 L23.4812479,3.80751205 L25.3505257,3.80751205 L25.3505257,5.37195535 L25.3860445,5.37195535 C26.0020769,4.30837632 27.1530814,3.66948651 28.3817814,3.7091071 C30.7696669,3.7091071 32.3436441,5.59617151 32.3436441,8.51099203 Z M30.3586756,8.51099203 C30.3586756,6.60668183 29.3742916,5.35470955 27.8723704,5.35470955 C26.3968337,5.35470955 25.4043442,6.6330492 25.4043442,8.51099203 C25.4043442,10.4061807 26.3968337,11.6753884 27.8723704,11.6753884 C29.374302,11.6753884 30.3586756,10.4325584 30.3586756,8.51099203 L30.3586756,8.51099203 Z" id="Shape" fill-rule="nonzero"></path>
                                <path d="M39.1875482,9.61887878 C39.3306418,10.8982366 40.5737995,11.738242 42.2725809,11.738242 C43.9003455,11.738242 45.0714369,10.898195 45.0714369,9.74463806 C45.0714369,8.74327009 44.3651242,8.14368768 42.6927169,7.73278055 L41.0203096,7.32999765 C38.6507239,6.75779035 37.5506597,5.64989321 37.5506597,3.85210179 C37.5506597,1.62616782 39.4909855,0.0972342408 42.2461964,0.0972342408 C44.9729757,0.0972342408 46.8422847,1.62616782 46.9052063,3.85210179 L44.9557254,3.85210179 C44.8390268,2.56463017 43.7744814,1.78748876 42.2187728,1.78748876 C40.6630641,1.78748876 39.5985291,2.57377252 39.5985291,3.71818712 C39.5985291,4.63027171 40.2784573,5.16696929 41.9417303,5.57782447 L43.3634797,5.92683373 C46.0111262,6.55281468 47.1111904,7.61609091 47.1111904,9.50313454 C47.1111904,11.9167568 45.1881148,13.4284446 42.1294666,13.4284446 C39.2676889,13.4284446 37.3354894,11.9522665 37.2106644,9.61878528 L39.1875482,9.61887878 Z" id="Path"></path>
                                <path d="M51.2790475,1.58157808 L51.2790475,3.80751205 L53.0681639,3.80751205 L53.0681639,5.33644562 L51.2790475,5.33644562 L51.2790475,10.5218314 C51.2790475,11.3273868 51.6372802,11.7027739 52.4237544,11.7027739 C52.6361517,11.6990712 52.8482052,11.6841594 53.0590296,11.658101 L53.0590296,13.1779026 C52.7054298,13.2439556 52.3460254,13.2738708 51.9863682,13.267186 C50.0815716,13.267186 49.3387217,12.5519217 49.3387217,10.7277525 L49.3387217,5.33644562 L47.9707597,5.33644562 L47.9707597,3.80751205 L49.3387009,3.80751205 L49.3387009,1.58157808 L51.2790475,1.58157808 Z" id="Path"></path>
                                <path d="M54.1043296,8.51099203 C54.1043296,5.55154021 55.8477744,3.6918613 58.5664689,3.6918613 C61.2942873,3.6918613 63.0296163,5.55149866 63.0296163,8.51099203 C63.0296163,11.4785681 61.3034216,13.3301228 58.5664689,13.3301228 C55.8304827,13.3301228 54.1043296,11.4785577 54.1043296,8.51099203 Z M61.0618876,8.51099203 C61.0618876,6.48087061 60.1313014,5.28268236 58.5664585,5.28268236 C57.0016156,5.28268236 56.0720479,6.49000257 56.0720479,8.51099203 C56.0720479,10.5492273 57.0016156,11.738294 58.5664585,11.738294 C60.1313014,11.738294 61.0618876,10.5492273 61.0618876,8.51099203 L61.0618876,8.51099203 Z" id="Shape" fill-rule="nonzero"></path>
                                <path d="M64.6218101,3.80751205 L66.4637058,3.80751205 L66.4637058,5.40846242 L66.5083901,5.40846242 C66.7652478,4.37785805 67.7098071,3.66856031 68.7714194,3.70908632 C68.993972,3.70830946 69.2159106,3.73247282 69.4330791,3.7811239 L69.4330791,5.58702916 C69.15212,5.5011984 68.8590314,5.46179068 68.565373,5.47036029 C67.9976212,5.44733345 67.4481635,5.67354357 67.0612711,6.08959457 C66.6743787,6.50564557 66.4887047,7.06997125 66.5530016,7.63439639 L66.5530016,13.2134331 L64.6218101,13.2134331 L64.6218101,3.80751205 Z" id="Path"></path>
                                <path d="M78.3370213,10.450812 C78.077229,12.1583019 76.4139457,13.3301124 74.2858836,13.3301124 C71.5489309,13.3301124 69.8501391,11.4968112 69.8501391,8.55562333 C69.8501391,5.60530347 71.5580652,3.69185091 74.2047037,3.69185091 C76.8076971,3.69185091 78.444596,5.47949225 78.444596,8.33140717 L78.444596,8.99289784 L71.7995992,8.99289784 L71.7995992,9.1095667 C71.7375581,9.80982055 71.9794186,10.5029747 72.4636592,11.0127133 C72.9478998,11.5224518 73.6278481,11.7996446 74.3305471,11.7737829 C75.2677135,11.8615699 76.1512781,11.3235612 76.5032622,10.4508016 L78.3370213,10.450812 Z M71.8087152,7.64354913 L76.5123861,7.64354913 C76.5474326,7.01431381 76.3183281,6.39899782 75.8802701,5.94583689 C75.4422121,5.49267595 74.8349189,5.24275773 74.2047037,5.25629421 C73.5695032,5.25250453 72.9591046,5.50253994 72.5091807,5.95082539 C72.0592567,6.39911083 71.8070878,7.00850159 71.8087152,7.64354913 L71.8087152,7.64354913 Z" id="Shape" fill-rule="nonzero"></path>
                            </g>
                        </g>
                        <g id="Group" transform="translate(26.018392, 0.000000)">
                            <path d="M2.9368888,0.759438495 C3.75673753,0.70062012 4.55976124,1.01246078 5.12493303,1.60912843 C5.69010482,2.20579608 5.95785246,3.02439866 5.85448023,3.8396213 C5.85448023,5.82003119 4.78385567,6.95840976 2.9368888,6.95840976 L0.697199209,6.95840976 L0.697199209,0.759438495 L2.9368888,0.759438495 Z M1.660249,6.08174138 L2.82931403,6.08174138 C3.41522027,6.11675452 3.98571837,5.88596937 4.38240239,5.45346632 C4.77908641,5.02096328 4.95972421,4.43278787 4.87415945,3.85225436 C4.95349897,3.27413003 4.77025979,2.69080821 4.37455932,2.26183222 C3.97885886,1.83285624 3.41210663,1.60311783 2.82931403,1.63545236 L1.660249,1.63545236 L1.660249,6.08174138 Z" id="Shape" fill-rule="nonzero"></path>
                            <path d="M6.94235499,4.6172406 C6.86211777,3.77872602 7.26429333,2.96722483 7.98021032,2.52307843 C8.69612731,2.07893203 9.60200579,2.07893203 10.3179228,2.52307843 C11.0338398,2.96722483 11.4360153,3.77872602 11.3557781,4.6172406 C11.4375419,5.45665625 11.0357335,6.26973138 10.3191817,6.71483394 C9.60262994,7.15993649 8.69550317,7.15993649 7.9789514,6.71483394 C7.26239963,6.26973138 6.86059116,5.45665625 6.94235499,4.6172406 Z M10.4059154,4.6172406 C10.4059154,3.60319802 9.9502502,3.01019187 9.15058893,3.01019187 C8.34787251,3.01019187 7.89631205,3.60319802 7.89631205,4.61725099 C7.89631205,5.63941781 8.34790369,6.22785278 9.15058893,6.22785278 C9.95027098,6.22785278 10.4059154,5.63534531 10.4059154,4.6172406 L10.4059154,4.6172406 Z" id="Shape" fill-rule="nonzero"></path>
                            <polygon id="Path" points="17.2224166 6.95831625 16.264438 6.95831625 15.297325 3.51288613 15.2242611 3.51288613 14.2612009 6.95831625 13.3123461 6.95831625 12.0225193 2.28020629 12.959195 2.28020629 13.7974302 5.84987889 13.8664414 5.84987889 14.8284832 2.28020629 15.7144163 2.28020629 16.6764581 5.84987889 16.749522 5.84987889 17.5836941 2.28020629 18.5071723 2.28020629"></polygon>
                            <path d="M19.5920023,2.28020629 L20.4809801,2.28020629 L20.4809801,3.02336517 L20.5499914,3.02336517 C20.7899717,2.47620369 21.3507363,2.14149965 21.9463746,2.18990479 C22.4075752,2.15523842 22.8595192,2.3321202 23.1746003,2.67060762 C23.4896814,3.00909503 23.6337075,3.47245591 23.5660129,3.92986046 L23.5660129,6.95826431 L22.6425346,6.95826431 L22.6425346,4.16170218 C22.6425346,3.4099204 22.315768,3.03605018 21.632795,3.03605018 C21.3199696,3.02148384 21.0163809,3.14422349 20.8016205,3.37209058 C20.5868601,3.59995767 20.4823467,3.91022623 20.5154806,4.22155341 L20.5154806,6.95831625 L19.5920023,6.95831625 L19.5920023,2.28020629 Z" id="Path"></path>
                            <polygon id="Path" points="25.0374968 0.454000851 25.9609751 0.454000851 25.9609751 6.95830586 25.0374968 6.95830586"></polygon>
                            <path d="M27.2447124,4.6172406 C27.1645368,3.77867116 27.5667758,2.96714943 28.2827459,2.52299618 C28.998716,2.07884293 29.9046411,2.07884293 30.6206112,2.52299618 C31.3365813,2.96714943 31.7388203,3.77867116 31.6586447,4.6172406 C31.7403047,5.4566863 31.3384226,6.26973845 30.6218353,6.71482141 C29.9052479,7.15990436 28.9981092,7.15990436 28.2815218,6.71482141 C27.5649345,6.26973845 27.1630524,5.4566863 27.2447124,4.6172406 L27.2447124,4.6172406 Z M30.7082728,4.6172406 C30.7082728,3.60319802 30.2526076,3.01019187 29.4529463,3.01019187 C28.6502299,3.01019187 28.1986695,3.60319802 28.1986695,4.61725099 C28.1986695,5.63941781 28.6502611,6.22785278 29.4529463,6.22785278 C30.252618,6.22785278 30.7082728,5.63534531 30.7082728,4.6172406 L30.7082728,4.6172406 Z" id="Shape" fill-rule="nonzero"></path>
                            <path d="M32.6308392,5.63534531 C32.6308392,4.79326203 33.2579984,4.30780318 34.3712393,4.2388096 L35.6387448,4.16576429 L35.6387448,3.76197365 C35.6387448,3.26788151 35.3119781,2.98888396 34.6807661,2.98888396 C34.1652448,2.98888396 33.8080305,3.17809946 33.7055269,3.5088448 L32.8114779,3.5088448 C32.9058552,2.70531523 33.6618922,2.18992557 34.7233825,2.18992557 C35.8965106,2.18992557 36.5581703,2.77378937 36.5581703,3.76197365 L36.5581703,6.95832664 L35.6691924,6.95832664 L35.6691924,6.30089809 L35.5961285,6.30089809 C35.2941965,6.78100278 34.7572632,7.06159701 34.1906109,7.0354029 C33.7933742,7.07671159 33.3971963,6.94809413 33.1000196,6.68134711 C32.8028429,6.41460009 32.6324043,6.03462016 32.6308392,5.63534531 L32.6308392,5.63534531 Z M35.6387448,5.23560639 L35.6387448,4.84450076 L34.4960643,4.91754606 C33.8516548,4.96066056 33.5593886,5.17980688 33.5593886,5.59222042 C33.5593886,6.01325686 33.9247188,6.25827187 34.4270946,6.25827187 C34.7244903,6.28836877 35.0213708,6.19651431 35.2497739,6.00373592 C35.478177,5.81095754 35.618545,5.53376242 35.6387448,5.23560639 Z" id="Shape" fill-rule="nonzero"></path>
                            <path d="M37.771878,4.6172406 C37.771878,3.13903669 38.5319781,2.2026002 39.7142302,2.2026002 C40.3112086,2.17510056 40.8703342,2.49489869 41.149177,3.023334 L41.2181882,3.023334 L41.2181882,0.454000851 L42.1416664,0.454000851 L42.1416664,6.95830586 L41.2567517,6.95830586 L41.2567517,6.21919871 L41.1836878,6.21919871 C40.8837672,6.7432497 40.317753,7.05764216 39.7142406,7.0354029 C38.5238622,7.03545484 37.771878,6.09899757 37.771878,4.6172406 Z M38.7258351,4.6172406 C38.7258351,5.60947661 39.1936689,6.20654487 39.9760904,6.20654487 C40.7544279,6.20654487 41.2354696,5.6008641 41.2354696,4.62130272 C41.2354696,3.64631251 40.7493775,3.03199846 39.9760904,3.03199846 C39.1987089,3.03199846 38.7258039,3.63311844 38.7258039,4.6172406 L38.7258351,4.6172406 Z" id="Shape" fill-rule="nonzero"></path>
                            <path d="M45.9624411,4.6172406 C45.8822039,3.77872602 46.2843795,2.96722483 47.0002964,2.52307843 C47.7162134,2.07893203 48.6220919,2.07893203 49.3380089,2.52307843 C50.0539259,2.96722483 50.4561015,3.77872602 50.3758642,4.6172406 C50.4576281,5.45665625 50.0558196,6.26973138 49.3392678,6.71483394 C48.6227161,7.15993649 47.7155893,7.15993649 46.9990375,6.71483394 C46.2824858,6.26973138 45.8806773,5.45665625 45.9624411,4.6172406 L45.9624411,4.6172406 Z M49.4259911,4.6172406 C49.4259911,3.60319802 48.9703363,3.01019187 48.1706751,3.01019187 C47.3679586,3.01019187 46.9163982,3.60319802 46.9163982,4.61725099 C46.9163982,5.63941781 47.3679898,6.22785278 48.1706751,6.22785278 C48.9703467,6.22785278 49.4259911,5.63534531 49.4259911,4.6172406 Z" id="Shape" fill-rule="nonzero"></path>
                            <path d="M51.6149485,2.28020629 L52.5039263,2.28020629 L52.5039263,3.02336517 L52.5729375,3.02336517 C52.8129178,2.47620369 53.3736825,2.14149965 53.9693207,2.18990479 C54.4305214,2.15523842 54.8824653,2.3321202 55.1975465,2.67060762 C55.5126276,3.00909503 55.6566537,3.47245591 55.588959,3.92986046 L55.588959,6.95826431 L54.6654808,6.95826431 L54.6654808,4.16170218 C54.6654808,3.4099204 54.3387141,3.03605018 53.6557411,3.03605018 C53.3429158,3.02148384 53.0393271,3.14422349 52.8245667,3.37209058 C52.6098062,3.59995767 52.5052929,3.91022623 52.5384267,4.22155341 L52.5384267,6.95831625 L51.6149485,6.95831625 L51.6149485,2.28020629 Z" id="Path"></path>
                            <path d="M60.8071353,1.11550191 L60.8071353,2.3015142 L61.8209381,2.3015142 L61.8209381,3.07917507 L60.8071353,3.07917507 L60.8071353,5.48468351 C60.8071353,5.97471354 61.0090874,6.18928868 61.468795,6.18928868 C61.5864866,6.18891212 61.7040602,6.18179783 61.8209381,6.16798077 L61.8209381,6.93700834 C61.6550967,6.96666978 61.4870694,6.98245003 61.3186039,6.98418495 C60.291614,6.98418495 59.8826387,6.62299974 59.8826387,5.72106524 L59.8826387,3.07913351 L59.1397992,3.07913351 L59.1397992,2.30147265 L59.8826387,2.30147265 L59.8826387,1.11550191 L60.8071353,1.11550191 Z" id="Path"></path>
                            <path d="M63.0823437,0.454000851 L63.9977061,0.454000851 L63.9977061,3.03198807 L64.07077,3.03198807 C64.3222777,2.48003789 64.8928567,2.14490733 65.4975489,2.19396691 C65.9561307,2.16902001 66.4019567,2.34979591 66.713594,2.68705531 C67.0252314,3.02431472 67.1702211,3.48293001 67.1090713,3.93798469 L67.1090713,6.95831625 L66.1846682,6.95831625 L66.1846682,4.16574351 C66.1846682,3.41852252 65.8365466,3.04009151 65.1840629,3.04009151 C64.8627819,3.01374873 64.5462512,3.13051868 64.3190922,3.35918399 C64.0919333,3.5878493 63.9773091,3.90509332 64.0058635,4.22610381 L64.0058635,6.95831625 L63.0823853,6.95831625 L63.0823437,0.454000851 Z" id="Path"></path>
                            <path d="M72.4937225,5.69519654 C72.2347689,6.5776199 71.3806156,7.14776347 70.4661273,7.04860736 C69.8421728,7.06507419 69.2425177,6.80651239 68.8262649,6.34152458 C68.4100121,5.87653677 68.2192429,5.25213112 68.3045728,4.63397734 C68.2215093,4.01410564 68.4115638,3.38869948 68.8254987,2.91978332 C69.2394335,2.45086716 69.8365177,2.18458223 70.4620641,2.18991518 C71.76407,2.18991518 72.5495362,3.07921662 72.5495362,4.54822624 L72.5495362,4.87037984 L69.2453012,4.87037984 L69.2453012,4.92211724 C69.2160611,5.26925662 69.3346497,5.61262215 69.5719025,5.86776954 C69.8091552,6.12291692 70.1430578,6.26617162 70.4914934,6.26230282 C70.9432948,6.31652806 71.3830925,6.09247642 71.6047447,5.69516537 L72.4937225,5.69519654 Z M69.2452805,4.18757087 L71.6087766,4.18757087 C71.6323168,3.8700824 71.5206535,3.55741881 71.3013041,3.32663056 C71.0819548,3.09584231 70.775319,2.96839286 70.4569618,2.97568988 C70.1342915,2.97163703 69.823659,3.09803245 69.5955285,3.32620439 C69.3673981,3.55437633 69.2411062,3.86498481 69.2453012,4.18757087 L69.2452805,4.18757087 Z" id="Shape" fill-rule="nonzero"></path>
                        </g>
                    </g>
                </g>
            </g>
        </g>
    </g>
</svg>