<svg xmlns="http://www.w3.org/2000/svg" width="20" height="20" fill-rule="evenodd"><path d="M3.205 0h13.6c1.114 0 1.52.116 1.926.334a2.27 2.27 0 0 1 .945.945c.218.407.334.812.334 1.926v13.6c0 1.114-.116 1.52-.334 1.926a2.27 2.27 0 0 1-.945.945c-.407.218-.812.334-1.926.334h-13.6c-1.114 0-1.52-.116-1.926-.334a2.27 2.27 0 0 1-.945-.945C.116 18.314 0 17.9 0 16.795v-13.6C0 2.1.116 1.686.334 1.28a2.27 2.27 0 0 1 .945-.945C1.686.116 2.1 0 3.205 0z" fill="#8FBC5D"/><g fill="#fff"><circle cx="10" cy="10" r="1"/><path d="M12.784 13.552l-.01 2.003a.56.56 0 0 1-.556.556c-.306.002-.552-.245-.55-.55l.017-3.32a.56.56 0 0 1 .556-.556l3.32-.017c.306-.002.552.245.55.55a.56.56 0 0 1-.556.556l-2.123.01 3.092 3.092a.5.5 0 0 1-.708.708l-3.032-3.032zM7.218 6.5l.01-2.003a.56.56 0 0 1 .556-.556c.306-.002.552.245.55.55l-.017 3.32a.56.56 0 0 1-.556.556l-3.32.017c-.306.002-.552-.245-.55-.55a.56.56 0 0 1 .556-.556l2.123-.01-3.092-3.092a.5.5 0 1 1 .708-.708L7.218 6.5zm0 7.052l.01 2.003a.56.56 0 0 0 .556.556c.306.001.552-.245.55-.55l-.017-3.32a.56.56 0 0 0-.556-.556l-3.32-.017c-.306-.001-.552.245-.55.55a.56.56 0 0 0 .556.557l2.123.01-3.092 3.092a.5.5 0 0 0 .708.708l3.032-3.033zM12.784 6.5l-.01-2.003a.56.56 0 0 0-.556-.556c-.306-.001-.552.245-.55.55l.017 3.32a.56.56 0 0 0 .556.556l3.32.017c.306.001.552-.245.55-.55a.56.56 0 0 0-.556-.557l-2.123-.01 3.092-3.092a.5.5 0 0 0-.708-.708L12.784 6.5z" fill-rule="nonzero"/></g></svg>