<svg xmlns="http://www.w3.org/2000/svg" width="20" height="20" fill-rule="evenodd"><path d="M3.205 0h13.6c1.114 0 1.52.116 1.926.334a2.27 2.27 0 0 1 .945.945c.218.407.334.812.334 1.926v13.6c0 1.114-.116 1.52-.334 1.926a2.27 2.27 0 0 1-.945.945c-.407.218-.812.334-1.926.334h-13.6c-1.114 0-1.52-.116-1.926-.334a2.27 2.27 0 0 1-.945-.945C.116 18.314 0 17.9 0 16.795v-13.6C0 2.1.116 1.686.334 1.28a2.27 2.27 0 0 1 .945-.945C1.686.116 2.1 0 3.205 0z" fill="#ab6993"/><path d="M6.53 12.106l1.874 1.523c.075.06.087.172.026.247-.016.02-.035.035-.057.046L6.215 15a.5.5 0 0 1-.134.043l-.047.006a.5.5 0 0 1-.357-.107c-.14-.113-.204-.292-.166-.462l.013-.046.73-2.254c.03-.092.13-.143.22-.113.02.007.04.017.057.03zM11.915 5a1.5 1.5 0 0 1 1.983-.224l.063.047.367.305a1.43 1.43 0 0 1 .514.977c.03.353-.07.704-.284.987l-.05.064-5.155 6.082a.35.35 0 0 1-.493.043l-2.048-1.7a.35.35 0 0 1-.046-.495L11.915 5z" fill="#fff"/></svg>