<svg xmlns="http://www.w3.org/2000/svg" width="20" height="20" fill-rule="evenodd"><path d="M3.205 0h13.6c1.114 0 1.52.116 1.926.334a2.27 2.27 0 0 1 .945.945c.218.407.334.812.334 1.926v13.6c0 1.114-.116 1.52-.334 1.926a2.27 2.27 0 0 1-.945.945c-.407.218-.812.334-1.926.334h-13.6c-1.114 0-1.52-.116-1.926-.334a2.27 2.27 0 0 1-.945-.945C.116 18.314 0 17.9 0 16.795v-13.6C0 2.1.116 1.686.334 1.28a2.27 2.27 0 0 1 .945-.945C1.686.116 2.1 0 3.205 0z" fill="#EE6C4D"/><path d="M12.543 4.28l4.5 4.5a.39.39 0 0 1 0 .549l-4.5 4.5a.39.39 0 0 1-.663-.275V11.3c-3.885 0-6.604 1.243-8.547 3.963.777-3.885 3.108-7.77 8.547-8.547v-2.17a.39.39 0 0 1 .663-.275z" fill="#fff"/></svg>