<?xml version="1.0" encoding="UTF-8"?>
<svg width="460px" height="317px" viewBox="0 0 460 317" version="1.1" xmlns="http://www.w3.org/2000/svg" xmlns:xlink="http://www.w3.org/1999/xlink">
    <!-- Generator: Sketch 55.1 (78136) - https://sketchapp.com -->
    <title>Group 48</title>
    <desc>Created with Sketch.</desc>
    <defs>
        <rect id="path-1" x="25" y="22" width="406.8" height="255.6"></rect>
        <filter x="-4.3%" y="-6.1%" width="108.6%" height="113.7%" filterUnits="objectBoundingBox" id="filter-3">
            <feOffset dx="0" dy="2" in="SourceAlpha" result="shadowOffsetOuter1"></feOffset>
            <feGaussianBlur stdDeviation="5.5" in="shadowOffsetOuter1" result="shadowBlurOuter1"></feGaussianBlur>
            <feColorMatrix values="0 0 0 0 0   0 0 0 0 0   0 0 0 0 0  0 0 0 0.2 0" type="matrix" in="shadowBlurOuter1"></feColorMatrix>
        </filter>
        <rect id="path-4" x="117" y="171.9" width="216.9" height="119.7"></rect>
        <filter x="-8.1%" y="-12.9%" width="116.1%" height="129.2%" filterUnits="objectBoundingBox" id="filter-5">
            <feOffset dx="0" dy="2" in="SourceAlpha" result="shadowOffsetOuter1"></feOffset>
            <feGaussianBlur stdDeviation="5.5" in="shadowOffsetOuter1" result="shadowBlurOuter1"></feGaussianBlur>
            <feColorMatrix values="0 0 0 0 0   0 0 0 0 0   0 0 0 0 0  0 0 0 0.2 0" type="matrix" in="shadowBlurOuter1"></feColorMatrix>
        </filter>
        <ellipse id="path-6" cx="113.724" cy="22.1337209" rx="6.084" ry="6.12209302"></ellipse>
        <filter x="-45.2%" y="-28.6%" width="190.4%" height="189.8%" filterUnits="objectBoundingBox" id="filter-7">
            <feOffset dx="0" dy="2" in="SourceAlpha" result="shadowOffsetOuter1"></feOffset>
            <feGaussianBlur stdDeviation="1.5" in="shadowOffsetOuter1" result="shadowBlurOuter1"></feGaussianBlur>
            <feColorMatrix values="0 0 0 0 0   0 0 0 0 0   0 0 0 0 0  0 0 0 0.14 0" type="matrix" in="shadowBlurOuter1"></feColorMatrix>
        </filter>
        <ellipse id="path-8" cx="113.724" cy="6.12209302" rx="6.084" ry="6.12209302"></ellipse>
        <filter x="-45.2%" y="-28.6%" width="190.4%" height="189.8%" filterUnits="objectBoundingBox" id="filter-9">
            <feOffset dx="0" dy="2" in="SourceAlpha" result="shadowOffsetOuter1"></feOffset>
            <feGaussianBlur stdDeviation="1.5" in="shadowOffsetOuter1" result="shadowBlurOuter1"></feGaussianBlur>
            <feColorMatrix values="0 0 0 0 0   0 0 0 0 0   0 0 0 0 0  0 0 0 0.14 0" type="matrix" in="shadowBlurOuter1"></feColorMatrix>
        </filter>
        <rect id="path-10" x="0" y="0" width="102.96" height="28.255814" rx="3.744"></rect>
        <filter x="-5.3%" y="-12.4%" width="110.7%" height="138.9%" filterUnits="objectBoundingBox" id="filter-11">
            <feOffset dx="0" dy="2" in="SourceAlpha" result="shadowOffsetOuter1"></feOffset>
            <feGaussianBlur stdDeviation="1.5" in="shadowOffsetOuter1" result="shadowBlurOuter1"></feGaussianBlur>
            <feColorMatrix values="0 0 0 0 0   0 0 0 0 0   0 0 0 0 0  0 0 0 0.14 0" type="matrix" in="shadowBlurOuter1"></feColorMatrix>
        </filter>
        <rect id="path-12" x="333.9" y="153" width="115.2" height="151.2"></rect>
        <filter x="-15.2%" y="-10.3%" width="130.4%" height="123.1%" filterUnits="objectBoundingBox" id="filter-13">
            <feOffset dx="0" dy="2" in="SourceAlpha" result="shadowOffsetOuter1"></feOffset>
            <feGaussianBlur stdDeviation="5.5" in="shadowOffsetOuter1" result="shadowBlurOuter1"></feGaussianBlur>
            <feColorMatrix values="0 0 0 0 0   0 0 0 0 0   0 0 0 0 0  0 0 0 0.2 0" type="matrix" in="shadowBlurOuter1"></feColorMatrix>
        </filter>
    </defs>
    <g id="----↳-PDF/IMG---Features" stroke="none" stroke-width="1" fill="none" fill-rule="evenodd">
        <g id="Features-PDF" transform="translate(-459.000000, -314.000000)">
            <g id="Group-48" transform="translate(459.000000, 314.000000)">
                <g id="Group-41">
                    <rect id="Rectangle" fill="#FCC3BA" x="0" y="0" width="234" height="202.5"></rect>
                    <mask id="mask-2" fill="white">
                        <use xlink:href="#path-1"></use>
                    </mask>
                    <g id="Rectangle">
                        <use fill="black" fill-opacity="1" filter="url(#filter-3)" xlink:href="#path-1"></use>
                        <use fill="#F3F0EC" fill-rule="evenodd" xlink:href="#path-1"></use>
                    </g>
                    <g id="drawer-bg-copy">
                        <use fill="black" fill-opacity="1" filter="url(#filter-5)" xlink:href="#path-4"></use>
                        <use fill="#FFFFFF" fill-rule="evenodd" xlink:href="#path-4"></use>
                    </g>
                    <g id="Group-40" transform="translate(142.844238, 193.500000)" stroke="#B4B4B4" stroke-linecap="round" stroke-linejoin="round" stroke-width="1.8">
                        <path d="M0.751300049,0.515917969 L42.3,0.515917969" id="Line"></path>
                        <path d="M0.751300049,79.715918 L42.3,79.715918" id="Line-Copy-14"></path>
                        <path d="M0.751300049,69.815918 L42.3,69.815918" id="Line-Copy-13"></path>
                        <path d="M0.751300049,59.915918 L42.3,59.915918" id="Line-Copy-12"></path>
                        <path d="M0.751300049,50.015918 L42.3,50.015918" id="Line-Copy-11"></path>
                        <path d="M0.751300049,40.115918 L42.3,40.115918" id="Line-Copy-10"></path>
                        <path d="M0.751300049,30.215918 L42.3,30.215918" id="Line-Copy-9"></path>
                        <path d="M0.751300049,20.315918 L42.3,20.315918" id="Line-Copy-8"></path>
                        <path d="M0.751300049,10.415918 L42.3,10.415918" id="Line-Copy-7"></path>
                    </g>
                    <g id="Group-38" transform="translate(205.200000, 193.500000)" stroke="#B4B4B4" stroke-linecap="round" stroke-linejoin="round" stroke-width="1.8">
                        <path d="M0.751300049,0.515917969 L42.3,0.515917969" id="Line-Copy-15"></path>
                        <path d="M0.751300049,79.715918 L42.3,79.715918" id="Line-Copy-16"></path>
                        <path d="M0.751300049,69.815918 L42.3,69.815918" id="Line-Copy-17"></path>
                        <path d="M0.751300049,59.915918 L42.3,59.915918" id="Line-Copy-18"></path>
                        <path d="M0.751300049,50.015918 L42.3,50.015918" id="Line-Copy-19"></path>
                        <path d="M0.751300049,40.115918 L42.3,40.115918" id="Line-Copy-20"></path>
                        <path d="M0.751300049,30.215918 L42.3,30.215918" id="Line-Copy-21"></path>
                        <path d="M0.751300049,20.315918 L42.3,20.315918" id="Line-Copy-22"></path>
                        <path d="M0.751300049,10.415918 L42.3,10.415918" id="Line-Copy-23"></path>
                    </g>
                    <g id="Group-19" transform="translate(268.200000, 193.500000)" stroke="#B4B4B4" stroke-linecap="round" stroke-linejoin="round" stroke-width="1.8">
                        <path d="M0.751300049,0.515917969 L42.3,0.515917969" id="Line-Copy-24"></path>
                        <path d="M0.751300049,59.915918 L42.3,59.915918" id="Line-Copy-27"></path>
                        <path d="M0.751300049,50.015918 L42.3,50.015918" id="Line-Copy-28"></path>
                        <path d="M0.751300049,40.115918 L42.3,40.115918" id="Line-Copy-29"></path>
                        <path d="M0.751300049,30.215918 L42.3,30.215918" id="Line-Copy-30"></path>
                        <path d="M0.751300049,20.315918 L42.3,20.315918" id="Line-Copy-31"></path>
                        <path d="M0.751300049,10.415918 L42.3,10.415918" id="Line-Copy-32"></path>
                    </g>
                    <g id="Group-31" transform="translate(143.300000, 55.800000)">
                        <g id="Group-30" transform="translate(33.352000, 41.441860)">
                            <rect id="Rectangle-5" fill="#B4B4B4" x="32.76" y="36.7325581" width="39.312" height="2.8255814" rx="1.4127907"></rect>
                            <g id="Oval-5-Copy">
                                <use fill="black" fill-opacity="1" filter="url(#filter-7)" xlink:href="#path-6"></use>
                                <use fill="#E5322D" fill-rule="evenodd" xlink:href="#path-6"></use>
                            </g>
                            <g id="Oval-5">
                                <use fill="black" fill-opacity="1" filter="url(#filter-9)" xlink:href="#path-8"></use>
                                <use fill="#E5322D" fill-rule="evenodd" xlink:href="#path-8"></use>
                            </g>
                            <g id="Group-7">
                                <g id="L.button-def">
                                    <g id="Rectangle-Copy-2">
                                        <use fill="black" fill-opacity="1" filter="url(#filter-11)" xlink:href="#path-10"></use>
                                        <use fill="#E5322D" fill-rule="evenodd" xlink:href="#path-10"></use>
                                    </g>
                                </g>
                                <path d="M29.4927907,13.1860465 L73.4672093,13.1860465 C74.2474721,13.1860465 74.88,13.8185745 74.88,14.5988372 C74.88,15.3791 74.2474721,16.0116279 73.4672093,16.0116279 L29.4927907,16.0116279 C28.7125279,16.0116279 28.08,15.3791 28.08,14.5988372 C28.08,13.8185745 28.7125279,13.1860465 29.4927907,13.1860465 Z" id="Rectangle-4" fill="#FFFFFF"></path>
                            </g>
                        </g>
                        <g id="Group-29">
                            <rect id="Rectangle-6" fill="#969696" x="38.032" y="0" width="93.6" height="7.53488372" rx="3.76744186"></rect>
                            <rect id="Rectangle-6-Copy" fill="#B4B4B4" x="0" y="17" width="170" height="2.8255814" rx="1.4127907"></rect>
                            <rect id="Rectangle-6-Copy-2" fill="#B4B4B4" x="40.84" y="23.5465116" width="87.984" height="2.8255814" rx="1.4127907"></rect>
                        </g>
                    </g>
                    <g id="drawer-bg-copy-3">
                        <use fill="black" fill-opacity="1" filter="url(#filter-13)" xlink:href="#path-12"></use>
                        <use fill="#FFFFFF" fill-rule="evenodd" xlink:href="#path-12"></use>
                    </g>
                    <rect id="Rectangle" fill="#FFFFFF" x="333.9" y="153" width="115.2" height="21.6"></rect>
                    <path d="M356.911523,163.415918 L385.2,163.415918" id="Line" stroke="#B4B4B4" stroke-width="1.8" stroke-linecap="round" stroke-linejoin="round"></path>
                    <rect id="Rectangle-Copy" fill="#FFFFFF" x="333.9" y="174.6" width="115.2" height="21.6"></rect>
                    <rect id="Rectangle-Copy-2" fill="#FFFFFF" x="333.9" y="196.2" width="115.2" height="21.6"></rect>
                    <rect id="Rectangle-Copy-3" fill="#FFFFFF" x="333.9" y="217.8" width="115.2" height="21.6"></rect>
                    <path d="M347.4,225 L340.2,225 C339.7005,225 339.3045,225.4005 339.3045,225.9 L339.3,231.3 C339.3,231.7995 339.7005,232.2 340.2,232.2 L347.4,232.2 C347.8995,232.2 348.3,231.7995 348.3,231.3 L348.3,225.9 C348.3,225.4005 347.8995,225 347.4,225 L347.4,225 Z M347.4,231.3 L340.2,231.3 L340.2,228.6 L347.4,228.6 L347.4,231.3 L347.4,231.3 Z M347.4,226.8 L340.2,226.8 L340.2,225.9 L347.4,225.9 L347.4,226.8 L347.4,226.8 Z" id="Shape" fill="#677897"></path>
                    <rect id="Rectangle-Copy-4" fill="#F5F5F5" x="333.9" y="239.4" width="115.2" height="21.6"></rect>
                    <path d="M343.7955,245.7 C341.3115,245.7 339.3,247.716 339.3,250.2 C339.3,252.684 341.3115,254.7 343.7955,254.7 C346.284,254.7 348.3,252.684 348.3,250.2 C348.3,247.716 346.284,245.7 343.7955,245.7 Z M346.914,248.4 L345.5865,248.4 C345.4425,247.8375 345.2355,247.2975 344.9655,246.798 C345.7935,247.0815 346.482,247.6575 346.914,248.4 Z M343.8,246.618 C344.1735,247.158 344.466,247.7565 344.6595,248.4 L342.9405,248.4 C343.134,247.7565 343.4265,247.158 343.8,246.618 Z M340.317,251.1 C340.245,250.812 340.2,250.5105 340.2,250.2 C340.2,249.8895 340.245,249.588 340.317,249.3 L341.838,249.3 C341.802,249.597 341.775,249.894 341.775,250.2 C341.775,250.506 341.802,250.803 341.838,251.1 L340.317,251.1 Z M340.686,252 L342.0135,252 C342.1575,252.5625 342.3645,253.1025 342.6345,253.602 C341.8065,253.3185 341.118,252.747 340.686,252 L340.686,252 Z M342.0135,248.4 L340.686,248.4 C341.118,247.653 341.8065,247.0815 342.6345,246.798 C342.3645,247.2975 342.1575,247.8375 342.0135,248.4 L342.0135,248.4 Z M343.8,253.782 C343.4265,253.242 343.134,252.6435 342.9405,252 L344.6595,252 C344.466,252.6435 344.1735,253.242 343.8,253.782 Z M344.853,251.1 L342.747,251.1 C342.7065,250.803 342.675,250.506 342.675,250.2 C342.675,249.894 342.7065,249.5925 342.747,249.3 L344.853,249.3 C344.8935,249.5925 344.925,249.894 344.925,250.2 C344.925,250.506 344.8935,250.803 344.853,251.1 Z M344.9655,253.602 C345.2355,253.1025 345.4425,252.5625 345.5865,252 L346.914,252 C346.482,252.7425 345.7935,253.3185 344.9655,253.602 L344.9655,253.602 Z M345.762,251.1 C345.798,250.803 345.825,250.506 345.825,250.2 C345.825,249.894 345.798,249.597 345.762,249.3 L347.283,249.3 C347.355,249.588 347.4,249.8895 347.4,250.2 C347.4,250.5105 347.355,250.812 347.283,251.1 L345.762,251.1 Z" id="Shape-Copy-25" fill="#677897" fill-rule="nonzero"></path>
                    <rect id="Rectangle-Copy-5" fill="#FFFFFF" x="333.9" y="261" width="115.2" height="21.6"></rect>
                    <path d="M343.8,267.3 C346.284,267.3 348.3,269.316 348.3,271.8 C348.3,274.284 346.284,276.3 343.8,276.3 C341.316,276.3 339.3,274.284 339.3,271.8 C339.3,269.316 341.316,267.3 343.8,267.3 Z M343.516553,274.910156 L343.516553,275.55 L344.128711,275.55 L344.128711,274.910156 L343.516553,274.910156 Z M342.479883,272.446143 L343.027441,272.446143 C343.037695,272.17954 343.079736,271.975489 343.153564,271.833984 C343.284815,271.579686 343.521678,271.452539 343.86416,271.452539 C344.141017,271.452539 344.339428,271.526366 344.459399,271.674023 C344.579371,271.82168 344.639355,271.995995 344.639355,272.196973 C344.639355,272.340528 344.59834,272.478954 344.516309,272.612256 C344.471191,272.688135 344.411719,272.760937 344.337891,272.830664 L344.091797,273.073682 C343.855956,273.305421 343.703174,273.51101 343.633447,273.690454 C343.56372,273.869898 343.528857,274.106249 343.528857,274.399512 L344.076416,274.399512 C344.076416,274.141112 344.105639,273.945777 344.164087,273.813501 C344.222534,273.681225 344.350194,273.519728 344.54707,273.329004 C344.817775,273.066503 344.997729,272.867579 345.086938,272.732227 C345.176148,272.596874 345.220752,272.420509 345.220752,272.203125 C345.220752,271.844236 345.099244,271.54944 344.856226,271.318726 C344.613207,271.088012 344.289699,270.972656 343.885693,270.972656 C343.448875,270.972656 343.105372,271.107494 342.855176,271.377173 C342.604979,271.646852 342.479883,272.003172 342.479883,272.446143 Z" id="Combined-Shape-Copy-3" fill="#677897"></path>
                    <rect id="Rectangle-Copy-6" fill="#FFFFFF" x="333.9" y="282.6" width="115.2" height="21.6"></rect>
                    <rect id="Rectangle-13-Copy-8" fill="#E5322D" x="333.9" y="239.4" width="1.8" height="21.6"></rect>
                    <path d="M333.9,239.6275 L449.1,239.6275" id="Line-5-Copy-4" stroke="#000000" stroke-width="0.5" opacity="0.2" stroke-linecap="square"></path>
                    <path d="M333.9,282.8275 L449.1,282.8275" id="Line-5-Copy-6" stroke="#000000" stroke-width="0.5" opacity="0.2" stroke-linecap="square"></path>
                    <path d="M345.065098,289.589887 C344.560303,289.839729 344.181681,290.260748 343.905179,290.738142 C343.460622,289.971629 342.75391,289.35 341.683557,289.35 C340.612781,289.35 339.3,290.282064 339.3,291.856532 C339.3,293.450585 340.596852,294.20617 341.239211,294.632816 C341.925774,295.08846 343.097297,295.916866 343.905073,297.45 C344.713166,295.916974 345.884478,295.08846 346.571251,294.632816 C347.053786,294.311993 347.906292,293.805384 348.3,292.896475 L345.065098,289.589887 Z M344.883051,292.895902 L344.883051,289.975375 L347.730478,292.895797 L344.883051,292.895797 L344.883051,292.895902 Z" id="Shape-Copy-4" fill="#4D90FE" fill-rule="nonzero"></path>
                    <path d="M345.065098,159.989887 C344.560303,160.239729 344.181681,160.660748 343.905179,161.138142 C343.460622,160.371629 342.75391,159.75 341.683557,159.75 C340.612781,159.75 339.3,160.682064 339.3,162.256532 C339.3,163.850585 340.596852,164.60617 341.239211,165.032816 C341.925774,165.48846 343.097297,166.316866 343.905073,167.85 C344.713166,166.316974 345.884478,165.48846 346.571251,165.032816 C347.053786,164.711993 347.906292,164.205384 348.3,163.296475 L345.065098,159.989887 Z M344.883051,163.295902 L344.883051,160.375375 L347.730478,163.295797 L344.883051,163.295797 L344.883051,163.295902 Z" id="Shape" fill="#E5322D" fill-rule="nonzero"></path>
                    <path d="M443.602858,207.222773 L441.566223,209.157642 C441.436669,209.280786 441.226618,209.280786 441.097127,209.157642 C440.967624,209.034607 440.967624,208.835056 441.097127,208.712031 L442.899234,206.999968 L441.097179,205.287964 C440.967677,205.16488 440.967677,204.965349 441.097179,204.842314 C441.226681,204.719229 441.436721,204.719229 441.566276,204.842314 L443.60291,206.777212 C443.667661,206.838759 443.7,206.919339 443.7,206.999958 C443.7,207.080617 443.667598,207.161256 443.602858,207.222773 L443.602858,207.222773 Z" id="arrow_enter_tool-copy-5" fill="#677897" transform="translate(442.350000, 207.000000) rotate(-360.000000) translate(-442.350000, -207.000000) "></path>
                    <path d="M443.602858,185.622773 L441.566223,187.557642 C441.436669,187.680786 441.226618,187.680786 441.097127,187.557642 C440.967624,187.434607 440.967624,187.235056 441.097127,187.112031 L442.899234,185.399968 L441.097179,183.687964 C440.967677,183.56488 440.967677,183.365349 441.097179,183.242314 C441.226681,183.119229 441.436721,183.119229 441.566276,183.242314 L443.60291,185.177212 C443.667661,185.238759 443.7,185.319339 443.7,185.399958 C443.7,185.480617 443.667598,185.561256 443.602858,185.622773 L443.602858,185.622773 Z" id="arrow_enter_tool-copy-6" fill="#677897" transform="translate(442.350000, 185.400000) rotate(-360.000000) translate(-442.350000, -185.400000) "></path>
                    <path d="M443.602858,272.022773 L441.566223,273.957642 C441.436669,274.080786 441.226618,274.080786 441.097127,273.957642 C440.967624,273.834607 440.967624,273.635056 441.097127,273.512031 L442.899234,271.799968 L441.097179,270.087964 C440.967677,269.96488 440.967677,269.765349 441.097179,269.642314 C441.226681,269.519229 441.436721,269.519229 441.566276,269.642314 L443.60291,271.577212 C443.667661,271.638759 443.7,271.719339 443.7,271.799958 C443.7,271.880617 443.667598,271.961256 443.602858,272.022773 L443.602858,272.022773 Z" id="arrow_enter_tool-copy-7" fill="#677897" transform="translate(442.350000, 271.800000) rotate(-360.000000) translate(-442.350000, -271.800000) "></path>
                    <g id="Group-Copy" transform="translate(339.300000, 202.950000)" fill-rule="nonzero">
                        <path d="M2.85517241,6.26582801 L2.85517241,6.48951222 C2.85517241,6.78772801 3.06,7.03814994 3.34052069,7.12528239 C3.4344,7.65208853 3.90994138,8.08512625 4.48448276,8.08512625 C5.05902414,8.08512625 5.53456552,7.65208853 5.62844483,7.12528239 C5.90896552,7.03814994 6.1137931,6.78774292 6.1137931,6.48951222 L6.1137931,6.26582801 L2.85517241,6.26582801 L2.85517241,6.26582801 Z" id="Path-Copy-3" fill="#677897"></path>
                        <path d="M3.21211381,5.36845958 L5.75969167,5.36845958 C5.86595443,4.84913625 6.02288619,4.40014349 6.25373527,4.14699431 C6.63208503,3.73242281 6.84310345,3.2106592 6.84310345,2.68423415 C6.84310345,1.26668354 5.46321252,0.200058654 3.9738672,0.501377701 L3.97316001,0.501520188 C3.09535365,0.677650487 2.37898465,1.36393966 2.1951422,2.19680841 C2.03756085,2.91146535 2.23038466,3.6230629 2.72685954,4.15946667 C2.95523867,4.40644011 3.10902537,4.85159361 3.21211381,5.36845958 Z M3.79575186,-0.380821265 C3.79586974,-0.380844932 3.79598762,-0.380868593 3.79610551,-0.380892246 L3.79539831,-0.380749759 C3.79551616,-0.380773602 3.79563401,-0.380797439 3.79575186,-0.380821269 Z" id="Path-Copy-4" stroke="#677897" stroke-width="0.9"></path>
                        <path d="M4.28292012,5.27209651 L4.28292012,4.30035188 C4.28292012,4.27754928 4.27835546,4.25497986 4.2695175,4.23385598 L4.00559249,3.6 L4.45064726,3.70692502 C4.48036614,3.71396631 4.5114447,3.71396631 4.54111503,3.70692502 L4.9861698,3.6 L4.72224479,4.23385598 C4.71345538,4.25497986 4.70884215,4.27754928 4.70884215,4.30035188 L4.70884215,5.27209651 L4.28292012,5.27209651 Z" id="Path-Copy-10" stroke="#677897" stroke-width="0.5" fill="#677897" stroke-linejoin="round"></path>
                        <path d="M0.232758621,2.83350852 L0.713793103,2.83350852 C0.842416479,2.83350852 0.946551724,2.73349139 0.946551724,2.60982431 C0.946551724,2.48621549 0.842416479,2.3861401 0.713793103,2.3861401 L0.232758621,2.3861401 C0.104135245,2.3861401 1.17683641e-14,2.48621549 1.17683641e-14,2.60982431 C1.17683641e-14,2.73349139 0.104135245,2.83350852 0.232758621,2.83350852 Z" id="Path-Copy-5" fill="#677897"></path>
                        <path d="M8.75398726,2.3861401 L8.27295278,2.3861401 C8.1443294,2.3861401 8.04019416,2.48621549 8.04019416,2.60982431 C8.04019416,2.73349139 8.1443294,2.83350852 8.27295278,2.83350852 L8.75398726,2.83350852 C8.88261064,2.83350852 8.98674588,2.73349139 8.98674588,2.60982431 C8.98674588,2.48621549 8.88261064,2.3861401 8.75398726,2.3861401 Z" id="Path-Copy-6" fill="#677897"></path>
                        <path d="M0.545588628,4.5111401 C0.610627686,4.61907938 0.753434814,4.65420479 0.863570855,4.5930994 L1.26683728,4.36941519 C1.37818561,4.30755253 1.41637258,4.1708372 1.35206088,4.06377168 C1.28750673,3.95676442 1.14494208,3.92006622 1.03407866,3.98187064 L0.630812234,4.20555485 C0.519463893,4.26735926 0.48127694,4.40413284 0.545588628,4.5111401 L0.545588628,4.5111401 Z" id="Path-Copy-7" fill="#677897"></path>
                        <path d="M8.44115725,0.70850852 C8.37636064,0.60150126 8.23385661,0.564570072 8.12317503,0.626607486 L7.7199086,0.850291696 C7.60856027,0.912096106 7.5703733,1.04886968 7.63468501,1.15587694 C7.69972406,1.26381622 7.84253118,1.29894163 7.95266722,1.23783624 L8.35593365,1.01415203 C8.46728199,0.95228937 8.50546894,0.815574043 8.44115725,0.70850852 Z" id="Path-Copy-8" fill="#677897"></path>
                        <path d="M0.630812234,1.01415203 L1.03407866,1.23783624 C1.14427533,1.2989999 1.28702182,1.26369972 1.35206088,1.15587694 C1.41637258,1.04886968 1.37818561,0.912096106 1.26683728,0.850291696 L0.863570855,0.626607486 C0.75240436,0.564570072 0.609900331,0.60150126 0.545588628,0.70850852 C0.48127694,0.815574043 0.519463893,0.95228937 0.630812234,1.01415203 Z" id="Path-Copy-11" fill="#677897"></path>
                        <path d="M7.63468501,4.06377168 C7.5703733,4.1708372 7.60856027,4.30755253 7.7199086,4.36941519 L8.12317503,4.5930994 C8.2334323,4.65426305 8.37617881,4.61890464 8.44115725,4.5111401 C8.50546894,4.40413284 8.46728199,4.26735926 8.35593365,4.20555485 L7.95266722,3.98187064 C7.84131889,3.92006622 7.69899669,3.95676442 7.63468501,4.06377168 Z" id="Path-Copy-12" fill="#677897"></path>
                    </g>
                    <g id="product" transform="translate(340.200000, 180.900000)" fill-rule="nonzero">
                        <path d="M8.09997615,2.34876501 C8.10136913,2.22575764 8.04164976,2.11009618 7.94228415,2.04163224 C7.92181813,2.02752808 7.90749548,2.01772128 7.9067097,2.01731725 L4.21485959,0.041486064 C4.11152936,-0.013828688 3.98841173,-0.013828688 3.88511722,0.041486064 L0.193552854,2.01717033 L0.186087933,2.02080656 C0.072328245,2.0762315 -0.000177929549,2.19417019 3.27938354e-07,2.32360524 C3.27938354e-07,2.33701154 3.27938354e-07,2.34634086 3.27938354e-07,2.34931595 L3.27938354e-07,6.65090107 C3.27938354e-07,6.78790241 0.074185546,6.91348086 0.192374182,6.9767292 L3.88472433,8.95285422 C3.88493864,8.95296441 3.88808176,8.95480089 3.89336793,8.95788618 C3.99348359,9.01643313 4.11606546,9.0131642 4.21521676,8.95289095 C4.21525248,8.95285422 4.2152882,8.95285422 4.21532391,8.95281749 L7.90767406,6.97669247 C8.0258627,6.91344413 8.09997615,6.78786568 8.09997615,6.65086434 L8.09997615,2.34931595 C8.09997615,2.34916903 8.09997615,2.34898539 8.09997615,2.34876501 L8.09997615,2.34876501 Z" id="Shape-Copy-31" fill="#677897"></path>
                        <polygon id="Path" fill="#FFFFFF" points="4.04998841 0.993641232 6.74998841 2.34362536 4.04998841 3.69364123 1.34998841 2.34362536"></polygon>
                        <polygon id="Path" fill="#FFFFFF" points="0.853599027 3.23545303 3.55359903 4.64937758 3.55359903 7.73545303 0.853599027 6.32152849"></polygon>
                        <polygon id="Path" fill="#FFFFFF" points="7.24637778 6.32149176 4.54637778 7.7354163 4.54637778 4.64934085 7.24637778 3.2354163"></polygon>
                    </g>
                    <path d="M356.911523,185.015918 L385.2,185.015918" id="Line-Copy" stroke="#B4B4B4" stroke-width="1.8" stroke-linecap="round" stroke-linejoin="round"></path>
                    <path d="M356.911523,206.615918 L385.2,206.615918" id="Line-Copy-2" stroke="#B4B4B4" stroke-width="1.8" stroke-linecap="round" stroke-linejoin="round"></path>
                    <path d="M356.911523,228.215918 L385.2,228.215918" id="Line-Copy-3" stroke="#B4B4B4" stroke-width="1.8" stroke-linecap="round" stroke-linejoin="round"></path>
                    <path d="M356.911523,249.815918 L385.2,249.815918" id="Line-Copy-4" stroke="#B4B4B4" stroke-width="1.8" stroke-linecap="round" stroke-linejoin="round"></path>
                    <path d="M356.911523,271.415918 L385.2,271.415918" id="Line-Copy-5" stroke="#B4B4B4" stroke-width="1.8" stroke-linecap="round" stroke-linejoin="round"></path>
                    <path d="M356.911523,293.015918 L385.2,293.015918" id="Line-Copy-6" stroke="#B4B4B4" stroke-width="1.8" stroke-linecap="round" stroke-linejoin="round"></path>
                    <g id="Group-4" transform="translate(96.000000, 148.000000)">
                        <ellipse id="Oval-2" stroke="#F3F0EC" stroke-width="4.8" fill="#3CB6E2" cx="20.9255336" cy="20.9984623" rx="23.3255336" ry="23.3984623"></ellipse>
                        <path d="M13.0624025,25.6412903 L18.0394639,25.6412903 C18.5352656,25.6412903 18.9134677,25.7420657 19.1740814,25.9436195 C19.4346951,26.1451732 19.565,26.4191563 19.565,26.7655768 C19.565,27.074206 19.4617095,27.3355921 19.2551255,27.549743 C19.0485414,27.7638939 18.7354919,27.8709677 18.3159673,27.8709677 L11.2985015,27.8709677 C10.8217691,27.8709677 10.4499234,27.7402747 10.1829532,27.4788846 C9.91598307,27.2174946 9.7825,26.9104446 9.7825,26.5577255 C9.7825,26.3309775 9.86831055,26.030226 10.0399342,25.655462 C10.2115579,25.280698 10.3990698,24.9862449 10.6024756,24.772094 C11.4478811,23.9028934 12.2106415,23.1581004 12.8907797,22.5376927 C13.570918,21.917285 14.0571777,21.5094597 14.3495736,21.3142045 C14.870801,20.9488883 15.304621,20.5820029 15.6510465,20.2135375 C15.9974721,19.845072 16.2612601,19.4671643 16.4424184,19.0798032 C16.6235767,18.692442 16.7141545,18.3129598 16.7141545,17.941345 C16.7141545,17.5382375 16.6172203,17.1776506 16.4233492,16.8595735 C16.229478,16.5414965 15.96569,16.2942819 15.6319773,16.1179224 C15.2982647,15.9415628 14.9343644,15.8533844 14.5402656,15.8533844 C13.707573,15.8533844 13.0528703,16.2155459 12.5761379,16.9398797 C12.5125736,17.034358 12.406105,17.2925949 12.2567288,17.7145981 C12.1073526,18.1366013 11.9389097,18.4609721 11.751395,18.6877201 C11.5638802,18.9144681 11.2889687,19.0278403 10.926652,19.0278403 C10.6088304,19.0278403 10.3450425,18.9239157 10.1352802,18.7160634 C9.92551796,18.5082111 9.8206384,18.2247804 9.8206384,17.8657627 C9.8206384,17.4311624 9.91916162,16.9776732 10.116211,16.5052816 C10.3132604,16.0328899 10.607241,15.6045946 10.9981615,15.2203827 C11.3890821,14.8361709 11.8848764,14.5259717 12.4855592,14.2897758 C13.086242,14.05358 13.7902063,13.9354839 14.5974732,13.9354839 C15.5700073,13.9354839 16.3995092,14.0866469 17.0860039,14.3889776 C17.5309541,14.5905314 17.9218688,14.8676636 18.2587597,15.2203827 C18.5956506,15.5731018 18.8578495,15.9809272 19.0453643,16.443871 C19.232879,16.9068148 19.326635,17.3870724 19.326635,17.8846583 C19.326635,18.6656791 19.1311776,19.3758306 18.7402571,20.015134 C18.3493365,20.6544373 17.9504764,21.1551649 17.5436647,21.5173319 C17.1368531,21.8794988 16.455136,22.4479349 15.4984929,23.2226572 C14.5418499,23.9973795 13.8855581,24.5988825 13.529598,25.0271843 C13.3770436,25.1972452 13.2213133,25.4019452 13.0624025,25.6412903 Z M30.3284636,16.1497088 L25.8171165,16.1497088 L25.2757549,19.2025126 C26.1748629,18.725117 27.0043093,18.4864228 27.7641189,18.4864228 C28.3719666,18.4864228 28.9402324,18.5994885 29.4689333,18.8256232 C29.9976341,19.051758 30.4614276,19.3642589 30.8603277,19.7631355 C31.2592277,20.1620121 31.5726445,20.6346894 31.8005874,21.1811817 C32.0285303,21.727674 32.1425,22.3149874 32.1425,22.9431394 C32.1425,23.8539599 31.9367213,24.6831082 31.5251578,25.4306092 C31.1135942,26.1781101 30.5200019,26.7717049 29.7443629,27.2114114 C28.9687239,27.6511178 28.074378,27.8709677 27.0612985,27.8709677 C25.9279159,27.8709677 25.0082434,27.6636807 24.3022536,27.2491003 C23.5962639,26.8345199 23.0960634,26.3587019 22.8016371,25.8216319 C22.5072109,25.2845619 22.36,24.8150252 22.36,24.4130079 C22.36,24.1680286 22.4628893,23.9356158 22.6686711,23.7157626 C22.8744529,23.4959094 23.1324677,23.3859844 23.4427233,23.3859844 C23.97459,23.3859844 24.3703183,23.6906336 24.6299199,24.2999411 C24.8831898,24.8589964 25.225099,25.2939852 25.6556578,25.6049205 C26.0862166,25.9158558 26.5674221,26.0713211 27.0992888,26.0713211 C27.5868333,26.0713211 28.0142198,25.9456925 28.3814612,25.6944317 C28.7487025,25.4431709 29.0320439,25.0976924 29.2314939,24.657986 C29.430944,24.2182796 29.5306675,23.7189062 29.5306675,23.1598508 C29.5306675,22.5568248 29.4230294,22.0417479 29.20775,21.6146045 C28.9924706,21.1874611 28.7043804,20.8686787 28.3434709,20.6582477 C27.9825613,20.4478168 27.5805014,20.3426029 27.1372791,20.3426029 C26.5927489,20.3426029 26.2033523,20.4085579 25.9690777,20.5404698 C25.734803,20.6723817 25.3976426,20.9032242 24.9575862,21.233004 C24.5175298,21.5627838 24.1550427,21.7276713 23.8701141,21.7276713 C23.5598585,21.7276713 23.2844316,21.6161759 23.0438252,21.393182 C22.8032189,21.170188 22.6829175,20.9173606 22.6829175,20.6346921 C22.6829175,20.6032845 22.7177416,20.389716 22.7873908,19.9939802 L23.5851869,15.4807302 C23.6738313,14.9405194 23.8384543,14.5479303 24.0790607,14.302951 C24.3196671,14.0579717 24.7122295,13.9354839 25.2567597,13.9354839 L30.2714782,13.9354839 C31.2592307,13.9354839 31.7530995,14.3092287 31.7530995,15.0567297 C31.7530995,15.3833688 31.6327981,15.6471887 31.3921917,15.8481973 C31.1515854,16.049206 30.7970129,16.1497088 30.3284636,16.1497088 Z" id="25" fill="#FFFFFF"></path>
                    </g>
                </g>
            </g>
        </g>
    </g>
</svg>