<?xml version="1.0" encoding="UTF-8"?>
<svg width="503px" height="362px" viewBox="0 0 503 362" version="1.1" xmlns="http://www.w3.org/2000/svg" xmlns:xlink="http://www.w3.org/1999/xlink">
    <!-- Generator: Sketch 55.1 (78136) - https://sketchapp.com -->
    <title>Group 16</title>
    <desc>Created with Sketch.</desc>
    <defs>
        <path d="M130.853752,-2.13162821e-14 C125.816562,17.9910637 119.525924,37.1116961 111.577818,57.4745836 C130.332757,80.8908225 159.753257,88.8113259 189.836025,80.8250136 C189.970098,68.2591251 189.581376,56.701104 188.871418,46.0022042 C164.22716,44.8780444 142.555006,28.5853905 130.853752,-2.13162821e-14" id="path-1"></path>
        <filter x="-7.0%" y="-4.2%" width="114.1%" height="113.1%" filterUnits="objectBoundingBox" id="filter-2">
            <feOffset dx="0" dy="2" in="SourceAlpha" result="shadowOffsetOuter1"></feOffset>
            <feGaussianBlur stdDeviation="1.5" in="shadowOffsetOuter1" result="shadowBlurOuter1"></feGaussianBlur>
            <feColorMatrix values="0 0 0 0 0   0 0 0 0 0   0 0 0 0 0  0 0 0 0.2 0" type="matrix" in="shadowBlurOuter1"></feColorMatrix>
        </filter>
        <polygon id="path-3" points="0.0219034897 0.567567248 7.81208497 0.567567248 7.81208497 7.2119403 0.0219034897 7.2119403"></polygon>
        <polygon id="path-5" points="0 0.0571187927 10.0689797 0.0571187927 10.0689797 6.96549593 0 6.96549593"></polygon>
        <path d="M87.3816279,109.023803 C78.3267281,113.892764 68.8318157,119.419815 59.5807549,120.8 C48.4958587,96.7409672 41.0930304,66.2948597 34.1932021,36.0597015 C48.4472683,46.9127701 63.0234705,42.6829672 77.5528819,39.8288418 C87.2358569,62.5347343 100.65039,84.1624418 112.477639,97.4414269 C105.046916,99.6690149 96.4347281,104.016913 87.3816279,109.023803 Z" id="path-7"></path>
        <filter x="-7.0%" y="-4.1%" width="114.1%" height="113.0%" filterUnits="objectBoundingBox" id="filter-8">
            <feOffset dx="0" dy="2" in="SourceAlpha" result="shadowOffsetOuter1"></feOffset>
            <feGaussianBlur stdDeviation="1.5" in="shadowOffsetOuter1" result="shadowBlurOuter1"></feGaussianBlur>
            <feColorMatrix values="0 0 0 0 0   0 0 0 0 0   0 0 0 0 0  0 0 0 0.2 0" type="matrix" in="shadowBlurOuter1"></feColorMatrix>
        </filter>
        <polygon id="path-9" points="0.000116676544 0.0976432331 12.2296126 0.0976432331 12.2296126 11.8237079 0.000116676544 11.8237079"></polygon>
        <polygon id="path-11" points="0.0571786257 0.038530149 11.5430852 0.038530149 11.5430852 10.1533747 0.0571786257 10.1533747"></polygon>
        <path d="M249.530292,61.3014925 C257.315544,48.5985612 262.020708,30.1134567 265.447227,12.6208955 C255.882129,18.4643701 246.377318,17.4799403 237.416,17.3338985 C230.92739,30.860794 221.832898,40.5698687 207.858676,47.0407821 C221.977769,47.7286209 236.126556,58.0137493 249.530292,61.3014925 Z" id="path-13"></path>
        <filter x="-9.6%" y="-7.2%" width="119.1%" height="122.6%" filterUnits="objectBoundingBox" id="filter-14">
            <feOffset dx="0" dy="2" in="SourceAlpha" result="shadowOffsetOuter1"></feOffset>
            <feGaussianBlur stdDeviation="1.5" in="shadowOffsetOuter1" result="shadowBlurOuter1"></feGaussianBlur>
            <feColorMatrix values="0 0 0 0 0   0 0 0 0 0   0 0 0 0 0  0 0 0 0.2 0" type="matrix" in="shadowBlurOuter1"></feColorMatrix>
        </filter>
        <polyline id="path-15" points="2.48350626 0.0919522388 0 9.59999403 25.6116082 11.719403 28.0960143 2.21136119"></polyline>
        <polyline id="path-17" points="2.48350626 0.0919522388 0 9.59999403 25.6116082 11.719403 28.0960143 2.21136119"></polyline>
        <polyline id="path-19" points="2.48350626 0.0919522388 0 9.59999403 25.6116082 11.719403 28.0960143 2.21136119"></polyline>
        <path d="M328.166558,126.208955 C313.243025,100.689504 301.812597,69.1922567 295.141324,32.4537313 C313.876499,39.4529194 333.324333,44.5959343 353.213079,47.8097552 C366.597018,74.595803 383.38498,95.3833194 402.220036,109.615182 C378.202911,117.545612 353.403841,123.10151 328.166558,126.208955 Z" id="path-21"></path>
        <filter x="-5.1%" y="-3.7%" width="110.3%" height="111.7%" filterUnits="objectBoundingBox" id="filter-22">
            <feOffset dx="0" dy="2" in="SourceAlpha" result="shadowOffsetOuter1"></feOffset>
            <feGaussianBlur stdDeviation="1.5" in="shadowOffsetOuter1" result="shadowBlurOuter1"></feGaussianBlur>
            <feColorMatrix values="0 0 0 0 0   0 0 0 0 0   0 0 0 0 0  0 0 0 0.2 0" type="matrix" in="shadowBlurOuter1"></feColorMatrix>
        </filter>
        <path d="M451.721894,56.4331436 C462.669118,39.6049658 473.860193,24.2074581 482.304114,12.9469037 C468.179623,11.1385079 450.979542,17.4552723 435.002318,17.1920363 C424.225161,32.0468449 414.112971,47.402884 404.019678,63.9714317 C420.436914,69.5399566 434.964526,61.1136975 451.721894,56.4331436" id="path-23"></path>
        <filter x="-7.0%" y="-6.6%" width="114.1%" height="120.7%" filterUnits="objectBoundingBox" id="filter-24">
            <feOffset dx="0" dy="2" in="SourceAlpha" result="shadowOffsetOuter1"></feOffset>
            <feGaussianBlur stdDeviation="1.5" in="shadowOffsetOuter1" result="shadowBlurOuter1"></feGaussianBlur>
            <feColorMatrix values="0 0 0 0 0   0 0 0 0 0   0 0 0 0 0  0 0 0 0.2 0" type="matrix" in="shadowBlurOuter1"></feColorMatrix>
        </filter>
    </defs>
    <g id="----↳-PDF/IMG---Features" stroke="none" stroke-width="1" fill="none" fill-rule="evenodd">
        <g id="Features-PDF" transform="translate(-136.000000, -1806.000000)">
            <g id="Group-16" transform="translate(136.000000, 1807.000000)">
                <rect id="Rectangle-7-Copy" fill="#DCE5FA" x="176.261324" y="179.364111" width="154.229965" height="16" rx="8"></rect>
                <path d="M136.445993,247.200348 L370.30662,247.200348 C372.515759,247.200348 374.30662,248.991209 374.30662,251.200348 C374.30662,253.409487 372.515759,255.200348 370.30662,255.200348 L136.445993,255.200348 C134.236854,255.200348 132.445993,253.409487 132.445993,251.200348 C132.445993,248.991209 134.236854,247.200348 136.445993,247.200348 Z" id="Rectangle-4-Copy-4" fill="#DCE5FA"></path>
                <path d="M209.179443,208.529617 L297.573171,208.529617 C299.78231,208.529617 301.573171,210.320478 301.573171,212.529617 C301.573171,214.738756 299.78231,216.529617 297.573171,216.529617 L209.179443,216.529617 C206.970304,216.529617 205.179443,214.738756 205.179443,212.529617 C205.179443,210.320478 206.970304,208.529617 209.179443,208.529617 Z" id="Rectangle-4-Copy-6" fill="#DCE5FA"></path>
                <g id="Fill-1">
                    <use fill="black" fill-opacity="1" filter="url(#filter-2)" xlink:href="#path-1"></use>
                    <use fill="#E5322D" fill-rule="evenodd" xlink:href="#path-1"></use>
                </g>
                <g id="Group-9" transform="translate(173.665474, 51.385075)">
                    <g id="Group-3" transform="translate(0.899821, 15.268759)">
                        <mask id="mask-4" fill="white">
                            <use xlink:href="#path-3"></use>
                        </mask>
                        <g id="Clip-2"></g>
                        <path d="M3.6216,5.25173493 C3.62609911,4.70092299 3.63059821,4.14920955 3.63509732,3.59749612 C3.64319571,2.88441552 3.20228336,2.34171701 2.51212057,2.33540657 C1.71037996,2.32819463 1.39454275,2.88080955 1.42153739,3.75074985 C1.43593453,4.23845731 1.44943184,4.72616478 1.46382898,5.21387224 C2.18278605,5.21657672 2.90264293,5.2300991 3.6216,5.25173493 M1.20558032,6.97448716 C0.458728801,6.9699797 0.201379964,6.56701254 0.168086583,5.94498269 C0.122195707,5.04799761 0.0763048301,4.15191403 0.0286143113,3.25583045 C-0.055968873,1.78279164 0.653090161,0.563072239 2.49232451,0.567567248 C3.99772522,0.575693134 5.0793102,1.60519761 5.0154229,3.32975284 C4.99472701,3.98784239 4.97493095,4.64593194 4.95423506,5.30312 C5.64169839,5.33467224 6.3282619,5.3752394 7.0148254,5.42392 C7.53402218,5.46088119 7.8543585,5.83860657 7.8075678,6.38310806 C7.76167692,6.92851104 7.39544973,7.2476394 6.89514919,7.20887522 C5.00102576,7.06463642 3.10330304,6.98710806 1.20558032,6.97448716" id="Fill-1" fill="#FEFEFE" mask="url(#mask-4)"></path>
                    </g>
                    <path d="M4.5763102,12.9066687 C4.57900966,12.3549552 4.58170912,11.8041433 4.58440859,11.2533313 C4.59070733,10.5402507 4.09310626,10.0047642 3.31746047,10.0110746 C2.41673953,10.0182866 2.06041038,10.5781134 2.09010447,11.4471522 C2.10540143,11.9339582 2.12069839,12.4216657 2.13689517,12.9093731 C2.94943363,12.8976537 3.76287191,12.8967522 4.5763102,12.9066687 M1.84175385,14.6762985 C0.994122361,14.6880179 0.704379964,14.2913612 0.670186762,13.6693313 C0.620696601,12.7741493 0.572106261,11.8771642 0.5226161,10.9819821 C0.43353381,9.50984478 1.23257496,8.27209552 3.29226547,8.24414925 C4.97853023,8.22431642 6.19778784,9.23939701 6.13839964,10.9630507 C6.12040322,11.6211403 6.1024068,12.2783284 6.08351055,12.9355164 C6.86095599,12.9571522 7.63840143,12.987803 8.41584687,13.0283701 C9.00253023,13.0581194 9.36965725,13.4331403 9.32466619,13.9776418 C9.28057496,14.5221433 8.86935671,14.8448776 8.30066977,14.8124239 C6.1491975,14.6925254 3.99502576,14.6474507 1.84175385,14.6762985" id="Fill-4" fill="#FEFEFE"></path>
                    <g id="Group-8" transform="translate(0.000000, 0.844879)">
                        <mask id="mask-6" fill="white">
                            <use xlink:href="#path-5"></use>
                        </mask>
                        <g id="Clip-7"></g>
                        <path d="M2.04340376,4.36042925 C2.06140018,4.91574866 2.0793966,5.47106806 2.0964932,6.02638746 C2.11179016,6.53302627 1.81484919,6.94681134 1.23626422,6.96484119 C0.656779428,6.98377254 0.324745438,6.5898203 0.295051342,6.08678746 C0.199670304,4.39558746 0.101589803,2.70528896 0.00170966011,1.01499045 C-0.0288842576,0.511957612 0.286053131,0.0864531343 0.924026297,0.0585068657 C1.56199946,0.030560597 1.91472934,0.428118806 1.93092612,0.932954627 L1.98671503,2.59801134 C4.32535009,2.52589194 6.66758444,2.52859642 9.00981878,2.60612478 C9.68198515,2.62866209 10.1076005,2.99827403 10.0662088,3.54277552 C10.0239172,4.08727701 9.5560102,4.41451881 8.90184025,4.39017851 C6.61449499,4.3063397 4.32714973,4.29732478 2.04340376,4.36042925" id="Fill-6" fill="#FEFEFE" mask="url(#mask-6)"></path>
                    </g>
                </g>
                <g id="Fill-3">
                    <use fill="black" fill-opacity="1" filter="url(#filter-8)" xlink:href="#path-7"></use>
                    <use fill="#FF6A58" fill-rule="evenodd" xlink:href="#path-7"></use>
                </g>
                <g id="Group-9" transform="translate(64.787120, 86.543284)">
                    <g id="Group-3" transform="translate(0.000000, 8.872292)">
                        <mask id="mask-10" fill="white">
                            <use xlink:href="#path-9"></use>
                        </mask>
                        <g id="Clip-2"></g>
                        <path d="M4.71493064,6.95687267 C3.41570893,6.15483115 2.10119027,5.11237424 0.77341424,3.72407387 C0.519484723,3.45902575 0.298188718,3.16638898 0.15235771,2.82744268 C-0.180096196,2.05298982 0.044259201,1.54851161 0.705087823,1.59679175 C1.25373875,1.62930695 1.70040995,1.99485659 1.97065622,2.26286063 C3.05164131,3.34275929 4.12140863,4.23840516 5.18199778,4.97541629 C5.27377953,3.83344317 5.36862068,2.61757187 5.46550142,1.32484647 C5.50731311,0.809529868 5.61235222,0.524775569 6.13040923,0.270565849 C6.70761448,-0.0161590675 7.43472992,-0.00137943259 7.8151143,0.740558239 C7.91811382,0.940575964 7.95482652,1.26572793 7.92015342,1.48643715 C7.71109498,3.08460833 7.50917512,4.57735145 7.31133445,5.95087219 C8.66052623,6.58541118 9.99442104,7.04653579 11.3130189,7.50963102 C11.7280764,7.65939798 11.956511,7.72147245 12.0860252,7.94119635 C12.4419345,8.55405855 12.0992826,9.20042125 11.4639489,9.53049976 C11.0896833,9.72657625 10.7327543,9.81229813 10.2514099,9.59454484 C9.13983094,9.09499318 8.01601436,8.61711832 6.87996021,8.02396231 C6.76472312,9.16002358 6.65254543,10.1995246 6.54444692,11.1473918 C6.51589259,11.4331314 6.24258693,11.6252667 5.90605383,11.73168 C5.25950237,11.9336684 4.63130726,11.7967104 4.34270464,11.3848513 C4.22134877,11.2114369 4.13058681,11.0074779 4.18565586,10.625178 C4.355962,9.48123431 4.53238693,8.27226018 4.71493064,6.95687267" id="Fill-1" fill="#FEFEFE" mask="url(#mask-10)"></path>
                    </g>
                    <path d="M9.24731757,8.87239046 C8.89242812,8.18957133 9.11678352,7.41019192 9.85001775,6.92837582 C10.583252,6.44458911 11.2920111,6.59337076 11.6397619,7.24564532 C12.8533207,9.53156218 14.0271073,11.4539 15.1611219,13.5506376 C16.4644228,12.5919319 17.7789414,11.5957845 19.1046779,10.6873296 C19.787942,10.2193079 20.4956813,10.1808808 20.7791849,10.8016255 C21.060649,11.4253261 20.6588489,12.1101158 19.9817035,12.5574461 C18.3398299,13.6462125 16.7142731,14.8630691 15.1070726,15.959718 C14.2891952,16.5174029 13.6079706,16.5627271 13.1164284,15.7035377 C11.8743153,13.5220636 10.5842718,11.4509441 9.24731757,8.87239046" id="Fill-4" fill="#FEFEFE"></path>
                    <g id="Group-8" transform="translate(18.356351, 0.004511)">
                        <mask id="mask-12" fill="white">
                            <use xlink:href="#path-11"></use>
                        </mask>
                        <g id="Clip-7"></g>
                        <path d="M7.16142426,3.26777727 C9.66502652,3.06480362 10.7939421,4.38511767 11.287524,5.82662473 C12.0554313,8.22191089 11.1141584,9.42792909 8.1853007,9.82402331 C5.11673076,10.4999453 3.13526469,10.0900567 2.63250464,9.00917277 C2.37959492,8.4859737 2.62638586,7.87508212 3.21786826,7.5548567 C4.54054531,6.89864091 5.00353326,8.64953499 7.46634364,7.95193622 C8.73191203,7.66324069 9.16124668,6.90061153 8.87162426,6.16064447 C8.69723893,5.72710852 8.28932002,5.27977823 7.35824513,5.29652849 C6.33232909,5.31721998 5.30845264,5.44728076 4.28661579,5.66798998 C1.82278562,6.25030759 0.890690924,5.66503405 0.375693309,4.75854978 C-0.699172999,2.90124233 1.11810571,1.07842069 3.26273934,0.458661336 C5.22992825,-0.125626897 8.05476665,-0.192627908 8.65236785,0.854755551 C8.91037655,1.31785078 8.51673481,1.7474455 7.90281686,1.90213901 C6.73922819,2.20561418 6.26706206,0.96313954 3.92356797,1.780946 C2.76303869,2.20265825 2.36021877,2.87463898 2.68757369,3.41951486 C3.01594841,3.96537604 4.0214685,3.72791657 4.88523678,3.57420837 C5.64192634,3.43133857 6.4006555,3.32886643 7.16142426,3.26777727" id="Fill-6" fill="#FEFEFE" mask="url(#mask-12)"></path>
                    </g>
                </g>
                <g id="Fill-5">
                    <use fill="black" fill-opacity="1" filter="url(#filter-14)" xlink:href="#path-13"></use>
                    <use fill="#FF6A58" fill-rule="evenodd" xlink:href="#path-13"></use>
                </g>
                <g id="Group-10" transform="translate(235.753131, 45.976119) rotate(4.000000) translate(-235.753131, -45.976119) translate(221.355993, 39.665672)">
                    <g id="Group-3" transform="translate(0.000000, 0.809630)">
                        <mask id="mask-16" fill="white">
                            <use xlink:href="#path-15"></use>
                        </mask>
                        <g id="Clip-2"></g>
                        <path d="M6.46170537,0.421177313 C6.41581449,0.417571343 6.36992361,0.413965373 6.32403274,0.410359403 C5.46110429,0.339141493 4.58377871,0.294066866 3.70375367,0.255302687 C2.94070537,0.226454925 2.37651753,0.411260896 2.23974472,1.02607881 C1.89511324,2.49731463 1.6080703,3.95863403 1.37231717,5.41184 C1.27333685,5.99871164 1.67015796,6.21326687 2.29643345,6.26465194 L2.3324263,6.26735642 C2.4647,6.27727284 2.59607388,6.28809075 2.72744776,6.29890866 C3.33752648,6.34939224 3.93590751,6.41069373 4.53338873,6.47740418 C4.63146923,6.48822209 4.72954973,6.49904 4.82583059,6.50625194 C7.05018837,6.69105791 8.62037621,5.83914746 9.39242272,3.96314149 C10.3777268,1.59221612 8.74725098,0.609589254 6.46170537,0.421177313 M3.33122773,5.23965493 C3.60657299,3.9739594 3.92331002,2.69924896 4.28323846,1.4137206 C4.86182343,1.44797731 5.44670716,1.48944597 6.02259267,1.53722507 C7.53789141,1.66253254 7.91941556,2.48469373 7.49290036,3.68908776 C7.15636726,4.62303403 6.41221521,5.50920119 4.99589678,5.39200716 C4.96620268,5.39020418 4.93650859,5.38659821 4.90591467,5.38299224 C4.5279898,5.34242507 4.14376619,5.30456239 3.75684311,5.27210866 C3.6155712,5.26038925 3.47339946,5.24957134 3.33122773,5.23965493" id="Fill-1" fill="#FEFEFE" mask="url(#mask-16)"></path>
                    </g>
                    <g id="Group-6" transform="translate(0.000000, 0.809630)">
                        <mask id="mask-18" fill="white">
                            <use xlink:href="#path-17"></use>
                        </mask>
                        <g id="Clip-5"></g>
                        <path d="M15.2837315,1.58013612 C12.9190016,1.38451224 11.0779676,2.46900776 10.4318961,4.05563463 C9.65625027,5.93344358 10.2789265,7.53178985 12.766032,8.22864358 C13.1025651,8.32690627 13.4318996,8.38730627 13.7531358,8.41435104 C15.6616564,8.57211224 17.2660374,7.52187343 18.2846349,6.01367642 C19.5038925,4.20708537 19.0854757,2.37254806 16.2663361,1.73068537 C15.929803,1.65586149 15.6022682,1.6062794 15.2837315,1.58013612 M13.8638138,7.19373015 C13.6910481,7.17840478 13.5110839,7.14685254 13.3239211,7.09546746 C11.7798281,6.68168239 11.7132413,5.59898985 12.2792288,4.40631522 C12.7714309,3.3578794 13.7927279,2.68085851 15.0956689,2.78903761 C15.261236,2.80256 15.4304023,2.82870328 15.603168,2.86836896 C17.1517601,3.23527642 17.3272252,4.29903761 16.5956707,5.48540179 C15.9540982,6.5347391 15.0722735,7.29289433 13.8638138,7.19373015" id="Fill-4" fill="#FEFEFE" mask="url(#mask-18)"></path>
                    </g>
                    <g id="Group-9" transform="translate(0.000000, 0.809630)">
                        <mask id="mask-20" fill="white">
                            <use xlink:href="#path-19"></use>
                        </mask>
                        <g id="Clip-8"></g>
                        <path d="M23.8311322,4.21375642 C21.9091143,4.05509373 20.1445651,5.03952358 19.2168496,6.43142806 C17.7753361,8.57427582 18.3152288,10.1257445 20.1436653,11.032646 C20.5305884,11.2246639 20.9526045,11.3337445 21.3764202,11.3689027 C22.3779211,11.45184 23.3884202,11.1218937 23.9517082,10.5034699 C24.2558478,10.1600012 24.0911805,9.78588179 23.7411501,9.60648478 C23.6682646,9.57042507 23.5926796,9.55149373 23.5143952,9.54518328 C23.2372503,9.52174448 22.9259122,9.66147582 22.58488,9.80391164 C22.2519462,9.94003701 21.8875186,10.0734579 21.5014953,10.0419057 C21.3404274,10.0283833 21.1766599,9.98691463 21.010193,9.90487881 C19.7945347,9.32792358 19.9951948,8.16499821 20.8302288,7.03542806 C21.6256707,5.95544 22.7522467,5.4596191 23.7033576,5.53804896 C23.9283129,5.5569803 24.1442699,5.60746388 24.3431304,5.69040119 C25.834134,6.33857433 24.5752843,7.32480716 25.4643075,7.75301612 C25.5902825,7.81431761 25.7153576,7.84947582 25.8386331,7.85939224 C26.1571698,7.88643701 26.4604095,7.74580418 26.7222574,7.46814448 C27.2882449,6.88127284 27.2693487,5.37397731 25.3041394,4.56443701 C24.8101376,4.36701015 24.3161358,4.25342209 23.8311322,4.21375642" id="Fill-7" fill="#FEFEFE" mask="url(#mask-20)"></path>
                    </g>
                </g>
                <g id="Fill-7">
                    <use fill="black" fill-opacity="1" filter="url(#filter-22)" xlink:href="#path-21"></use>
                    <use fill="#E5322D" fill-rule="evenodd" xlink:href="#path-21"></use>
                </g>
                <g id="Group-10" transform="translate(353.239137, 101.635547) rotate(10.000000) translate(-353.239137, -101.635547) translate(333.892983, 86.310174)" fill="#FFFFFF">
                    <path d="M8.02503539,12.6510691 C7.5253839,12.7136679 7.02231014,12.8474406 6.52436979,13.0472421 C4.99974831,13.6612245 3.44518196,14.2914997 1.86152631,14.9843737 C0.768966468,15.4551507 0.229958873,16.3349634 0.924679774,17.8973599 C2.70340484,21.8162139 4.80382333,25.3174571 7.22593524,29.0613775 C7.7709318,29.8957419 8.66243326,30.3305031 9.56077925,30.2481815 C9.7284705,30.2327462 9.89616175,30.1984455 10.0612863,30.1452794 C11.1221901,29.8099901 11.3189707,28.8958767 10.6490613,27.8608533 C9.76697104,26.4913982 8.92509251,25.1519562 8.12257009,23.8262345 C9.34089837,23.3606026 10.5438264,22.9275564 11.7313543,22.5090879 C14.8584539,21.446624 15.1938364,18.7334393 13.5896471,15.9722336 C12.0256695,13.290777 10.0475972,12.4058192 8.02503539,12.6510691 M6.62019337,21.2665454 C5.83392673,19.8885151 5.09043848,18.5104848 4.39058417,17.0998688 C5.25641859,16.7268488 6.11369734,16.3701216 6.96156484,16.0236846 C7.31919211,15.8787642 7.66141915,15.7827223 7.98653484,15.7398464 C9.04316084,15.5992136 9.92353992,16.0108219 10.5660712,17.1496048 C11.3001482,18.4324507 10.8766422,19.6175396 9.60184649,20.0960343 C8.61965488,20.4699118 7.62548531,20.8566521 6.62019337,21.2665454" id="Fill-1"></path>
                    <path d="M19.6955765,7.49010132 C19.0470563,7.61444133 18.4190696,7.84597099 17.8141833,8.14610205 C16.7233346,8.68891049 15.6136634,9.21456859 14.4843142,9.72479138 C13.507256,10.1681278 13.0923057,10.9184554 13.9435955,12.434546 C15.9995244,16.0789945 18.3463464,19.8675059 20.9840613,23.8884045 C21.8464735,25.202121 22.7174413,25.672898 23.5849869,25.626592 C23.8194124,25.6145868 24.0546935,25.5648508 24.2899746,25.4842442 C25.5399589,25.052913 26.7719762,24.5992863 27.9843155,24.1165041 C32.0816288,22.4657833 31.8386476,18.3788559 28.3299648,13.2217469 C24.9393504,8.12552163 22.2049563,7.00474653 19.6955765,7.49010132 M23.5139748,21.9872886 C21.1962421,18.5014809 19.0958236,15.1494458 17.2135749,11.9491912 C17.9947081,11.6001817 18.7672857,11.244312 19.5313075,10.8824397 C19.8059447,10.7520971 20.0797264,10.6654878 20.353508,10.6208969 C22.0714878,10.3379162 23.7860453,11.7553923 25.5964263,14.5208856 C27.2202937,17.0188335 28.400977,20.0484421 26.0361881,21.011434 C25.2037208,21.3467232 24.3635534,21.6717223 23.5139748,21.9872886" id="Fill-4"></path>
                    <path d="M32.2516301,0.377081136 C32.0745276,0.385656309 31.9008474,0.437964863 31.7280227,0.521144041 C30.073355,1.31091747 28.3562308,2.29620483 26.5783613,3.32265303 C25.7262159,3.82258561 25.4481565,4.65694994 26.454304,6.271655 C29.0287069,10.3740177 31.9248033,14.7104827 35.1425931,18.7562492 C35.862981,19.6600725 36.7878496,20.0939762 37.5689828,19.9284754 C37.716996,19.8967472 37.8598758,19.8444387 37.9941999,19.7706922 C38.8403563,19.3076329 38.7650663,18.3643638 37.887254,17.3404882 C36.545724,15.7729466 35.2572391,14.1179382 34.0209439,12.4312017 C35.3299624,11.7923513 36.609036,11.1792265 37.8590202,10.6389906 C38.5135295,10.3525798 38.8027113,9.90324073 37.9300324,8.77046039 C37.2900678,7.93095096 36.749349,7.65311535 36.254831,7.67884087 C36.078584,7.68741605 35.9091817,7.73372198 35.7432015,7.80575343 C34.5248733,8.3296965 33.2774557,8.93424619 32.0009488,9.57052402 C31.123992,8.29282325 30.2752689,7.00997739 29.4573463,5.73570669 C30.9178002,4.95965354 32.3371869,4.23076384 33.7163619,3.63307429 C34.3956825,3.33723083 34.654064,2.83129562 33.850686,1.58360797 C33.2637666,0.67035205 32.7470038,0.351355617 32.2516301,0.377081136" id="Fill-7"></path>
                </g>
                <g id="Fill-9">
                    <use fill="black" fill-opacity="1" filter="url(#filter-24)" xlink:href="#path-23"></use>
                    <use fill="#FF6A58" fill-rule="evenodd" xlink:href="#path-23"></use>
                </g>
                <g id="Group-10" transform="translate(435.543705, 49.098803) rotate(-4.000000) translate(-435.543705, -49.098803) translate(419.346925, 40.534624)" fill="#FFFFFF">
                    <path d="M5.09392974,6.39512367 C4.94002638,6.38997228 4.76979041,6.40800213 4.5869909,6.45050107 C3.76910445,6.64496588 3.3362905,7.16589979 3.43365793,7.76796802 C3.70377404,9.51428785 3.89222714,11.2870085 3.99399181,13.0919254 C4.04298962,14.0900064 3.71885029,14.6682495 3.14406833,14.7719211 C3.05800808,14.7873753 2.97885778,14.7938145 2.90536107,14.7912388 C2.44616369,14.7764286 2.22316085,14.4274222 2.13898513,13.9296695 C2.06109118,13.4087356 1.84060106,12.9425352 1.32486774,12.9257932 C1.24446108,12.9232175 1.15714448,12.9309446 1.06166158,12.952194 C0.463637071,13.0796908 0.27329944,13.6135032 0.467406133,14.3411365 C0.695434384,15.0925949 1.26770363,16.3591919 2.70999803,16.4061983 C2.88463123,16.4119936 3.07245615,16.3997591 3.27410097,16.3662751 C4.82130092,16.1222281 5.85276756,14.7674136 5.97903114,12.7442068 C6.06697592,10.8620192 6.06571956,9.00687633 5.97903114,7.18779318 C5.96018583,6.70098721 5.6222266,6.41250959 5.09392974,6.39512367" id="Fill-1"></path>
                    <path d="M16.1345803,4.14139232 C15.6276414,4.12465032 15.0346423,4.19998934 14.3920173,4.35066738 C12.9164295,4.69516631 11.4697378,5.03065032 10.0513142,5.35776333 C9.06444811,5.58571215 8.43124569,6.03130704 8.38538877,7.00169936 C8.25598431,9.46663753 7.98084279,11.9850213 7.55493878,14.5671535 C7.45505864,15.192403 7.65733163,15.5974307 8.10585001,15.6122409 C8.14793787,15.6135288 8.19191026,15.611597 8.23839536,15.6058017 C8.77485851,15.5401215 9.26358022,15.0108166 9.44889244,14.2954179 C9.68634334,13.3514264 9.90620529,12.4112985 10.1034529,11.484693 C10.9181984,11.3398102 11.7385976,11.199435 12.5772139,11.0551962 C14.7280919,10.6984627 16.7363738,8.90835608 17.5687083,6.83492324 C18.3143544,4.96690192 17.567452,4.1877548 16.1345803,4.14139232 M10.4740773,9.69072281 C10.6556205,8.72934542 10.8214592,7.77762687 10.9684526,6.83041578 C11.6971379,6.67265458 12.4358741,6.51038593 13.1783793,6.34811727 C13.5540291,6.26440725 13.8819375,6.22384009 14.1520536,6.23285501 C14.8493301,6.25539232 15.164675,6.60568657 14.9165451,7.38676546 C14.6175328,8.3243177 13.6708701,9.07384435 12.705362,9.2580064 C11.9490369,9.4048209 11.207788,9.54777186 10.4740773,9.69072281" id="Fill-4"></path>
                    <path d="M30.0425447,0.494468657 C29.4665064,0.475794883 28.727142,0.569163753 27.8024655,0.8170742 C23.2462977,2.0334452 19.6864187,4.77398252 18.0500176,8.66649851 C16.7691647,11.7174068 16.4016811,14.4019228 19.0092438,14.4862768 C19.1700572,14.4920721 19.3428058,14.4869207 19.5268617,14.4721104 C20.8466616,14.3433258 22.1997548,13.5236115 23.669689,12.2660294 C23.0101032,13.4218716 22.7657423,13.9923876 23.2607458,14.0091296 C23.2959237,14.0097736 23.3348707,14.0084857 23.3782149,14.0039783 C23.8305023,13.9550401 24.5183561,13.4031979 24.9593364,12.7888951 C26.2753672,10.9376158 27.5499383,9.11402516 28.7830498,7.31876716 C29.291245,6.57825544 29.3678826,6.17773518 28.908057,6.16292495 C28.8100614,6.15970533 28.6875669,6.17387164 28.5399453,6.2060678 C27.3596007,6.46234925 26.2056396,6.70446439 25.0724083,6.93692068 C24.37576,7.08631087 23.7595183,7.571829 23.3386397,8.29431087 C22.9221584,9.01357313 23.130085,9.24280981 23.5120166,9.25568827 C23.6087558,9.25890789 23.7161741,9.24796119 23.8273614,9.22799957 C24.3883235,9.12883539 24.9549392,9.02451983 25.5259521,8.92020426 C24.2840461,10.642055 22.4114505,11.9453557 21.195928,12.1069804 C21.043281,12.126942 20.9031975,12.1346691 20.7750494,12.1301616 C19.343434,12.0837991 19.4307506,10.5628525 20.5294322,8.35999104 C22.0590432,5.28783326 24.2130621,3.70442601 26.3714783,3.17061365 C26.8576873,3.04955608 27.2188891,3.00512537 27.4896334,3.0141403 C28.1316302,3.03474584 28.2629192,3.35670746 28.3276215,3.67609339 C28.3904392,3.99419147 28.3879265,4.3135774 28.7654608,4.32581194 C28.8452393,4.32838763 28.9426068,4.31744094 29.0613322,4.28975224 C29.695791,4.14358166 30.6700935,3.66450277 31.3893562,2.56918934 C32.027584,1.62133433 31.7725441,0.550489979 30.0425447,0.494468657" id="Fill-7"></path>
                </g>
                <path d="M235.382313,333.305593 L235.382313,334.833561 C235.382313,335.266487 235.335131,335.623009 235.240766,335.903138 C235.1464,336.183267 235.048891,336.418826 234.948234,336.609823 L223.756538,359.472033 C223.592971,359.803094 223.366497,360.086402 223.07711,360.321965 C222.787722,360.557527 222.397684,360.675307 221.906983,360.675307 L219.510111,360.675307 L230.871664,338.099591 C231.03523,337.781263 231.20194,337.488405 231.371798,337.22101 C231.541656,336.953614 231.73353,336.698955 231.947425,336.457026 L217.830413,336.457026 C217.616517,336.457026 217.424644,336.371079 217.254786,336.199181 C217.084928,336.027284 217,335.833107 217,335.616644 L217,333.305593 L235.382313,333.305593 Z M248.159342,333 C249.304311,333 250.373771,333.171895 251.367754,333.515689 C252.361738,333.859483 253.220451,334.359251 253.94392,335.015007 C254.667389,335.670763 255.236719,336.469754 255.651928,337.412005 C256.067136,338.354257 256.274737,339.423823 256.274737,340.620737 C256.274737,341.639387 256.123755,342.581624 255.821785,343.447476 C255.519815,344.313329 255.110904,345.144152 254.595039,345.939973 C254.079174,346.735793 253.48468,347.506135 252.811539,348.251023 C252.138399,348.995911 251.424377,349.756704 250.669453,350.533424 L243.554327,357.905866 C244.05761,357.765802 244.567176,357.654389 245.083041,357.571623 C245.598906,357.488858 246.09589,357.447476 246.574009,357.447476 L255.633055,357.447476 C255.997935,357.447476 256.287318,357.555706 256.501213,357.772169 C256.715108,357.988632 256.822054,358.268757 256.822054,358.612551 L256.822054,360.675307 L238.779455,360.675307 L238.779455,359.510232 C238.779455,359.268303 238.826637,359.02001 238.921003,358.765348 C239.015368,358.510685 239.169497,358.275126 239.383392,358.058663 L248.046104,349.253752 C248.763282,348.515231 249.41754,347.805369 250.008897,347.124147 C250.600255,346.442925 251.106675,345.75853 251.528175,345.070941 C251.949674,344.383353 252.273658,343.686225 252.500135,342.979536 C252.726612,342.272848 252.839849,341.518421 252.839849,340.716235 C252.839849,339.914048 252.71403,339.210553 252.462389,338.60573 C252.210747,338.000906 251.864746,337.501139 251.424373,337.106412 C250.984001,336.711685 250.468144,336.415644 249.876786,336.218281 C249.285429,336.020918 248.650044,335.922237 247.970612,335.922237 C247.29118,335.922237 246.662086,336.024101 246.083311,336.227831 C245.504536,336.431561 244.991824,336.714869 244.54516,337.077763 C244.098497,337.440657 243.72104,337.870393 243.41278,338.366985 C243.104519,338.863577 242.887482,339.411093 242.761661,340.00955 C242.661004,340.37881 242.510022,340.646202 242.308709,340.811733 C242.107395,340.977263 241.843176,341.060027 241.516042,341.060027 C241.453132,341.060027 241.387077,341.056844 241.317875,341.050477 C241.248674,341.044111 241.170037,341.034561 241.081963,341.021828 L239.326773,340.716235 C239.502922,339.468388 239.842633,338.363807 240.345915,337.402456 C240.849198,336.441105 241.487729,335.635747 242.261526,334.986357 C243.035323,334.336968 243.922346,333.843567 244.922621,333.506139 C245.922895,333.168711 247.001792,333 248.159342,333 Z M272.052575,339.914052 C272.052575,340.983634 271.88901,341.941787 271.561877,342.78854 C271.234743,343.635293 270.797522,344.348337 270.250202,344.927694 C269.702882,345.507052 269.064352,345.949521 268.334592,346.255116 C267.604831,346.560711 266.843628,346.713506 266.050957,346.713506 C265.195376,346.713506 264.405863,346.560711 263.682394,346.255116 C262.958925,345.949521 262.326686,345.507052 261.785657,344.927694 C261.244627,344.348337 260.823134,343.635293 260.521165,342.78854 C260.219195,341.941787 260.068212,340.983634 260.068212,339.914052 C260.068212,338.819003 260.219195,337.844934 260.521165,336.991814 C260.823134,336.138695 261.244627,335.419284 261.785657,334.833561 C262.326686,334.247837 262.958925,333.802184 263.682394,333.496589 C264.405863,333.190994 265.195376,333.038199 266.050957,333.038199 C266.893956,333.038199 267.683469,333.190994 268.41952,333.496589 C269.155571,333.802184 269.790956,334.247837 270.325694,334.833561 C270.860432,335.419284 271.281925,336.138695 271.590186,336.991814 C271.898447,337.844934 272.052575,338.819003 272.052575,339.914052 Z M269.429226,339.914052 C269.429226,339.073666 269.341153,338.360621 269.165004,337.774898 C268.988855,337.189174 268.746654,336.708506 268.438393,336.332879 C268.130132,335.957251 267.771549,335.686677 267.362631,335.521146 C266.953714,335.355615 266.516494,335.272851 266.050957,335.272851 C265.585421,335.272851 265.1482,335.355615 264.739283,335.521146 C264.330366,335.686677 263.974927,335.957251 263.672958,336.332879 C263.370988,336.708506 263.135078,337.189174 262.96522,337.774898 C262.795362,338.360621 262.710434,339.073666 262.710434,339.914052 C262.710434,340.741705 262.795362,341.445199 262.96522,342.024557 C263.135078,342.603914 263.370988,343.075032 263.672958,343.437926 C263.974927,343.80082 264.330366,344.061845 264.739283,344.22101 C265.1482,344.380174 265.585421,344.459754 266.050957,344.459754 C266.516494,344.459754 266.953714,344.380174 267.362631,344.22101 C267.771549,344.061845 268.130132,343.80082 268.438393,343.437926 C268.746654,343.075032 268.988855,342.603914 269.165004,342.024557 C269.341153,341.445199 269.429226,340.741705 269.429226,339.914052 Z M281.507954,333.993179 C281.671521,333.776716 281.844521,333.608004 282.026961,333.48704 C282.209401,333.366075 282.451603,333.305593 282.753572,333.305593 L285.169318,333.305593 L265.409275,360.121419 C265.283454,360.286949 265.132471,360.420645 264.956322,360.52251 C264.780173,360.624375 264.572572,360.675307 264.333513,360.675307 L261.842276,360.675307 L281.507954,333.993179 Z M287,354.219645 C287,355.289228 286.836436,356.244198 286.509302,357.084584 C286.182168,357.92497 285.744947,358.634831 285.197627,359.214188 C284.650307,359.793545 284.014922,360.236015 283.291453,360.54161 C282.567984,360.847205 281.809926,361 281.017255,361 C280.161675,361 279.372161,360.847205 278.648692,360.54161 C277.925223,360.236015 277.292984,359.793545 276.751955,359.214188 C276.210926,358.634831 275.789433,357.92497 275.487463,357.084584 C275.185493,356.244198 275.034511,355.289228 275.034511,354.219645 C275.034511,353.124597 275.185493,352.147344 275.487463,351.287858 C275.789433,350.428372 276.210926,349.705778 276.751955,349.120055 C277.292984,348.534331 277.925223,348.088678 278.648692,347.783083 C279.372161,347.477488 280.161675,347.324693 281.017255,347.324693 C281.860254,347.324693 282.646622,347.477488 283.376382,347.783083 C284.106142,348.088678 284.741527,348.534331 285.282556,349.120055 C285.823585,349.705778 286.245078,350.428372 286.547048,351.287858 C286.849017,352.147344 287,353.124597 287,354.219645 Z M284.395524,354.219645 C284.395524,353.379259 284.307451,352.663032 284.131302,352.070941 C283.955153,351.478851 283.712952,350.998183 283.404691,350.628922 C283.096431,350.259662 282.737847,349.99227 282.32893,349.826739 C281.920012,349.661209 281.482792,349.578445 281.017255,349.578445 C280.551719,349.578445 280.114498,349.661209 279.705581,349.826739 C279.296664,349.99227 278.941226,350.259662 278.639256,350.628922 C278.337286,350.998183 278.101376,351.478851 277.931518,352.070941 C277.76166,352.663032 277.676732,353.379259 277.676732,354.219645 C277.676732,355.047298 277.76166,355.74761 277.931518,356.3206 C278.101376,356.893591 278.337286,357.361526 278.639256,357.72442 C278.941226,358.087314 279.296664,358.348339 279.705581,358.507503 C280.114498,358.666667 280.551719,358.746248 281.017255,358.746248 C281.482792,358.746248 281.920012,358.666667 282.32893,358.507503 C282.737847,358.348339 283.096431,358.087314 283.404691,357.72442 C283.712952,357.361526 283.955153,356.893591 284.131302,356.3206 C284.307451,355.74761 284.395524,355.047298 284.395524,354.219645 Z" id="72%" fill="#2A2E34"></path>
                <g id="Group-13" transform="translate(0.000000, 294.000000)">
                    <path d="M0,15.4155224 L0,1.71283582 C0,0.766862718 0.744711544,0 1.66335979,0 L501.33664,0 C502.255288,0 503,0.766862718 503,1.71283582 L503,15.4155224 C503,16.3614955 502.255288,17.1283582 501.33664,17.1283582 L1.66335979,17.1283582 C0.744711544,17.1283582 0,16.3614955 0,15.4155224 Z" id="Rectangle" fill="#F5F5F5"></path>
                    <path d="M0,15.4155224 L0,1.71283582 C0,0.766862718 0.74464965,0 1.66322154,0 L345.531306,0 L345.531306,17.1283582 L1.66322154,17.1283582 C0.74464965,17.1283582 0,16.3614955 0,15.4155224 Z" id="Rectangle-Copy" fill="#E5322D"></path>
                </g>
            </g>
        </g>
    </g>
</svg>