<?xml version="1.0" encoding="UTF-8"?>
<svg width="201px" height="42px" viewBox="0 0 201 42" version="1.1" xmlns="http://www.w3.org/2000/svg" xmlns:xlink="http://www.w3.org/1999/xlink">
    <title>Group 2</title>
    <defs>
        <linearGradient x1="62.0256476%" y1="4.94615078%" x2="24.3256581%" y2="71.8787395%" id="linearGradient-1">
            <stop stop-color="#00A0FF" offset="0%"></stop>
            <stop stop-color="#00A1FF" offset="1%"></stop>
            <stop stop-color="#00BEFF" offset="26%"></stop>
            <stop stop-color="#00D2FF" offset="51%"></stop>
            <stop stop-color="#00DFFF" offset="76%"></stop>
            <stop stop-color="#00E3FF" offset="100%"></stop>
        </linearGradient>
        <linearGradient x1="107.684729%" y1="50%" x2="-130.640394%" y2="50%" id="linearGradient-2">
            <stop stop-color="#FFE000" offset="0%"></stop>
            <stop stop-color="#FFBD00" offset="41%"></stop>
            <stop stop-color="#FFA500" offset="78%"></stop>
            <stop stop-color="#FF9C00" offset="100%"></stop>
        </linearGradient>
        <linearGradient x1="86.2709832%" y1="28.2101564%" x2="-50.1798561%" y2="148.094654%" id="linearGradient-3">
            <stop stop-color="#FF3A44" offset="0%"></stop>
            <stop stop-color="#C31162" offset="100%"></stop>
        </linearGradient>
        <linearGradient x1="-18.82494%" y1="-20.5530204%" x2="42.0863309%" y2="32.9961541%" id="linearGradient-4">
            <stop stop-color="#32A071" offset="0%"></stop>
            <stop stop-color="#2DA771" offset="7%"></stop>
            <stop stop-color="#15CF74" offset="48%"></stop>
            <stop stop-color="#06E775" offset="80%"></stop>
            <stop stop-color="#00F076" offset="100%"></stop>
        </linearGradient>
    </defs>
    <g id="PDF---Product-New-Version---FINALES" stroke="none" stroke-width="1" fill="none" fill-rule="evenodd">
        <g id="content-mobile-1366" transform="translate(-474.000000, -234.000000)">
            <g id="Group-2" transform="translate(474.000000, 234.000000)">
                <g id="Default_Button_Red" transform="translate(1.000000, 0.000000)">
                    <rect id="Rectangle" fill="#E5322D" x="0" y="0" width="200" height="42" rx="8"></rect>
                    <text id="Default-Button-Red" font-family="RawlineMedium-Regular, Rawline" font-size="18" font-weight="400" line-spacing="18" fill="#FFFFFF">
                        <tspan x="62" y="30">Dowload</tspan>
                    </text>
                </g>
                <rect id="Rectangle" fill="#000000" x="0" y="0" width="201" height="42" rx="7.26"></rect>
                <path d="M85.9973084,11.2339513 C86.0300805,11.9450924 85.7624507,12.6383862 85.2564105,13.1532442 C84.6888052,13.7225134 83.8982777,14.0296921 83.0831097,13.9977331 C82.2637545,14.0154718 81.473418,13.7028088 80.8999304,13.1340513 C80.3082787,12.5762955 79.9825378,11.8043298 80.0009742,11.0036361 C79.9797632,10.1996335 80.3057243,9.42366625 80.8999304,8.86362448 C81.7997863,8.00945737 83.139535,7.7635382 84.2981824,8.23985427 C84.654408,8.3821031 84.9721431,8.60210496 85.2267745,8.88281741 L84.7032066,9.39143004 C84.3054473,8.92595408 83.7050568,8.66989711 83.0831097,8.70048458 C82.4596188,8.69751339 81.8617931,8.94143997 81.4274853,9.3760173 C80.9931776,9.81059462 80.7598793,10.3983078 80.7813867,11.0036361 C80.7681512,11.9183612 81.322713,12.7509983 82.1870512,13.1141466 C83.0513895,13.4772948 84.0557532,13.2996341 84.7328426,12.6638245 C85.0374535,12.343373 85.2158687,11.928767 85.2366532,11.4930558 L83.0831097,11.4930558 L83.0831097,10.8021104 L85.9577939,10.8021104 C85.9798874,10.9451551 85.9930828,11.0893637 85.9973084,11.2339513 Z" id="Path" stroke="#FFFFFF" stroke-width="0.605" fill="#FFFFFF"></path>
                <polygon id="Path" stroke="#FFFFFF" stroke-width="0.605" fill="#FFFFFF" points="91 8.74 87.8965517 8.74 87.8965517 10.64 90.7241379 10.64 90.7241379 11.36 87.8965517 11.36 87.8965517 13.26 91 13.26 91 14 87 14 87 8 91 8"></polygon>
                <polygon id="Path" stroke="#FFFFFF" stroke-width="0.605" fill="#FFFFFF" points="93.9376499 14 93.0143885 14 93.0143885 8.74 91 8.74 91 8 96 8 96 8.74 93.9376499 8.74"></polygon>
                <polygon id="Path" stroke="#FFFFFF" stroke-width="0.605" fill="#FFFFFF" points="99.115 14 99.115 8 99.885 8 99.885 14"></polygon>
                <polygon id="Path" stroke="#FFFFFF" stroke-width="0.605" fill="#FFFFFF" points="102.973301 14 102.038835 14 102.038835 8.74 100 8.74 100 8 105 8 105 8.74 102.973301 8.74"></polygon>
                <path d="M113.141791,13.1264648 C112.573914,13.6857554 111.803428,14 111,14 C110.196572,14 109.426086,13.6857554 108.858209,13.1264648 C108.285853,12.5647346 107.975671,11.7946906 108.001493,10.9996209 C107.975671,10.2045511 108.285853,9.43450714 108.858209,8.87277695 C109.41458,8.29697153 110.192862,7.98017257 111,8.00096255 C111.805564,7.98842237 112.580612,8.30390501 113.141791,8.87277695 C113.707339,9.43889287 114.016317,10.2059468 113.998507,10.9996209 C114.024329,11.7946906 113.714147,12.5647346 113.141791,13.1264648 L113.141791,13.1264648 Z M109.413128,12.6474459 C109.832043,13.0652058 110.403588,13.3003702 111,13.3003702 C111.596412,13.3003702 112.167957,13.0652058 112.586872,12.6474459 C113.022618,12.2080967 113.258076,11.6132619 113.239145,10.9996209 C113.247798,10.3803682 112.997945,9.78473029 112.547931,9.35179585 C112.129016,8.93403594 111.55747,8.69887157 110.961058,8.69887157 C110.364646,8.69887157 109.793101,8.93403594 109.374186,9.35179585 C108.952632,9.79740626 108.731512,10.3914866 108.760855,10.9996209 C108.741924,11.6132619 108.977382,12.2080967 109.413128,12.6474459 L109.413128,12.6474459 Z" id="Shape" stroke="#FFFFFF" stroke-width="0.605" fill="#FFFFFF" fill-rule="nonzero"></path>
                <polygon id="Path" stroke="#FFFFFF" stroke-width="0.605" fill="#FFFFFF" points="115 14 115 8 116.006494 8 119.166667 12.67 119.166667 11.51 119.166667 8 120 8 120 14 119.134199 14 115.833333 9.11 115.833333 10.26 115.833333 14"></polygon>
                <path d="M106.568002,22.7035305 C104.103026,22.7090581 102.109464,24.6201922 102.11524,26.9721708 C102.121041,29.3241495 104.123989,31.2263287 106.588964,31.2208218 C109.05394,31.2152909 111.047509,29.3041637 111.04173,26.952185 C111.058989,25.8169183 110.592504,24.7236005 109.749121,23.9226481 C108.905738,23.1216957 107.757716,22.681733 106.568002,22.7035305 Z M106.568002,29.5313683 C105.460809,29.6052501 104.418803,29.0258418 103.940364,28.070268 C103.461925,27.1146943 103.644296,25.9771766 104.400251,25.2017774 C105.156206,24.4263781 106.332097,24.1706983 107.365507,24.5570266 C108.398917,24.9433549 109.079805,25.8931698 109.082509,26.952185 C109.116605,27.6146472 108.868811,28.262163 108.395358,28.7477935 C107.921905,29.233424 107.262941,29.5159895 106.568002,29.5313683 Z M96.8033309,22.7035305 C94.3383555,22.7090581 92.3447931,24.6201922 92.3505691,26.9721708 C92.3563703,29.3241495 94.3593179,31.2263287 96.8242933,31.2208218 C99.2892687,31.2152909 101.282838,29.3041637 101.277059,26.952185 C101.294318,25.8169183 100.827833,24.7236005 99.9844503,23.9226481 C99.1410672,23.1216957 97.9930454,22.681733 96.8033309,22.7035305 Z M96.8033309,29.5313683 C95.6961381,29.6052501 94.654132,29.0258418 94.1756928,28.070268 C93.6972537,27.1146943 93.8796248,25.9771766 94.6355801,25.2017774 C95.3915354,24.4263781 96.5674259,24.1706983 97.6008361,24.5570266 C98.6342463,24.9433549 99.3151342,25.8931698 99.3178385,26.952185 C99.3519339,27.6146472 99.1041396,28.262163 98.6306868,28.7477935 C98.1572339,29.233424 97.4982697,29.5159895 96.8033309,29.5313683 Z M85.1946877,24.0131158 L85.1946877,25.8125459 L89.7208013,25.8125459 C89.6498329,26.6600813 89.2805997,27.4598188 88.6730898,28.0818273 C87.7549298,28.9744072 86.483344,29.453913 85.1737335,29.4014094 C82.3962851,29.4014094 80.1447184,27.2530566 80.1447184,24.602929 C80.1447184,21.9528014 82.3962851,19.8044486 85.1737335,19.8044486 C86.4524104,19.7863041 87.6870837,20.2496322 88.6102271,21.0940402 L89.9408207,19.8244422 C88.6793558,18.6339734 86.9687132,17.9782008 85.1946877,18.0050184 C82.6581371,17.9108273 80.2708561,19.1483281 78.973224,21.2300542 C77.675592,23.3117802 77.675592,25.9040746 78.973224,27.9858007 C80.2708561,30.0675267 82.6581371,31.3050276 85.1946877,31.2108364 C87.0074368,31.2799191 88.7648144,30.6070096 90.0246376,29.3614221 C91.1248588,28.2081974 91.7111002,26.6914508 91.6590675,25.1327612 C91.6628176,24.7576056 91.6312596,24.3828862 91.5647735,24.0131158 L85.1946877,24.0131158 Z M132.666495,25.4126726 C132.1071,23.8423799 130.589855,22.7645642 128.852825,22.7035228 C127.694437,22.7013695 126.586777,23.1567945 125.792857,23.9616656 C124.998938,24.7665367 124.589578,25.8490575 124.661979,26.952185 C124.643582,28.8264109 125.920409,30.4885638 127.7991,31.0360366 C129.67779,31.5835094 131.710021,30.8856559 132.79222,29.3214348 L131.273039,28.3217513 C130.81222,29.0546132 129.978984,29.4996837 129.083322,29.4913809 C128.153829,29.527999 127.296358,29.015654 126.925036,28.2017893 L132.886514,25.8525333 L132.666495,25.4126726 Z M126.589768,26.832223 C126.546874,26.2059248 126.770688,25.5896133 127.210507,25.1229095 C127.650326,24.6562056 128.268925,24.3786094 128.926165,24.3530081 C129.613956,24.3110039 130.261499,24.6651907 130.571072,25.2527232 L126.589768,26.832223 Z M121.749341,30.9509187 L123.708562,30.9509187 L123.708562,18.4548759 L121.749341,18.4548759 L121.749341,30.9509187 Z M118.543344,23.6532297 L118.470004,23.6532297 C117.868145,23.0281539 117.012447,22.6818821 116.123131,22.7035305 C113.744979,22.8135673 111.876061,24.6853825 111.876061,26.9571835 C111.876061,29.2289844 113.744979,31.1007996 116.123131,31.2108364 C117.022484,31.2280497 117.882989,30.8615053 118.470004,30.211153 L118.543344,30.211153 L118.543344,30.8209599 C118.543344,32.4504439 117.631835,33.3201684 116.165039,33.3201684 C115.162918,33.2991627 114.273238,32.7029609 113.912459,31.8106465 L112.215167,32.4804344 C112.85757,34.0199364 114.428546,35.0218945 116.165039,34.9996366 C118.459527,34.9996366 120.355885,33.710045 120.355885,30.571039 L120.355885,22.9534514 L118.543344,22.9534514 L118.543344,23.6532297 Z M116.290764,29.5313683 C114.865968,29.4466073 113.755875,28.3193061 113.755875,26.9571835 C113.755875,25.5950608 114.865968,24.4677596 116.290764,24.3829986 C116.968655,24.4109116 117.605653,24.7001192 118.055948,25.1844208 C118.506243,25.6687224 118.73128,26.3066519 118.679547,26.952185 C118.737312,27.6000293 118.514697,28.2422077 118.063461,28.7294099 C117.612225,29.2166122 116.971683,29.50639 116.290764,29.5313683 L116.290764,29.5313683 Z M141.844447,18.4548759 L137.1507,18.4548759 L137.1507,30.9509187 L139.10992,30.9509187 L139.10992,26.2124193 L141.844447,26.2124193 C143.366441,26.3167501 144.822016,25.6011219 145.616345,24.3579795 C146.410674,23.1148372 146.410674,21.552458 145.616345,20.3093157 C144.822016,19.0661734 143.366441,18.3505452 141.844447,18.4548759 L141.844447,18.4548759 Z M141.844447,24.4529765 L139.10992,24.4529765 L139.10992,20.1943251 L141.886356,20.1943251 C143.124635,20.1943251 144.128458,21.1521324 144.128458,22.3336476 C144.128458,23.5151628 143.124635,24.4729702 141.886356,24.4729702 L141.844447,24.4529765 Z M153.935038,22.6635432 C152.476716,22.5777451 151.104857,23.3285368 150.446159,24.5729385 L152.174883,25.2627201 C152.531736,24.6488374 153.233492,24.2925079 153.966469,24.3530081 C154.468876,24.2970205 154.973795,24.435952 155.367813,24.7385962 C155.761831,25.0412405 156.011915,25.4822254 156.061892,25.9624985 L156.061892,26.0824605 C155.431865,25.7664773 154.730616,25.6017749 154.018855,25.6026124 C152.153928,25.6026124 150.247093,26.6022958 150.247093,28.4217197 C150.284359,29.2030535 150.652043,29.9365848 151.266123,30.4546901 C151.880203,30.9727953 152.688201,31.231198 153.505476,31.1708491 C154.506472,31.2236803 155.459574,30.7575117 155.999029,29.9512353 L156.061892,29.9512353 L156.061892,30.9509187 L157.947773,30.9509187 L157.947773,26.1424415 C157.947773,23.9531348 156.208572,22.6835368 153.976946,22.6835368 L153.935038,22.6635432 Z M153.694064,29.5113746 C153.05496,29.5113746 152.164405,29.2014727 152.164405,28.4517102 C152.164405,27.4520268 153.27498,27.1121344 154.259828,27.1121344 C154.882213,27.0974809 155.497313,27.2424805 156.040938,27.5320014 C155.9049,28.6547502 154.920264,29.5088406 153.735973,29.5313683 L153.694064,29.5113746 Z M164.82076,22.9534514 L162.578658,28.3717355 L162.515795,28.3717355 L160.189875,22.9534514 L158.094452,22.9534514 L161.583332,30.5310517 L159.59268,34.7397189 L161.688103,34.7397189 L167,22.9534514 L164.82076,22.9534514 Z M147.219207,30.9509187 L149.167951,30.9509187 L149.167951,18.4548759 L147.219207,18.4548759 L147.219207,30.9509187 Z" id="Shape" fill="#FFFFFF" fill-rule="nonzero"></path>
                <path d="M47.4828238,8.07259673 C47.1370147,8.4812702 46.9664083,9.00021595 47.0054917,9.52453131 L47.0054917,32.4650977 C46.9685787,32.9944101 47.1518303,33.5162401 47.5153692,33.9170323 L47.5913083,34 L61,21.1503789 L61,20.8392501 L47.558763,8 L47.4828238,8.07259673 Z" id="Path" fill="url(#linearGradient-1)"></path>
                <path d="M64.4433498,26 L60,21.6577103 L60,21.3422897 L64.4433498,17 L64.5408867,17.0630841 L69.862069,19.9859813 C71.3793103,20.8165888 71.3793103,22.1834112 69.862069,23.0245327 L64.5625616,25.9474299 L64.4433498,26 Z" id="Path" fill="url(#linearGradient-2)"></path>
                <path d="M65,25.6014192 L60.6990408,21 L48,34.5540623 C48.5942179,35.1186019 49.4811199,35.1506131 50.1097122,34.6302087 L65,25.6014192" id="Path" fill="url(#linearGradient-3)"></path>
                <path d="M65,16.4086402 L50.1097122,7.3782405 C49.4849159,6.85025752 48.5950996,6.87779076 48,7.4435205 L60.6990408,21 L65,16.4086402 Z" id="Path" fill="url(#linearGradient-4)"></path>
                <path d="M64.8776978,26 L50.1097122,34.500277 C49.5065121,34.960507 48.6745431,34.960507 48.0713429,34.500277 L48.0713429,34.500277 L48,34.5724006 L48,34.5724006 L48.0713429,34.6548275 L48.0713429,34.6548275 C48.6745431,35.1150575 49.5065121,35.1150575 50.1097122,34.6548275 L65,26.1030337 L64.8776978,26 Z" id="Path" fill="#000000" opacity="0.2"></path>
                <path d="M47.6728685,33.8193548 C47.3516626,33.3075612 47.1942504,32.6566781 47.2328685,32 L47.2328685,32.1935484 C47.1988425,32.8521023 47.367762,33.5013469 47.7028685,34 L47.7728685,33.9096774 L47.6728685,33.8193548 Z" id="Path" fill="#000000" opacity="0.12"></path>
                <path d="M69.950495,22.536643 L65,25.8817967 L65.0891089,26 L69.950495,22.7021277 C70.535045,22.4070428 70.9376835,21.7540282 71,21 L71,21 C70.8744635,21.6821516 70.4849125,22.2525165 69.950495,22.536643 L69.950495,22.536643 Z" id="Path" fill="#000000" opacity="0.12"></path>
                <path d="M50.6123157,7.52289604 L70.896791,19.5847952 C71.4585551,19.8464677 71.8680397,20.3717577 72,21 L72,21 C71.9344947,20.3055614 71.5112529,19.7041533 70.896791,19.4323886 L50.6123157,7.37048937 C49.1656548,6.49959412 48,7.2180827 48,8.95987319 L48,9.12316605 C48,7.38137556 49.1656548,6.66288698 50.6123157,7.52289604 Z" id="Path" fill="#FFFFFF" opacity="0.25"></path>
            </g>
        </g>
    </g>
</svg>