<svg xmlns="http://www.w3.org/2000/svg" width="20" height="20" fill-rule="evenodd"><path d="M9.143 20c-.72 0-.982-.075-1.245-.216a1.47 1.47 0 0 1-.611-.611c-.14-.263-.216-.525-.216-1.245v-4.2l3.818-.001c.92 0 1.295-.09 1.634-.257l.078-.04a2.02 2.02 0 0 0 .84-.84c.194-.362.297-.72.297-1.712h0l.001-3.818h4.2c.72 0 .982.075 1.245.216a1.47 1.47 0 0 1 .611.611c.14.263.216.525.216 1.245v8.786c0 .72-.075.982-.216 1.245a1.47 1.47 0 0 1-.611.611c-.263.14-.525.216-1.245.216H9.143z" fill="#fff3b6"/><path d="M17.576 14.855a.35.35 0 0 0-.353-.347.35.35 0 0 0-.353.347v1.537l-2.058-2.02c-.138-.135-.36-.135-.5 0a.34.34 0 0 0 0 .49l2.058 2.02h-1.566a.35.35 0 0 0-.353.347.35.35 0 0 0 .353.347h2.418c.046 0 .092-.01.135-.027a.35.35 0 0 0 .191-.187c.018-.042.027-.087.027-.132v-2.374z" fill="#dab400" fill-rule="nonzero"/><path d="M2.072 0h8.786c.72 0 .982.075 1.245.216a1.47 1.47 0 0 1 .611.611c.14.263.216.525.216 1.245v8.786c0 .72-.075.982-.216 1.245a1.47 1.47 0 0 1-.611.611c-.263.14-.525.216-1.245.216H2.072c-.72 0-.982-.075-1.245-.216a1.47 1.47 0 0 1-.611-.611C.075 11.84 0 11.578 0 10.857V2.072C0 1.35.075 1.1.216.827A1.47 1.47 0 0 1 .827.216C1.1.075 1.35 0 2.072 0z" fill="#ffd400"/><path d="M1.29 7.538V5.326c0-.186.122-.312.312-.312s.312.125.312.312V6.1h1.132v-.775c0-.186.122-.312.312-.312s.312.125.312.312v2.212c0 .186-.122.312-.312.312s-.312-.125-.312-.312v-.912H1.912v.912c0 .186-.122.312-.312.312s-.312-.125-.312-.312zm3.625 0v-1.95h-.59c-.18 0-.323-.09-.323-.262s.144-.262.323-.262h1.8c.18 0 .323.09.323.262s-.144.262-.323.262h-.59v1.95c0 .186-.122.312-.312.312s-.312-.125-.312-.312zm1.858.008V5.322c0-.25.17-.308.338-.308h.182c.194 0 .285.076.35.285l.543 1.756h.008L8.73 5.3c.065-.21.156-.285.35-.285h.175c.167 0 .338.057.338.308v2.223c0 .156-.076.304-.277.304s-.277-.148-.277-.304V5.85H9.03l-.58 1.816c-.042.13-.137.182-.266.182s-.224-.053-.266-.182l-.58-1.816h-.008v1.695c0 .156-.076.304-.277.304s-.277-.148-.277-.304zm3.386-.1v-2.11c0-.186.122-.312.312-.312s.312.125.312.312v1.95h1.04c.18 0 .323.09.323.262S12 7.8 11.822 7.8h-1.3c-.22 0-.365-.087-.365-.365z" fill="#fff" fill-rule="nonzero"/></svg>