<?xml version="1.0" encoding="UTF-8"?>
<svg width="476px" height="474px" viewBox="0 0 476 474" version="1.1" xmlns="http://www.w3.org/2000/svg" xmlns:xlink="http://www.w3.org/1999/xlink">
    <!-- Generator: Sketch 55.1 (78136) - https://sketchapp.com -->
    <title>Group 47</title>
    <desc>Created with Sketch.</desc>
    <defs>
        <path d="M75.1126984,12.8873016 C92.2957672,30.0703705 92.2957672,57.9296295 75.1126984,75.1126984 C57.9296295,92.2957672 30.0703705,92.2957672 12.8873016,75.1126984 C-4.29576721,57.9296295 -4.29576721,30.0703705 12.8873016,12.8873016 C30.0703705,-4.29576721 57.9296295,-4.29576721 75.1126984,12.8873016 Z" id="path-1"></path>
        <filter x="-18.2%" y="-15.9%" width="136.4%" height="136.4%" filterUnits="objectBoundingBox" id="filter-2">
            <feOffset dx="0" dy="2" in="SourceAlpha" result="shadowOffsetOuter1"></feOffset>
            <feGaussianBlur stdDeviation="5" in="shadowOffsetOuter1" result="shadowBlurOuter1"></feGaussianBlur>
            <feColorMatrix values="0 0 0 0 0   0 0 0 0 0   0 0 0 0 0  0 0 0 0.2 0" type="matrix" in="shadowBlurOuter1"></feColorMatrix>
        </filter>
        <circle id="path-3" cx="44" cy="44" r="44"></circle>
        <filter x="-18.2%" y="-15.9%" width="136.4%" height="136.4%" filterUnits="objectBoundingBox" id="filter-4">
            <feOffset dx="0" dy="2" in="SourceAlpha" result="shadowOffsetOuter1"></feOffset>
            <feGaussianBlur stdDeviation="5" in="shadowOffsetOuter1" result="shadowBlurOuter1"></feGaussianBlur>
            <feColorMatrix values="0 0 0 0 0   0 0 0 0 0   0 0 0 0 0  0 0 0 0.2 0" type="matrix" in="shadowBlurOuter1"></feColorMatrix>
        </filter>
        <polygon id="path-5" points="14.7971464 42.3794839 0.322892308 42.3794839 0.322892308 0.198822539 14.7971464 0.198822539 14.7971464 42.3794839"></polygon>
        <circle id="path-7" cx="44" cy="44" r="44"></circle>
        <filter x="-18.2%" y="-15.9%" width="136.4%" height="136.4%" filterUnits="objectBoundingBox" id="filter-8">
            <feOffset dx="0" dy="2" in="SourceAlpha" result="shadowOffsetOuter1"></feOffset>
            <feGaussianBlur stdDeviation="5" in="shadowOffsetOuter1" result="shadowBlurOuter1"></feGaussianBlur>
            <feColorMatrix values="0 0 0 0 0   0 0 0 0 0   0 0 0 0 0  0 0 0 0.2 0" type="matrix" in="shadowBlurOuter1"></feColorMatrix>
        </filter>
        <circle id="path-9" cx="44" cy="44" r="44"></circle>
        <filter x="-18.2%" y="-15.9%" width="136.4%" height="136.4%" filterUnits="objectBoundingBox" id="filter-10">
            <feOffset dx="0" dy="2" in="SourceAlpha" result="shadowOffsetOuter1"></feOffset>
            <feGaussianBlur stdDeviation="5" in="shadowOffsetOuter1" result="shadowBlurOuter1"></feGaussianBlur>
            <feColorMatrix values="0 0 0 0 0   0 0 0 0 0   0 0 0 0 0  0 0 0 0.2 0" type="matrix" in="shadowBlurOuter1"></feColorMatrix>
        </filter>
        <circle id="path-11" cx="44" cy="44" r="44"></circle>
        <filter x="-18.2%" y="-15.9%" width="136.4%" height="136.4%" filterUnits="objectBoundingBox" id="filter-12">
            <feOffset dx="0" dy="2" in="SourceAlpha" result="shadowOffsetOuter1"></feOffset>
            <feGaussianBlur stdDeviation="5" in="shadowOffsetOuter1" result="shadowBlurOuter1"></feGaussianBlur>
            <feColorMatrix values="0 0 0 0 0   0 0 0 0 0   0 0 0 0 0  0 0 0 0.2 0" type="matrix" in="shadowBlurOuter1"></feColorMatrix>
        </filter>
        <circle id="path-13" cx="44" cy="44" r="44"></circle>
        <filter x="-18.2%" y="-15.9%" width="136.4%" height="136.4%" filterUnits="objectBoundingBox" id="filter-14">
            <feOffset dx="0" dy="2" in="SourceAlpha" result="shadowOffsetOuter1"></feOffset>
            <feGaussianBlur stdDeviation="5" in="shadowOffsetOuter1" result="shadowBlurOuter1"></feGaussianBlur>
            <feColorMatrix values="0 0 0 0 0   0 0 0 0 0   0 0 0 0 0  0 0 0 0.2 0" type="matrix" in="shadowBlurOuter1"></feColorMatrix>
        </filter>
        <path d="M12.8873016,12.8873016 C30.0703705,-4.29576721 57.9296295,-4.29576721 75.1126984,12.8873016 C92.2957672,30.0703705 92.2957672,57.9296295 75.1126984,75.1126984 C57.9296295,92.2957672 30.0703705,92.2957672 12.8873016,75.1126984 C-4.29576721,57.9296295 -4.29576721,30.0703705 12.8873016,12.8873016 Z" id="path-15"></path>
        <filter x="-18.2%" y="-15.9%" width="136.4%" height="136.4%" filterUnits="objectBoundingBox" id="filter-16">
            <feOffset dx="0" dy="2" in="SourceAlpha" result="shadowOffsetOuter1"></feOffset>
            <feGaussianBlur stdDeviation="5" in="shadowOffsetOuter1" result="shadowBlurOuter1"></feGaussianBlur>
            <feColorMatrix values="0 0 0 0 0   0 0 0 0 0   0 0 0 0 0  0 0 0 0.2 0" type="matrix" in="shadowBlurOuter1"></feColorMatrix>
        </filter>
        <path d="M12.8873016,12.8873016 C30.0703705,-4.29576721 57.9296295,-4.29576721 75.1126984,12.8873016 C92.2957672,30.0703705 92.2957672,57.9296295 75.1126984,75.1126984 C57.9296295,92.2957672 30.0703705,92.2957672 12.8873016,75.1126984 C-4.29576721,57.9296295 -4.29576721,30.0703705 12.8873016,12.8873016 Z" id="path-17"></path>
        <filter x="-18.2%" y="-15.9%" width="136.4%" height="136.4%" filterUnits="objectBoundingBox" id="filter-18">
            <feOffset dx="0" dy="2" in="SourceAlpha" result="shadowOffsetOuter1"></feOffset>
            <feGaussianBlur stdDeviation="5" in="shadowOffsetOuter1" result="shadowBlurOuter1"></feGaussianBlur>
            <feColorMatrix values="0 0 0 0 0   0 0 0 0 0   0 0 0 0 0  0 0 0 0.2 0" type="matrix" in="shadowBlurOuter1"></feColorMatrix>
        </filter>
    </defs>
    <g id="----↳-PDF/IMG---Features" stroke="none" stroke-width="1" fill="none" fill-rule="evenodd">
        <g id="Features-PDF" transform="translate(-736.000000, -2567.000000)">
            <g id="Group-47" transform="translate(748.000000, 2575.000000)">
                <g id="Group-45" transform="translate(54.000000, 312.000000)" fill-rule="nonzero">
                    <g id="Oval-7-Copy-2">
                        <use fill="black" fill-opacity="1" filter="url(#filter-2)" xlink:href="#path-1"></use>
                        <use fill="#0561FE" xlink:href="#path-1"></use>
                    </g>
                    <path d="M44.0298269,34.1216301 L32.8149134,41.0432602 L44.0298269,47.9648903 L32.8149134,54.8865204 L21.6,47.90721 L32.8149134,40.9855799 L21.6,34.1216301 L32.8149134,27.2 L44.0298269,34.1216301 Z M32.7552597,57.0783699 L43.9701731,50.1567398 L55.1850866,57.0783699 L43.9701731,64 L32.7552597,57.0783699 Z M44.0298269,47.90721 L55.2447403,40.9855799 L44.0298269,34.1216301 L55.1850866,27.2 L66.4,34.1216301 L55.1850866,41.0432602 L66.4,47.9648903 L55.1850866,54.8865204 L44.0298269,47.90721 Z" id="Shape" fill="#FFFFFF"></path>
                </g>
                <g id="ANDROID" transform="translate(366.000000, 183.000000)">
                    <g id="circ_Google_download">
                        <g id="Oval-1">
                            <use fill="black" fill-opacity="1" filter="url(#filter-4)" xlink:href="#path-3"></use>
                            <use fill="#7EBC42" fill-rule="evenodd" xlink:href="#path-3"></use>
                        </g>
                        <g id="evo" transform="translate(26.400000, 20.800000)">
                            <path d="M28.8436923,32.5166968 C28.8436923,33.2720323 28.2375077,33.8844387 27.4898462,33.8844387 L7.58323077,33.8844387 C6.83556923,33.8844387 6.22870769,33.2720323 6.22870769,32.5166968 L6.22870769,14.5797871 C6.22870769,13.8244516 6.83556923,13.2120452 7.58323077,13.2120452 L27.4898462,13.2120452 C28.2375077,13.2120452 28.8436923,13.8244516 28.8436923,14.5797871 L28.8436923,32.5166968" id="Fill-1" fill="#FFFFFF"></path>
                            <polygon id="Fill-2" fill="#FFFFFF" points="6.20772308 22.6340774 28.8653538 22.6340774 28.8653538 13.2120452 6.20772308 13.2120452"></polygon>
                            <path d="M34.8926769,25.8072387 C34.8926769,27.151729 33.8136615,28.2414774 32.4828308,28.2414774 C31.152,28.2414774 30.0733231,27.151729 30.0733231,25.8072387 L30.0733231,14.8676968 C30.0733231,13.5232065 31.152,12.4331161 32.4828308,12.4331161 C33.8136615,12.4331161 34.8926769,13.5232065 34.8926769,14.8676968 L34.8926769,25.8072387" id="Fill-3" fill="#FFFFFF"></path>
                            <path d="M4.99975385,25.8072387 C4.99975385,27.151729 3.92107692,28.2414774 2.58990769,28.2414774 C1.25941538,28.2414774 0.1804,27.151729 0.1804,25.8072387 L0.1804,14.8676968 C0.1804,13.5232065 1.25941538,12.4331161 2.58990769,12.4331161 C3.92107692,12.4331161 4.99975385,13.5232065 4.99975385,14.8676968 L4.99975385,25.8072387" id="Fill-4" fill="#FFFFFF"></path>
                            <path d="M6.30147692,11.8641355 C6.30147692,11.8641355 6.5516,2.17676129 17.5367077,2.21086453 C28.4179077,2.24480645 28.7716,11.8641355 28.7716,11.8641355 L6.30147692,11.8641355" id="Fill-5" fill="#FFFFFF"></path>
                            <path d="M13.9578154,6.91906452 C13.9578154,7.67371613 13.3519692,8.28543871 12.6053231,8.28543871 C11.8583385,8.28543871 11.2528308,7.67371613 11.2528308,6.91906452 C11.2528308,6.1644129 11.8583385,5.55269032 12.6053231,5.55269032 C13.3519692,5.55269032 13.9578154,6.1644129 13.9578154,6.91906452" id="Fill-6" fill="#7EBC42"></path>
                            <path d="M23.8202462,6.91906452 C23.8202462,7.67371613 23.2140615,8.28543871 22.4677538,8.28543871 C21.7207692,8.28543871 21.1152615,7.67371613 21.1152615,6.91906452 C21.1152615,6.1644129 21.7207692,5.55269032 22.4677538,5.55269032 C23.2140615,5.55269032 23.8202462,6.1644129 23.8202462,6.91906452" id="Fill-7" fill="#7EBC42"></path>
                            <path d="M12.2333538,3.5133871 C12.2729538,3.57014839 12.3954769,3.55202581 12.5075077,3.47167097 C12.6178462,3.39268387 12.6760615,3.28155484 12.6364615,3.22479355 L10.5376615,0.232174194 C10.4973846,0.174729032 10.3741846,0.193535484 10.2638462,0.272864516 C10.1521538,0.352877419 10.0942769,0.463322581 10.1342154,0.520767742 L12.2333538,3.5133871" id="Fill-8" fill="#FFFFFF"></path>
                            <g id="Group-13" transform="translate(10.153846, 0.000000)">
                                <mask id="mask-6" fill="white">
                                    <use xlink:href="#path-5"></use>
                                </mask>
                                <g id="Clip-10"></g>
                                <path d="M12.6852,3.5133871 C12.6456,3.57014839 12.5234154,3.55202581 12.4110462,3.47167097 C12.3007077,3.39268387 12.2424923,3.28155484 12.2820923,3.22479355 L14.3808923,0.232174194 C14.4211692,0.174729032 14.5443692,0.193535484 14.6550462,0.272864516 C14.7667385,0.352877419 14.8246154,0.463322581 14.7843385,0.520767742 L12.6852,3.5133871" id="Fill-9" fill="#FFFFFF" mask="url(#mask-6)"></path>
                                <path d="M14.4424923,39.9657613 C14.4424923,41.3102516 13.3634769,42.4 12.0326462,42.4 C10.7018154,42.4 9.62313846,41.3102516 9.62313846,39.9657613 L9.62313846,29.0258774 C9.62313846,27.6813871 10.7018154,26.5916387 12.0326462,26.5916387 C13.3634769,26.5916387 14.4424923,27.6813871 14.4424923,29.0258774 L14.4424923,39.9657613" id="Fill-11" fill="#FFFFFF" mask="url(#mask-6)"></path>
                                <path d="M5.14190769,39.9657613 C5.14190769,41.3102516 4.06323077,42.4 2.7324,42.4 C1.40190769,42.4 0.322892308,41.3102516 0.322892308,39.9657613 L0.322892308,29.0258774 C0.322892308,27.6813871 1.40190769,26.5916387 2.7324,26.5916387 C4.06323077,26.5916387 5.14190769,27.6813871 5.14190769,29.0258774 L5.14190769,39.9657613" id="Fill-12" fill="#FFFFFF" mask="url(#mask-6)"></path>
                            </g>
                        </g>
                    </g>
                </g>
                <g id="Group-21" transform="translate(135.000000, 131.000000)" fill-rule="nonzero">
                    <g id="Group-2">
                        <path d="M93,186 C41.6375184,186 -2.98427949e-13,144.362482 -2.98427949e-13,93 C-2.98427949e-13,41.6375184 41.6375184,1.56319402e-13 93,1.56319402e-13 C144.362482,1.56319402e-13 186,41.6375184 186,93 C186,144.362482 144.362482,186 93,186 Z M93.0000003,173.023256 C137.195624,173.023256 173.023256,137.195624 173.023256,93.0000003 C173.023256,48.8043766 137.195624,12.9767447 93.0000003,12.9767447 C48.8043766,12.9767447 12.9767447,48.8043766 12.9767447,93.0000003 C12.9767447,137.195624 48.8043766,173.023256 93.0000003,173.023256 Z" id="Oval-17" fill="#F5F5F5"></path>
                        <path d="M51.055047,175.808269 C47.8682741,174.169537 46.6133391,170.257692 48.2520711,167.070919 C49.8908031,163.884146 53.8026477,162.629211 56.9894206,164.267943 C68.1275336,169.995488 80.4864565,173.023256 93.2918284,173.023256 C137.321363,173.023256 173.023256,137.200523 173.023256,93 C173.023256,48.7994779 137.321363,12.9767447 93.2918284,12.9767447 C89.7083993,12.9767447 86.8034561,10.0718015 86.8034561,6.48837235 C86.8034561,2.90494325 89.7083993,1.56319402e-13 93.2918284,1.56319402e-13 C144.498055,1.56319402e-13 186.000001,41.6424171 186.000001,93 C186.000001,144.357583 144.498055,186 93.2918284,186 C78.4097722,186 64.0180464,182.474223 51.055047,175.808269 Z" id="Oval-17" fill="#E5322D"></path>
                    </g>
                </g>
                <g id="Group-42" transform="translate(183.000000, 0.000000)" fill-rule="nonzero">
                    <g id="Oval-7-Copy-2">
                        <use fill="black" fill-opacity="1" filter="url(#filter-8)" xlink:href="#path-7"></use>
                        <use fill="#FFFFFF" xlink:href="#path-7"></use>
                    </g>
                    <path d="M50.8571429,24 L37.1428571,24 C34.2971429,24 32,26.4537662 32,29.4935065 L32,58.7922078 C32,61.8319481 34.2971429,64.2857143 37.1428571,64.2857143 L50.8571429,64.2857143 C53.7028571,64.2857143 56,61.8319481 56,58.7922078 L56,29.4935065 C56,26.4537662 53.7028571,24 50.8571429,24 Z M47.4285714,60.6233766 L40.5714286,60.6233766 L40.5714286,58.7922078 L47.4285714,58.7922078 L47.4285714,60.6233766 Z M53,55.1298701 L35,55.1298701 L35,29.4935065 L53,29.4935065 L53,55.1298701 Z" id="Shape" fill="#E5322D"></path>
                </g>
                <g id="Group-46" transform="translate(183.000000, 366.000000)" fill-rule="nonzero">
                    <g id="Oval-7-Copy-3">
                        <use fill="black" fill-opacity="1" filter="url(#filter-10)" xlink:href="#path-9"></use>
                        <use fill="#FFFFFF" xlink:href="#path-9"></use>
                    </g>
                    <g id="drive" transform="translate(24.000000, 25.600000)">
                        <polygon id="Shape" fill="#1EA362" points="19.2666667 13.1738448 12.5209221 2.27096774 0 23.1616391 6.54822241 34.0645161"></polygon>
                        <polygon id="Shape" fill="#4788F4" points="9.06666667 35.2 34.2576849 35.2 40.8 23.8451613 15.6113552 23.8451613"></polygon>
                        <polygon id="Shape" fill="#FFD04A" points="39.6666667 22.7096774 26.5347309 0 13.6 0 26.729717 22.7096774"></polygon>
                    </g>
                </g>
                <g id="APPLE" transform="translate(312.000000, 54.000000)">
                    <g id="Group-18">
                        <g id="circ_iPhone_download" opacity="0.7">
                            <g id="Oval-1">
                                <use fill="black" fill-opacity="1" filter="url(#filter-12)" xlink:href="#path-11"></use>
                                <use fill="#000000" fill-rule="evenodd" xlink:href="#path-11"></use>
                            </g>
                        </g>
                        <g id="Group-17" transform="translate(28.000000, 20.800000)" fill="#FFFFFF">
                            <path d="M27.3953411,20.89149 C27.3495121,15.7354437 31.5657782,13.2270104 31.758576,13.1102275 C29.3707281,9.58594266 25.669643,9.10281328 24.3690482,9.06601866 C21.2605791,8.73486707 18.2453484,10.9489434 16.6618782,10.9489434 C15.0468017,10.9489434 12.608384,9.09801398 9.98032907,9.1540058 C6.60004679,9.20679808 3.43468662,11.1889083 1.69950666,14.2652586 C-1.87989463,20.5411412 0.790828628,29.763793 4.22010051,34.8366515 C5.93631675,37.3210883 7.94172966,40.0950828 10.5666239,39.9974971 C13.1346271,39.888713 14.0922947,38.3401393 17.1928622,38.3401393 C20.2634038,38.3401393 21.1641803,39.9974971 23.8412248,39.9351062 C26.5972847,39.888713 28.3324647,37.439471 29.9886292,34.9326374 C31.9719178,32.0850537 32.7683938,29.2806637 32.8,29.1366847 C32.7352073,29.114288 27.4474913,27.0729864 27.3953411,20.89149" id="Fill-6"></path>
                            <path d="M22.0110207,6.26932852 C23.2942632,4.59352121 24.1722712,2.313626 23.9285432,0 C22.0712185,0.0858602096 19.7484616,1.34003256 18.4108942,2.98057585 C17.2274921,4.42486723 16.1703587,6.79215586 16.4434515,9.01838844 C18.5298217,9.17937633 20.671985,7.91907111 22.0110207,6.26932852" id="Fill-8"></path>
                        </g>
                    </g>
                </g>
                <g id="Group-44" transform="translate(0.000000, 183.000000)">
                    <g id="Oval-7-Copy-3" fill-rule="nonzero" transform="translate(44.000000, 44.000000) rotate(-270.000000) translate(-44.000000, -44.000000) ">
                        <use fill="black" fill-opacity="1" filter="url(#filter-14)" xlink:href="#path-13"></use>
                        <use fill="#FFFFFF" xlink:href="#path-13"></use>
                    </g>
                    <path d="M59.0095238,40.7619048 L56.4952381,40.7619048 L56.4952381,34.0571429 C56.4952381,32.2133333 54.9866667,30.7047619 53.1428571,30.7047619 L46.4380952,30.7047619 L46.4380952,28.1904762 C46.4380952,25.8773333 44.5607619,24 42.247619,24 C39.9344762,24 38.0571429,25.8773333 38.0571429,28.1904762 L38.0571429,30.7047619 L31.352381,30.7047619 C29.5085714,30.7047619 28.0167619,32.2133333 28.0167619,34.0571429 L28.0167619,40.4266667 L30.5142857,40.4266667 C33.0118095,40.4266667 35.04,42.4548571 35.04,44.952381 C35.04,47.4499048 33.0118095,49.4780952 30.5142857,49.4780952 L28,49.4780952 L28,55.847619 C28,57.6914286 29.5085714,59.2 31.352381,59.2 L37.7219048,59.2 L37.7219048,56.6857143 C37.7219048,54.1881905 39.7500952,52.16 42.247619,52.16 C44.7451429,52.16 46.7733333,54.1881905 46.7733333,56.6857143 L46.7733333,59.2 L53.1428571,59.2 C54.9866667,59.2 56.4952381,57.6914286 56.4952381,55.847619 L56.4952381,49.1428571 L59.0095238,49.1428571 C61.3226667,49.1428571 63.2,47.2655238 63.2,44.952381 C63.2,42.6392381 61.3226667,40.7619048 59.0095238,40.7619048 L59.0095238,40.7619048 Z" id="plugin" stroke="#E5322D" stroke-width="3.08"></path>
                </g>
                <g id="Group-14" transform="translate(312.000000, 312.000000)">
                    <g id="Oval-7-Copy-2" fill-rule="nonzero">
                        <use fill="black" fill-opacity="1" filter="url(#filter-16)" xlink:href="#path-15"></use>
                        <use fill="#FFFFFF" xlink:href="#path-15"></use>
                    </g>
                    <path d="M57.23,40.472 C56.006,34.262 50.552,29.6 44,29.6 C38.798,29.6 34.28,32.552 32.03,36.872 C26.612,37.448 22.4,42.038 22.4,47.6 C22.4,53.558 27.242,58.4 33.2,58.4 L56.6,58.4 C61.568,58.4 65.6,54.368 65.6,49.4 C65.6,44.648 61.91,40.796 57.23,40.472 L57.23,40.472 Z M56.6,54.8 L33.2,54.8 C29.222,54.8 26,51.578 26,47.6 C26,43.622 29.222,40.4 33.2,40.4 L34.478,40.4 C35.666,36.242 39.464,33.2 44,33.2 C49.472,33.2 53.9,37.628 53.9,43.1 L53.9,44 L56.6,44 C59.588,44 62,46.412 62,49.4 C62,52.388 59.588,54.8 56.6,54.8 L56.6,54.8 Z" id="Shape" fill="#E5322D"></path>
                </g>
                <g id="Group-43" transform="translate(54.000000, 54.000000)" fill-rule="nonzero">
                    <g id="Oval-7-Copy-3">
                        <use fill="black" fill-opacity="1" filter="url(#filter-18)" xlink:href="#path-17"></use>
                        <use fill="#21759B" xlink:href="#path-17"></use>
                    </g>
                    <g id="wordpress-round-logo-svgrepo-com" transform="translate(23.200000, 23.200000)" fill="#FFFFFF">
                        <path d="M0,20.7629541 C0,28.9786476 4.77568,36.0824387 11.7028244,39.4473971 L1.79782063,12.3157895 C0.645106526,14.8951646 0,17.7535663 0,20.7629541 Z" id="Path"></path>
                        <path d="M21.1280707,22.5770644 L14.8964783,40.6779688 C16.7563048,41.2226223 18.7262181,41.5242442 20.7614653,41.5242442 C23.1797827,41.5242442 25.4997491,41.1052665 27.6572564,40.3475335 C27.6033078,40.2575023 27.5513735,40.1619537 27.5083722,40.0595739 L21.1280707,22.5770644 Z" id="Path"></path>
                        <path d="M34.7786509,19.7130577 C34.7786509,17.1474324 33.8546055,15.3715065 33.0661322,13.9899486 C32.013696,12.2789187 31.0267688,10.8318518 31.0267688,9.11863242 C31.0267688,7.21379032 32.4738358,5.43637558 34.5131992,5.43637558 C34.6067335,5.43637558 34.6948379,5.44872421 34.7814535,5.45284042 C31.0896505,2.06949053 26.1678013,0.00140126316 20.7614653,0.00140126316 C13.5074762,0.00140126316 7.35374147,3.66333979 3.60518737,9.07501811 C4.09186358,9.09279663 10.2832573,9.11863242 10.2832573,9.11863242 C11.4025162,9.05592589 11.534848,10.69952 10.4176034,10.8319394 C10.4176034,10.8319394 9.29203874,10.9629575 8.04027284,11.0284665 L15.6014013,33.5140109 L20.1444716,19.8904926 L16.9104438,11.0283789 C15.7919731,10.9628699 14.7338442,10.9355453 14.7338442,10.9355453 C13.6152859,10.8700362 13.7461288,9.32610695 14.8634611,9.32610695 L25.8674055,9.32610695 C26.9860514,9.32610695 27.1172446,10.8031259 25.9984236,10.9355453 C25.9984236,10.9355453 24.8729465,11.0146291 23.6232825,11.0802257 L31.1277474,33.3706442 L33.1971503,26.4387705 C34.2511629,23.7408135 34.7786509,21.4917861 34.7786509,19.7130577 Z" id="Path"></path>
                        <path d="M38.9811267,10.8018122 C39.0705448,11.4653103 39.1216909,12.1752253 39.1216909,12.9383006 C39.1216909,15.0438737 38.7272354,17.4109575 37.5409785,20.3724396 L31.2001752,38.7062164 C37.3744909,35.1077726 41.5256455,28.4216455 41.5256455,20.7629541 C41.5256455,17.1529499 40.6028261,13.7593533 38.9811267,10.8018122 Z" id="Path"></path>
                    </g>
                </g>
            </g>
        </g>
    </g>
</svg>