<svg xmlns="http://www.w3.org/2000/svg" width="20" height="20" fill-rule="evenodd"><path d="M12.138 10.638h6.36c.522 0 .7.054.9.156a1.07 1.07 0 0 1 .442.442c.102.2.156.38.156.9v6.36c0 .522-.054.7-.156.9a1.07 1.07 0 0 1-.442.442c-.2.102-.38.156-.9.156h-6.36c-.522 0-.7-.054-.9-.156a1.07 1.07 0 0 1-.442-.442c-.102-.2-.156-.38-.156-.9v-6.36c0-.522.054-.7.156-.9a1.07 1.07 0 0 1 .442-.442c.2-.102.38-.156.9-.156zm0-10.638h6.36c.522 0 .7.054.9.156a1.07 1.07 0 0 1 .442.442c.102.2.156.38.156.9v6.36c0 .522-.054.7-.156.9a1.07 1.07 0 0 1-.442.442c-.2.102-.38.156-.9.156h-6.36c-.522 0-.7-.054-.9-.156a1.07 1.07 0 0 1-.442-.442c-.102-.2-.156-.38-.156-.9V1.5c0-.522.054-.7.156-.9s.252-.34.442-.442.38-.156.9-.156zM1.5 10.638h6.36c.522 0 .7.054.9.156a1.07 1.07 0 0 1 .442.442c.102.2.156.38.156.9v6.36c0 .522-.054.7-.156.9a1.07 1.07 0 0 1-.442.442c-.2.102-.38.156-.9.156H1.5c-.522 0-.7-.054-.9-.156a1.07 1.07 0 0 1-.442-.442C.056 19.206 0 19.02 0 18.5v-6.36c0-.522.054-.7.156-.9a1.07 1.07 0 0 1 .442-.442c.2-.102.38-.156.9-.156zM1.5 0h6.36c.522 0 .7.054.9.156a1.07 1.07 0 0 1 .442.442c.102.2.156.38.156.9v6.36c0 .522-.054.7-.156.9a1.07 1.07 0 0 1-.442.442c-.2.102-.38.156-.9.156H1.5c-.522 0-.7-.054-.9-.156a1.07 1.07 0 0 1-.442-.442C.056 8.568 0 8.383 0 7.862V1.5C0 .98.054.8.156.6A1.07 1.07 0 0 1 .6.156C.792.054.98 0 1.5 0z" fill="#AB6993"/><path d="M4.4 6.07v-2.1h-.714c-.183 0-.282-.066-.282-.293 0-.205.1-.26.398-.315l.205-.044c.614-.133.443-.763.913-.763.177 0 .32.077.32.376v3.14c0 .288-.1.487-.42.487s-.42-.2-.42-.487zm10.343-.28h1.66c.2 0 .365.1.365.35s-.155.35-.4.35h-2.074c-.32 0-.454-.216-.454-.4 0-.393.35-.83 1.04-1.267.77-.487 1.034-.586 1.034-1.034 0-.36-.277-.56-.58-.56-.354 0-.592.144-.714.586-.055.205-.127.3-.35.3s-.404-.094-.404-.37c0-.675.664-1.2 1.477-1.2.885 0 1.4.58 1.4 1.1 0 .736-.337 1.023-.924 1.355-.625.354-1.007.58-1.08.8zM3.2 16.452c0-.227.166-.387.393-.387.492 0 .227.68 1 .68.415 0 .636-.254.636-.597 0-.266-.116-.46-.498-.498-.155-.017-.46-.044-.46-.3 0-.288.166-.35.48-.365.277-.017.42-.177.42-.43 0-.332-.26-.487-.553-.487-.67 0-.514.63-.95.63-.188 0-.37-.083-.37-.332 0-.675.802-.963 1.34-.963.957 0 1.3.537 1.3 1.073a.82.82 0 0 1-.47.774c.415.116.592.448.592.863 0 .874-.675 1.294-1.494 1.294-1.04 0-1.366-.647-1.366-.957zm12.236-.63V14.4h-.01l-1.068 1.433h1.08zm0 1.2v-.57h-1.4c-.288 0-.42-.205-.42-.382a.48.48 0 0 1 .105-.326l1.704-2.185c.083-.1.205-.155.36-.155.3 0 .415.16.415.398v2.02h.277c.188 0 .3.133.3.315s-.122.315-.3.315H16.2v.57c0 .232-.1.387-.387.387s-.387-.155-.387-.387z" fill="#fff"/></svg>