<svg xmlns="http://www.w3.org/2000/svg" width="20" height="20" fill-rule="evenodd"><path d="M2.074 0h8.794c.72 0 .983.075 1.246.216a1.47 1.47 0 0 1 .611.612c.14.264.216.525.216 1.246v8.794c0 .72-.075.982-.216 1.246a1.47 1.47 0 0 1-.611.611c-.264.14-.525.216-1.246.216H2.074c-.72 0-.983-.075-1.246-.216a1.47 1.47 0 0 1-.611-.611C.075 11.85 0 11.588 0 10.868V2.074c0-.72.075-.982.216-1.246A1.47 1.47 0 0 1 .828.216C1.09.075 1.353 0 2.074 0z" fill="#C0CFE1"/><path d="M17.926 20H9.133c-.72 0-.983-.075-1.246-.216a1.47 1.47 0 0 1-.611-.612c-.14-.264-.216-.525-.216-1.246V9.132c0-.72.075-.982.216-1.246a1.47 1.47 0 0 1 .611-.611c.264-.14.525-.216 1.246-.216h8.794c.72 0 .983.075 1.246.216a1.47 1.47 0 0 1 .611.611c.14.264.216.525.216 1.246v8.794c0 .72-.075.982-.216 1.246a1.47 1.47 0 0 1-.611.612c-.264.14-.525.216-1.246.216z" fill="#4A7AAB"/><path d="M9.44 16.132l1.912-5.56c.048-.14.128-.363.44-.363.184 0 .416.168.416.45 0 .097-.032.195-.064.292l-1.912 5.56c-.048.14-.128.363-.44.363-.184 0-.416-.168-.416-.45 0-.097.032-.195.064-.292zm3.204-.486l1.696-4.96c.112-.327.32-.442.64-.442h.312c.296 0 .56.08.704.53l1.584 4.872c.048.14.128.398.128.557 0 .354-.28.637-.616.637-.288 0-.496-.115-.592-.398l-.336-1.06H14.05l-.344 1.06c-.088.283-.272.398-.584.398-.36 0-.608-.248-.608-.637 0-.16.08-.416.128-.557zm3.233-1.273l-.744-2.555h-.016l-.776 2.555h1.536z" fill="#fff"/><path d="M5.55 4.843l.01-2.003a.56.56 0 0 1 .556-.556c.306-.002.552.245.55.55l-.017 3.32a.56.56 0 0 1-.556.556l-3.32.017c-.306.002-.552-.245-.55-.55a.56.56 0 0 1 .556-.556l2.123-.01L1.81 2.52a.5.5 0 0 1 .004-.704.5.5 0 0 1 .704-.004L5.55 4.843z" fill="#204160" fill-rule="nonzero"/></svg>