<svg xmlns="http://www.w3.org/2000/svg" width="20" height="20" fill-rule="evenodd"><path d="M2.074 0h8.794c.72 0 .983.075 1.246.216a1.47 1.47 0 0 1 .611.612c.14.264.216.525.216 1.246v8.794c0 .72-.075.982-.216 1.246a1.47 1.47 0 0 1-.611.611c-.264.14-.525.216-1.246.216H2.074c-.72 0-.983-.075-1.246-.216a1.47 1.47 0 0 1-.611-.611C.075 11.85 0 11.588 0 10.868V2.074c0-.72.075-.982.216-1.246A1.47 1.47 0 0 1 .828.216C1.09.075 1.353 0 2.074 0z" fill="#C2E5C3"/><path d="M17.926 20H9.133c-.72 0-.983-.075-1.246-.216a1.47 1.47 0 0 1-.611-.612c-.14-.264-.216-.525-.216-1.246V9.132c0-.72.075-.982.216-1.246a1.47 1.47 0 0 1 .611-.611c.264-.14.525-.216 1.246-.216h8.794c.72 0 .983.075 1.246.216a1.47 1.47 0 0 1 .611.611c.14.264.216.525.216 1.246v8.794c0 .72-.075.982-.216 1.246a1.47 1.47 0 0 1-.611.612c-.264.14-.525.216-1.246.216z" fill="#5EA162"/><path d="M5.55 4.843l.01-2.003a.56.56 0 0 1 .556-.556c.306-.002.552.245.55.55l-.017 3.32a.56.56 0 0 1-.556.556l-3.32.017c-.306.002-.552-.245-.55-.55a.56.56 0 0 1 .556-.556l2.123-.01L1.81 2.52a.5.5 0 0 1 .004-.704.5.5 0 0 1 .704-.004L5.55 4.843z" fill="#2E7237" fill-rule="nonzero"/><path d="M14.81 17.083l-.93-2.17c-.035-.08-.072-.23-.11-.447h-.015c-.017.102-.06.258-.124.465l-.933 2.152h-1.45l1.72-3.333-1.573-3.334h1.48l.77 2c.06.158.114.346.162.563h.014a7.72 7.72 0 0 1 .169-.581l.858-1.98h1.355l-1.618 3.305 1.663 3.36h-1.44z" fill="#fff"/></svg>