<svg xmlns="http://www.w3.org/2000/svg" width="20" height="20" fill-rule="evenodd"><path d="M10 0h6.795c1.105 0 1.52.116 1.925.334s.728.538.946.945S20 2.1 20 3.205v13.6c0 1.105-.116 1.52-.334 1.925s-.538.728-.945.946-.82.334-1.926.334h-13.6c-1.105 0-1.52-.116-1.925-.334s-.728-.538-.946-.945S0 17.9 0 16.795V10h8.264c.604 0 .823-.063 1.043-.18s.394-.292.512-.513.18-.44.18-1.043V0z" fill="#D6BF2D"/><path d="M1.47 0h6.228c.512 0 .696.053.882.153a1.04 1.04 0 0 1 .434.433c.1.187.153.372.153.884v6.228c0 .5-.054.696-.153.882s-.247.334-.434.434-.372.153-.883.153H1.47c-.512 0-.697-.054-.884-.153S.253 8.767.153 8.58 0 8.208 0 7.698V1.47C0 .958.053.773.153.586S.4.253.586.153.958 0 1.47 0z" fill="#FBEFA8"/><path d="M5.55 4.843l.01-2.003a.56.56 0 0 1 .557-.556c.306-.002.553.246.55.55l-.016 3.322a.56.56 0 0 1-.557.556l-3.32.018a.55.55 0 0 1-.551-.552.56.56 0 0 1 .556-.556L4.903 5.6 1.8 2.52a.5.5 0 0 1 .004-.706.5.5 0 0 1 .704-.004l3.03 3.032z" fill="#B7A001" fill-rule="nonzero"/><path d="M6.727 12.813v3.202c0 1.135-.594 1.818-1.74 1.818-1.393 0-1.655-.983-1.655-1.518 0-.458.197-.75.552-.75.417 0 .523.346.523.714 0 .352.155.608.565.608.382 0 .594-.3.594-.886v-3.187c0-.368.226-.616.58-.616s.58.248.58.616zM7.8 17.187v-4.17c0-.55.27-.722.68-.722h1.774c.976 0 1.76.51 1.76 1.714 0 .984-.644 1.712-1.767 1.712H8.96v1.467c0 .368-.226.616-.58.616s-.58-.248-.58-.616zm1.16-3.947v1.535h1.082c.468 0 .813-.3.813-.767 0-.54-.36-.768-.933-.768H8.96zm8.54 2.113V17.4c0 .215-.163.403-.396.403-.332 0-.424-.218-.494-.7-.333.444-.792.73-1.514.73-1.796 0-2.48-1.315-2.48-2.833 0-1.826 1.085-2.833 2.65-2.833 1.287 0 1.972.82 1.972 1.3 0 .428-.296.54-.544.54-.572 0-.36-.848-1.49-.848-.8 0-1.428.555-1.428 1.923 0 1.067.495 1.803 1.442 1.803.615 0 1.153-.443 1.208-1.104h-.755c-.248 0-.524-.098-.524-.474 0-.3.164-.473.452-.473h1.428c.34 0 .474.18.474.518z" fill="#fff"/></svg>