<svg xmlns="http://www.w3.org/2000/svg" width="20" height="20" fill-rule="evenodd"><path d="M2.074 0h8.794c.72 0 .983.075 1.246.216a1.47 1.47 0 0 1 .611.612c.14.264.216.525.216 1.246v8.794c0 .72-.075.982-.216 1.246a1.47 1.47 0 0 1-.611.611c-.264.14-.525.216-1.246.216H2.074c-.72 0-.983-.075-1.246-.216a1.47 1.47 0 0 1-.611-.611C.075 11.85 0 11.588 0 10.868V2.074c0-.72.075-.982.216-1.246A1.47 1.47 0 0 1 .828.216C1.09.075 1.353 0 2.074 0z" fill="#F3D9CC"/><path d="M17.926 20H9.133c-.72 0-.983-.075-1.246-.216a1.47 1.47 0 0 1-.611-.612c-.14-.264-.216-.525-.216-1.246V9.132c0-.72.075-.982.216-1.246a1.47 1.47 0 0 1 .611-.611c.264-.14.525-.216 1.246-.216h8.794c.72 0 .983.075 1.246.216a1.47 1.47 0 0 1 .611.611c.14.264.216.525.216 1.246v8.794c0 .72-.075.982-.216 1.246a1.47 1.47 0 0 1-.611.612c-.264.14-.525.216-1.246.216z" fill="#FF7651"/><path d="M5.55 4.843l.01-2.003a.56.56 0 0 1 .557-.556c.306-.002.553.246.55.55l-.016 3.322a.56.56 0 0 1-.557.556l-3.32.018a.55.55 0 0 1-.551-.552.56.56 0 0 1 .556-.556L4.903 5.6 1.8 2.52a.5.5 0 0 1 .004-.706.5.5 0 0 1 .704-.004l3.03 3.032z" fill="#D04526" fill-rule="nonzero"/><path d="M15.424 14.166c-.413.414-.962.62-1.652.62h-.613v2.297h-1.284v-6.667h2.012c1.437 0 2.155.708 2.155 2.125 0 .67-.206 1.21-.618 1.625zm-1.723-2.6h-.5v2.07h.5c.677 0 1.015-.348 1.015-1.046 0-.682-.338-1.023-1.015-1.023z" fill="#fff"/></svg>