<svg xmlns="http://www.w3.org/2000/svg" width="20" height="20" fill-rule="evenodd"><path d="M2.074 0h8.793c.723 0 .983.075 1.247.216a1.47 1.47 0 0 1 .611.612c.14.262.215.525.215 1.246v8.794c0 .72-.074.982-.215 1.246a1.47 1.47 0 0 1-.611.611c-.264.14-.524.215-1.247.215H2.074c-.72 0-.984-.074-1.246-.215s-.47-.348-.612-.61S0 11.588 0 10.868V2.074C0 1.353.075 1.1.216.828A1.47 1.47 0 0 1 .828.216C1.1.075 1.353 0 2.074 0z" fill="#DCE5FA"/><path d="M9.133 7.06h8.794c.72 0 .983.075 1.246.216a1.47 1.47 0 0 1 .611.612c.14.264.216.525.216 1.246v8.794c0 .72-.075.982-.216 1.246a1.47 1.47 0 0 1-.611.611c-.264.14-.525.216-1.246.216H9.133c-.72 0-.983-.075-1.246-.216a1.47 1.47 0 0 1-.611-.611c-.14-.264-.216-.525-.216-1.246V9.132c0-.72.075-.982.216-1.246a1.47 1.47 0 0 1 .611-.612c.264-.14.525-.216 1.246-.216z" fill="#5F83C6"/><g fill-rule="nonzero"><path d="M5.55 4.843l.01-2.003a.56.56 0 0 1 .557-.556c.306-.002.553.246.55.55l-.016 3.322a.56.56 0 0 1-.557.556l-3.32.018a.55.55 0 0 1-.551-.552.56.56 0 0 1 .556-.556L4.903 5.6 1.8 2.52a.5.5 0 0 1 .004-.706.5.5 0 0 1 .704-.004l3.03 3.032z" fill="#295795"/><path d="M15.83 10.417h1.253l-1.244 6.666H14.53l-.752-4.115-.77 4.115h-1.355l-1.237-6.667h1.338l.637 4.264.823-4.264h1.27l.73 4.232z" fill="#fff"/></g></svg>