<svg xmlns="http://www.w3.org/2000/svg" xmlns:xlink="http://www.w3.org/1999/xlink" viewBox="0 0 101 34"><g enable-background="new" fill="#868686"><use xlink:href="#B"/><use xlink:href="#B" x="7.9"/><path d="M50.557 12.635v-9h1.4v7.8h4.8v1.3h-6.2z"/></g><path d="M40.957 27.735v1.3h-6.2v-9h6.1v1.3h-4.6v2.6h4v1.2h-4v2.8h4.7zm7.3 1.3h-1.4v-3.7c0-.6-.1-1.1-.3-1.4s-.5-.4-.9-.4a1.92 1.92 0 0 0-1.2.4c-.4.3-.7.7-.8 1.1v3.9h-1.4v-6.6h1.3v1.3c.3-.4.6-.8 1.1-1.1s1-.4 1.6-.4c.3 0 .6 0 .8.1s.4.2.6.4c.1.2.3.4.4.6s.2.5.2.7c0 .3.1.5.1.8v4.3zm4.8.1c-.7 0-1.3-.2-1.8-.5a3.04 3.04 0 0 1-1.2-1.3c-.3-.5-.4-1.1-.4-1.7 0-.5.1-.9.2-1.3.2-.4.4-.8.7-1.1s.7-.6 1.1-.7c.4-.2.9-.3 1.4-.3.7 0 1.3.1 1.7.4.5.3.9.7 1.1 1.2l-1.4.4c-.2-.3-.4-.5-.6-.7s-.6-.2-.9-.2c-.6 0-1 .2-1.4.6s-.6 1-.6 1.6.2 1.2.6 1.6.9.7 1.4.7a1.93 1.93 0 0 0 1-.3c.3-.2.5-.4.6-.6l1.4.4c-.2.5-.6.9-1.1 1.2-.5.5-1.1.6-1.8.6zm7.9-5.5c-.5 0-1 .1-1.4.4-.4.2-.7.6-.9 1v4.1h-1.4v-6.6h1.3v1.5c.2-.5.5-.8.9-1.1s.8-.4 1.2-.5h.4v1.2zm1.4 7c.3.1.5.1.7.1a.55.55 0 0 0 .5-.3l.6-1.3-2.7-6.6h1.5l2 5.2 1.8-5.2h1.4l-3 8.2c-.1.4-.4.7-.7 1s-.8.4-1.3.4c-.2 0-.5 0-.7-.1v-1.4zm8.2-2.8v3.9h-1.4v-9.3h1.2v1.2a4.74 4.74 0 0 1 1-1c.4-.3.9-.3 1.3-.3a3.08 3.08 0 0 1 1.3.3c.4.2.7.4 1 .7s.5.7.6 1.1c.2.4.2.9.2 1.3 0 .6-.1 1.2-.4 1.7s-.6.9-1.1 1.2-1 .5-1.5.5-1-.1-1.4-.4c-.2-.2-.5-.5-.8-.9zm3.9-2.1c0-.6-.2-1.1-.6-1.6-.4-.4-.9-.7-1.5-.7-.4 0-.7.1-1.1.4s-.6.6-.7.9v1.7c.2.4.4.8.8 1 .4.3.7.4 1.1.4a1.69 1.69 0 0 0 1-.3c.3-.2.5-.5.7-.8a1.69 1.69 0 0 0 .3-1zm6.4 3a3.81 3.81 0 0 1-1.7.4c-.5 0-.9-.1-1.2-.4-.3-.2-.5-.6-.5-1.1v-4.2h-.9v-1.1h.9v-2.2h1.4v2.2h1.4v1.1h-1.4v3.7c0 .2.1.4.2.5s.3.2.5.2c.3 0 .6-.1 1-.3l.3 1.2zm4 .4c-.7 0-1.3-.2-1.8-.5s-.9-.7-1.2-1.2-.4-1.1-.4-1.7c0-.5.1-.9.3-1.3s.4-.8.7-1.1.7-.6 1.1-.7c.4-.2.9-.3 1.4-.3s1 .1 1.4.3.8.4 1.1.7.5.7.7 1.1.2.8.2 1.3v.5h-5.3c0 .6.3 1 .6 1.4.4.4.8.5 1.4.5.4 0 .7-.1 1.1-.3.3-.2.6-.4.7-.7l1.2.3c-.2.5-.6.9-1.2 1.2-.7.4-1.3.5-2 .5zm-2-3.9h4c0-.6-.3-1-.6-1.4-.4-.4-.8-.5-1.4-.5-.5 0-1 .2-1.4.5-.3.4-.5.9-.6 1.4zm6.3.5c0-.6.1-1.2.4-1.7s.6-.9 1.1-1.2 1-.5 1.5-.5.9.1 1.4.4.7.6 1 1v-3.9h1.4v7.7c0 .2 0 .3.1.3.1.1.2.1.3.1v1.1c-.2 0-.4.1-.6.1-.3 0-.5-.1-.7-.2s-.3-.3-.3-.6v-.5a4.74 4.74 0 0 1-1 1c-.4.2-.9.4-1.4.4-.6 0-1.1-.2-1.6-.5s-.9-.7-1.1-1.3c-.4-.5-.5-1.1-.5-1.7zm5.3.9v-1.7c-.1-.4-.4-.7-.8-1s-.8-.4-1.1-.4a1.69 1.69 0 0 0-1 .3c-.3.2-.5.5-.7.8s-.2.7-.2 1.1c0 .6.2 1.1.6 1.6.4.4.9.6 1.5.6.4 0 .7-.1 1.1-.4.3-.2.5-.5.6-.9z" enable-background="new" fill="#868686"/><path d="M22.53 13.035H7.93v-5.1c.1-1.1.7-2.2 1.5-2.9.9-.8 2-1.1 3.2-1.1h.4c2.2.2 4 2 4.2 4.1v7.8c0 .7.6 1.3 1.3 1.3s1.3-.6 1.3-1.3v-8c-.2-3.4-3.1-6.2-6.5-6.5h-.7c-1.8 0-3.4.6-4.8 1.7-1.4 1.2-2.3 2.9-2.4 4.7v5.3h-2.7a.68.68 0 0 0-.7.7v14.3a.68.68 0 0 0 .7.7h19.8a.68.68 0 0 0 .7-.7v-14.4c0-.3-.3-.6-.7-.6z" fill="#838383"/><defs ><path id="B" d="M40.057 5.735c-.2-.2-.5-.4-1-.6s-.9-.3-1.4-.3c-.6 0-1 .1-1.3.3s-.4.5-.4.9v.3c0 .1.1.2.1.3s.1.1.2.2.2.1.3.2c.1 0 .2.1.4.2a.9.9 0 0 0 .5.1c.2 0 .4.1.6.2l1 .3c.3.1.6.2.8.4.3.1.5.3.6.5.2.2.3.4.4.6.1.3.1.5.1.9s-.1.7-.2 1-.3.5-.5.7-.4.4-.7.5l-.9.3c-.3.1-.7.1-1 .1-.7 0-1.3-.1-2-.3-.6-.2-1.2-.5-1.7-.9l.7-1.2c.3.3.7.5 1.3.8s1.2.4 1.8.4 1-.1 1.3-.3.5-.5.5-.9c0-.1 0-.3-.1-.4 0-.1-.1-.2-.2-.3l-.3-.3c-.1-.1-.3-.1-.5-.2s-.4-.1-.6-.2c-.2 0-.4-.1-.7-.2-.5-.1-.9-.2-1.2-.4-.3-.1-.6-.3-.8-.5s-.4-.4-.5-.7-.2-.6-.2-.9c0-.4.1-.8.3-1.2.2-.3.4-.6.7-.9s.6-.4 1-.5.8-.2 1.3-.2c1.1 0 2.1.3 3 1l-.7 1.2z"/></defs></svg>