<svg xmlns="http://www.w3.org/2000/svg" width="65" height="30"  fill="#7c7c80"><path d="M44.21 18.768v-1.265h-2.455c.166-.389.675-.817 1.35-1.459.861-.817 1.095-1.206 1.095-2.238 0-1.08-.46-1.926-2.142-1.926-1.487 0-2.23.691-2.23 2.072v.224h1.526c0-.525 0-1.265.626-1.265.469 0 .577.36.577.905 0 .516-.02.798-1.203 1.849-.577.516-1.565 1.479-1.565 3.104h4.421zm3.586 0c.068-1.528.812-3.931 1.878-5.536v-1.216h-4.411v1.382H48.1c-.998 1.294-1.907 3.785-2.005 5.371h1.702zm5.19.136c2.064 0 2.269-1.537 2.279-3.512 0-2.218-.205-3.512-2.279-3.512-2.064 0-2.269 1.537-2.279 3.512 0 2.218.205 3.512 2.279 3.512zm0-1.031c-.538 0-.63-.489-.635-2.268v-.203c0-1.965.078-2.491.636-2.491s.636.525.636 2.491c0 1.946-.078 2.471-.636 2.471zm5.493 1.031c2.064 0 2.269-1.537 2.279-3.512 0-2.218-.205-3.512-2.279-3.512-2.064 0-2.269 1.537-2.279 3.512 0 2.218.205 3.512 2.279 3.512zm0-1.031c-.538 0-.63-.489-.635-2.268v-.203c0-1.965.078-2.491.636-2.491.538 0 .63.49.635 2.293v.198c0 1.946-.078 2.471-.636 2.471zm6.52.895V11.88h-1.154c-.078.438-.372 1.08-1.614 1.08h-.205v1.031h1.33v4.777H65zM18.619.054a8.24 8.24 0 0 0-1.686-.019c-.208-.019-.455 0-.701.019A14.78 14.78 0 0 0 4.88 6.897c.19-.019.417.057.606-.019A17.67 17.67 0 0 1 7.021 4.98c.493-.479.948-.939 1.478-1.284l1.516.901c-.587.748-1.194 1.495-1.63 2.3.133.057.379.038.569 0 .474-.709.985-1.418 1.592-2.051l2.445.863.076.077-.474 1.112c.208.038.341.019.55 0l.493-1.016c1.099.249 2.255.383 3.43.422.152.134.038.422.095.594h.512c.057-.192-.019-.403.057-.575 1.099-.058 2.255-.173 3.316-.441l.095.019.512.997c.171 0 .398.038.531-.038l-.474-1.112.038-.038c.872-.23 1.687-.575 2.521-.92.587.632 1.137 1.38 1.63 2.108.208 0 .417.019.569-.038a7.47 7.47 0 0 0-.815-1.208c-.246-.364-.512-.69-.834-1.035V4.52l1.327-.786.19-.077c1.156.901 2.179 1.994 2.994 3.201.227 0 .417.077.606-.019-2.543-3.91-6.731-6.421-11.26-6.785l-.019.038-.038-.038zm1.952.863v.038c-1.649 1.227-4.321 1.342-6.064.211-.095-.077-.284-.115-.303-.249 2.009-.479 4.378-.518 6.368 0zm5.211 2.338l-.038.077-1.308.748h-.095c-1.004-1.035-2.179-1.936-3.373-2.645.038-.134.227-.23.36-.326 1.592.422 3.089 1.15 4.453 2.147zM13.843 1.434c-1.175.748-2.331 1.629-3.392 2.703-.512-.192-.985-.479-1.44-.805v-.038c1.194-.901 2.52-1.572 3.923-2.032.057-.057.095-.115.171-.115v.038c.152.038.265-.134.398-.019.114.096.246.173.341.268zm9.949 2.894l-.038.058c-.739.326-1.497.633-2.312.805a32.47 32.47 0 0 0-1.952-3.009c.265-.153.587-.268.872-.422 1.232.633 2.426 1.533 3.43 2.568zm-8.528-2.185l-.057.153c-.72.92-1.289 1.917-1.857 2.894l-.076.019a14.95 14.95 0 0 1-2.255-.786l.038-.115c1.042-1.016 2.141-1.859 3.354-2.511.284.115.569.211.853.345zm1.838.364c.057.997.019 2.147.019 3.201-.531.077-1.004-.019-1.535-.057-.512-.077-1.156-.134-1.668-.307.55-1.054 1.194-2.07 1.971-3.009l1.213.172zm1.781-.153c.739.958 1.459 1.936 1.952 2.99a13.18 13.18 0 0 1-3.127.383c-.038-1.016-.019-2.147 0-3.201l1.175-.172zm-1.535 6.517c-2.085-.901-5.003-.997-6.898.403-1.232.92-1.611 2.568-1.289 4.025.246 1.38 1.535 2.396 2.767 2.875 1.687.613 3.449 1.054 5.155 1.649.171.077.398.249.36.46 0 .173-.171.268-.303.345-1.781.498-3.714.115-5.003-1.265-.152-.192-.246-.422-.398-.613l-2.558.019c-.038 1.553-.057 3.335 0 4.868l2.843-.019.038-.92c.322.153.644.345.966.518 1.971.843 4.51 1.035 6.462 0 1.421-.805 2.179-2.358 1.971-4.025-.208-1.629-1.724-3.105-3.259-3.508l-4.586-1.361-.341-.172c-.152-.134-.246-.307-.208-.518.36-.633 1.194-.441 1.819-.422 1.327.192 2.691.652 3.468 1.898.834 0 1.8.019 2.71-.019.038-1.572-.019-2.952-.038-4.543a43.86 43.86 0 0 0-2.748.019c-.038.23.038.556-.057.786l-.872-.479zm16.07.613c-2.464-1.61-6.216-1.725-8.755-.268-1.383.728-2.293 2.166-2.577 3.642-.512 2.434-.379 5.329 1.44 7.15 2.123 1.917 5.211 2.338 7.959 1.553a3.53 3.53 0 0 0 .829-.29l.081-.036a5.62 5.62 0 0 0 2.274-1.763c1.402-2.108 1.497-5.271.644-7.648-.341-.92-1.042-1.744-1.895-2.338zm-2.786 2.76c.284.441.265 1.016.322 1.533-.019 1.093.076 2.396-.114 3.508-.095.46-.398.939-.872 1.112-.758.345-1.781.249-2.482-.153-.588-.422-.663-1.131-.739-1.802-.057-1.323-.152-2.722.208-3.929.284-.748 1.061-.939 1.763-.997.739 0 1.459.115 1.914.728zm-29.41-3.91l-1.175.019c-.019 1.016-.019 2.204 0 3.239.644.019 1.251 0 1.876.057v6.517l-.019.268-1.876.038a43.98 43.98 0 0 0 0 3.163h8.357v-3.163c-.625-.038-1.327.019-1.933-.057l.019-6.728.038-.058 1.876-.019c.019-1.093.038-2.262-.019-3.259l-7.144-.019zm12.015 14.721c-.19 0-.398-.038-.531.019l.474 1.131-.057.057c-.853.249-1.687.556-2.502.901l-.076-.038c-.531-.594-1.042-1.246-1.459-1.897-.095-.326-.474-.134-.682-.173.455.843 1.061 1.591 1.668 2.358-.512.307-1.023.652-1.554.901-1.137-.882-2.198-2.032-2.994-3.239-.227-.038-.379-.019-.606 0 1.364 2.185 3.487 4.102 5.704 5.233 0 0 0-.019.019-.019s.057.038.019.058c1.497.747 3.089 1.284 4.775 1.514 5.818.786 11.37-1.763 14.592-6.785-.17-.019-.417-.019-.606 0-.796 1.169-1.8 2.3-2.899 3.182-.038.057-.152.038-.19-.019-.474-.307-.985-.556-1.44-.863.606-.748 1.194-1.495 1.649-2.319h-.588c-.474.709-.966 1.457-1.592 2.089-.834-.345-1.592-.652-2.445-.882l-.095-.077c.133-.383.379-.747.455-1.131h-.512l-.512 1.035c-1.118-.249-2.35-.383-3.487-.46-.057-.173.019-.422-.057-.575h-.493c-.038.23.057.402-.057.594a21.84 21.84 0 0 0-3.411.422l-.512-1.016zm3.98 4.409c-.398.096-.834.096-1.213.192-.777-.939-1.421-1.955-1.971-3.009l.095-.077c.985-.192 2.009-.345 3.07-.345l.019 3.239zm3.733-2.856l.019.057c-.531 1.035-1.194 2.032-1.914 2.971-.322.039-.626-.096-.948-.115l-.322-.038c-.038-1.131-.057-2.128 0-3.258 1.08.019 2.16.134 3.165.383zm-7.486.172c.55 1.054 1.232 2.051 1.914 3.048-.265.153-.587.249-.853.403a12.79 12.79 0 0 1-3.449-2.568v-.058c.739-.364 1.516-.632 2.312-.843l.076.019zm10.423.805c-.606.709-1.384 1.323-2.104 1.84-.436.268-.872.556-1.327.786l-.815-.364.057-.134a23.3 23.3 0 0 0 1.819-2.913l.057-.039c.815.192 1.592.46 2.312.824zm2.028 1.092c-1.061.863-2.293 1.438-3.544 1.917l-.891.288c-.152-.077-.284-.192-.417-.307l.038-.057a17 17 0 0 0 3.354-2.664c.512.211 1.004.498 1.459.824zM13.9 28.575c-.095.115-.246.23-.379.307-1.592-.422-3.07-1.15-4.435-2.147v-.058c.455-.288.91-.594 1.402-.805 1.08 1.092 2.198 1.917 3.411 2.703zm6.784.441c.057.115-.095.077-.133.115-2.009.441-4.245.46-6.254-.038-.038-.096.095-.115.152-.172 1.762-1.169 4.51-1.169 6.235.096z"/></svg>