<svg xmlns="http://www.w3.org/2000/svg" xmlns:xlink="http://www.w3.org/1999/xlink" width="66" height="30"><g fill-rule="evenodd"><g fill="#aeaeb2"><path d="M0 18.087h6.016v-6.016H0zm12.071 0h6.016v-6.016h-6.016z"/><path d="M12.071 6.016h6.016V0h-6.016zm-6.016 6.055h6.016V6.055H6.055z"/></g><g fill="#7c7c80"><path d="M4.264 28.009v-1.501c-1.812.228-2.415.702-2.415 1.376 0 .59.402.848.963.848.544 0 .958-.266 1.453-.723m-3.928-.005c0-1.43 1.186-2.176 3.928-2.469-.022-.718-.31-1.316-1.213-1.316-.664 0-1.289.299-1.877.658l-.577-1.044c.734-.462 1.681-.876 2.742-.876 1.67 0 2.492 1.028 2.492 2.888v3.953H4.547l-.12-.74h-.044c-.598.511-1.284.903-2.073.903-1.17 0-1.975-.794-1.975-1.958"/><use xlink:href="#B"/><use xlink:href="#B" x="5.862"/><path d="M23.741 26.464c0-1.338-.588-2.23-1.567-2.23s-1.567.892-1.567 2.23.588 2.219 1.567 2.219 1.567-.881 1.567-2.219m-4.744 0c0-2.224 1.512-3.508 3.177-3.508s3.177 1.283 3.177 3.508c0 2.213-1.512 3.497-3.177 3.497s-3.177-1.283-3.177-3.497m7.467 0c0-2.224 1.572-3.508 3.351-3.508.849 0 1.469.326 1.953.751l-.762 1.017c-.354-.31-.691-.49-1.11-.49-1.077 0-1.822.892-1.822 2.23s.734 2.219 1.773 2.219c.522 0 1.001-.255 1.382-.576l.637 1.033a3.3 3.3 0 0 1-2.182.821c-1.822 0-3.221-1.283-3.221-3.497"/><use xlink:href="#C"/><path d="M40.321 28.009v-1.501c-1.812.228-2.415.702-2.415 1.376 0 .59.402.848.963.848.544 0 .958-.266 1.453-.723m-3.928-.005c0-1.43 1.186-2.176 3.928-2.469-.022-.718-.31-1.316-1.213-1.316-.664 0-1.289.299-1.877.658l-.576-1.044c.734-.462 1.681-.876 2.742-.876 1.67 0 2.492 1.028 2.492 2.888v3.953h-1.284l-.12-.74h-.043c-.598.511-1.284.903-2.073.903-1.17 0-1.975-.794-1.975-1.958m7.391-.456v-3.181h-.952V23.19l1.034-.071.185-1.822h1.3v1.822h1.703v1.246h-1.703v3.178c0 .786.305 1.172.946 1.172.229 0 .5-.076.696-.152l.266 1.153c-.364.12-.829.245-1.365.245-1.54 0-2.111-.973-2.111-2.414"/><use xlink:href="#C" x="15.274"/><path d="M56.329 26.464c0-1.338-.588-2.23-1.567-2.23s-1.567.892-1.567 2.23.588 2.219 1.567 2.219 1.567-.881 1.567-2.219m-4.744 0c0-2.224 1.513-3.508 3.177-3.508s3.177 1.283 3.177 3.508c0 2.213-1.513 3.497-3.177 3.497s-3.177-1.283-3.177-3.497m7.908-3.344h1.284l.12.903h.043c.599-.582 1.279-1.066 2.193-1.066 1.431 0 2.056.968 2.056 2.654v4.188h-1.567v-3.986c0-1.098-.315-1.512-1.039-1.512-.588 0-.974.288-1.523.832v4.666h-1.567V23.12zM28.702 8.697c2.188 0 3.223-.975 3.223-2.806 0-1.841-1.178-2.502-3.331-2.502h-1.832v5.308h1.941zM22.783.232h6.047c3.873 0 6.996 1.385 6.996 5.659 0 4.135-3.158 5.964-6.888 5.964h-2.175v5.969h-3.979V.232zm20.018 14.39c2.985 0 5.002-1.463 5.002-5.67s-2.017-5.518-5.002-5.518h-.755v11.188h.755zM38.067.231h4.976c5.375 0 8.838 2.673 8.838 8.72s-3.463 8.873-8.616 8.873h-5.198V.231z"/><path d="M54.405.232h11.107v3.336h-7.128v4.079h6.09v3.336h-6.09v6.843h-3.979z"/></g></g><defs ><path id="B" d="M7.05 29.031l.729-.995c.593.462 1.167.745 1.844.745.729 0 1.072-.342 1.072-.799 0-.56-.724-.81-1.436-1.082-.876-.329-1.877-.832-1.877-1.947 0-1.159.936-1.996 2.432-1.996.93 0 1.676.378 2.22.799l-.718.963c-.468-.343-.938-.582-1.463-.582-.672 0-.99.321-.99.74 0 .527.674.729 1.398.995.903.337 1.915.772 1.915 2.018 0 1.147-.909 2.072-2.595 2.072a4.18 4.18 0 0 1-2.53-.93"/><path id="C" d="M33.188 29.798h1.567V23.12h-1.567v6.678zm-.179-8.734c0-.528.413-.887.968-.887s.968.359.968.887c0 .516-.413.886-.968.886s-.968-.37-.968-.886h0z"/></defs></svg>