<svg xmlns="http://www.w3.org/2000/svg" width="20" height="20" fill-rule="evenodd"><path d="M3.205 0h13.6c1.114 0 1.52.116 1.926.334a2.27 2.27 0 0 1 .945.945c.218.407.334.812.334 1.926v13.6c0 1.114-.116 1.52-.334 1.926a2.27 2.27 0 0 1-.945.945c-.407.218-.812.334-1.926.334h-13.6c-1.114 0-1.52-.116-1.926-.334a2.27 2.27 0 0 1-.945-.945C.116 18.314 0 17.9 0 16.795v-13.6C0 2.1.116 1.686.334 1.28a2.27 2.27 0 0 1 .945-.945C1.686.116 2.1 0 3.205 0z" fill="#4A7AAB"/><g fill="#fff"><path d="M9.662 3.5c.15-.067.324-.067.475 0l5.03 2.236c.21.094.347.303.347.535v3.354c0 3.38-2.338 6.5-5.478 7.277-.09.022-.186.022-.278 0-3.14-.767-5.478-3.896-5.478-7.277V6.272c0-.23.136-.44.347-.535L9.662 3.5zM9.9 4.676L5.454 6.652v2.974c0 2.8 1.91 5.41 4.446 6.104 2.536-.695 4.446-3.303 4.446-6.104V6.652L9.9 4.676z" fill-rule="nonzero"/><path d="M10.693 12.107H8.888l.276-2.237c-.266-.187-.438-.49-.438-.83 0-.567.477-1.026 1.066-1.026s1.066.46 1.066 1.026c0 .34-.173.643-.438.83l.275 2.237z"/></g></svg>