<?xml version="1.0" encoding="UTF-8"?>
<svg width="104px" height="104px" viewBox="0 0 104 104" version="1.1" xmlns="http://www.w3.org/2000/svg" xmlns:xlink="http://www.w3.org/1999/xlink">
    <!-- Generator: Sketch 55.1 (78136) - https://sketchapp.com -->
    <title>Group 11</title>
    <desc>Created with Sketch.</desc>
    <g id="----↳-PDF/IMG---Features" stroke="none" stroke-width="1" fill="none" fill-rule="evenodd">
        <g id="Features-PDF" transform="translate(-419.000000, -1130.000000)">
            <g id="Group-11" transform="translate(421.000000, 1132.000000)">
                <circle id="Oval" stroke="#5F83C6" stroke-width="4" fill="#DCE5FA" cx="50" cy="50" r="50"></circle>
                <g id="Group-5" transform="translate(11.956522, 0.000000)" fill-rule="nonzero">
                    <g id="Group-20">
                        <g id="document">
                            <path d="M66.0025849,19.5228741 C66.00182,19.5015534 66.0010551,19.4802327 65.9995252,19.4589121 C65.9934055,19.3743908 65.9849909,19.2913926 65.9681616,19.2091558 C65.9681616,19.2091558 65.9681616,19.2091558 65.9681616,19.2083942 C65.9513325,19.1261575 65.9276186,19.0446821 65.9008448,18.965491 C65.8939602,18.9456932 65.8870756,18.9258955 65.8794258,18.9060977 C65.8511222,18.8307138 65.8189937,18.756853 65.7822754,18.6852766 C65.7799807,18.6814694 65.7784506,18.677662 65.7761557,18.6738548 C65.7363778,18.5992324 65.6904798,18.5284173 65.6407572,18.4591251 C65.6285178,18.4416119 65.6155134,18.4248598 65.6025091,18.4073466 C65.5497265,18.3388158 65.4946491,18.2725694 65.4326871,18.2108918 L47.7115416,0.571089279 C47.6495794,0.509411501 47.5830277,0.45458694 47.5141809,0.402046784 C47.4965867,0.389102144 47.4789927,0.375395906 47.4613985,0.363212671 C47.3917868,0.313718324 47.3214101,0.268031189 47.2472087,0.229197076 C47.2418539,0.226151267 47.2364993,0.22462846 47.2319094,0.221582651 C47.1615328,0.185032943 47.0880963,0.153813255 47.0138949,0.125639571 C46.9932408,0.118025146 46.9733518,0.11117193 46.9519327,0.104318908 C46.8723765,0.0776682261 46.7920553,0.0540631579 46.7086744,0.0373111111 C46.7079094,0.0373111111 46.7071443,0.0373111111 46.7071443,0.0373111111 C46.6252934,0.0213206628 46.5419122,0.0121832359 46.4577663,0.00609161793 C46.4363473,0.00533017544 46.4149283,0.00380725146 46.3935094,0.00304580897 C46.3713255,0.00228436647 46.3491416,0 46.3269575,0 L1.95830669,0 C0.87664813,0 -2.84217094e-14,0.872624172 -2.84217094e-14,1.94931774 L-2.84217094e-14,85.3846858 C-2.84217094e-14,86.4613791 0.87664813,87.3340035 1.95830669,87.3340035 L31.4415319,87.3340035 L31.4415319,97.8557505 C31.4415319,98.5646626 31.8286034,99.2179885 32.4520487,99.5614035 C33.076259,99.9048185 33.8373976,99.8842593 34.440954,99.5073404 L41.8993485,94.849537 L49.3577432,99.5073404 C49.6752029,99.7053179 50.0370308,99.8052217 50.3988585,99.8052217 C50.7247331,99.8052217 51.0513724,99.7243544 51.3466484,99.5621649 C51.9700935,99.2187501 52.3571652,98.565424 52.3571652,97.8557505 L52.3571652,87.3340035 L64.0473383,87.3340035 C65.1289966,87.3340035 66.005645,86.4613791 66.005645,85.3846858 L66.005645,19.5891205 C66.005645,19.5670382 66.00335,19.5449561 66.0025849,19.5228741 L66.0025849,19.5228741 Z" id="Shape" fill="#E5322D"></path>
                            <polygon id="Path" fill="#FFFFFF" points="48.2852642 6.655854 59.3198633 17.6398027 48.2852642 17.6398027"></polygon>
                            <path d="M48.4405518,94.3317495 L42.940464,90.8968384 C42.3040143,90.5001218 41.4946828,90.5001218 40.8582331,90.8968384 L35.3581453,94.3317495 L35.3581453,76.7894129 C35.5662154,76.7833212 35.7704605,76.7757066 35.9685861,76.7658078 C36.2279088,76.7521016 36.4726971,76.7399183 36.6937716,76.7399183 C37.0410651,76.7399183 37.1894679,76.7718994 37.2468403,76.7909357 C37.4801541,76.8686039 37.9284228,77.2280094 38.2887205,77.5165996 C39.202852,78.2491168 40.3403528,79.160575 41.8993485,79.160575 C43.4583443,79.160575 44.5958449,78.2491168 45.5099764,77.5165996 C45.8702743,77.2280094 46.318543,76.8686039 46.551092,76.7916971 C46.609229,76.7726608 46.757632,76.7406799 47.1049254,76.7406799 C47.326,76.7406799 47.5707883,76.7528632 47.830111,76.7658078 C48.0282364,76.7757066 48.2324817,76.7840827 48.4397869,76.7894129 L48.4397869,94.3317495 L48.4405518,94.3317495 Z" id="Path" fill="#FCC3BA"></path>
                            <path d="M52.3571652,83.435368 L52.3571652,75.2185368 C52.9393024,74.4311951 53.1825609,73.4991776 53.3883361,72.7072673 C53.4961959,72.2915144 53.643834,71.7227096 53.7784676,71.5407224 C53.9123361,71.3579739 54.4103274,71.0450172 54.7736851,70.8165813 C55.7375392,70.2104655 56.937002,69.4558663 57.4135744,68.0289047 C57.8847919,66.6209795 57.3944501,65.2907224 57.0004939,64.2216435 C56.8214925,63.7365984 56.6187772,63.1860684 56.6187772,62.8860563 C56.6187772,62.5860441 56.8214925,62.0362756 57.0004939,61.5512304 C57.3944501,60.4821517 57.8847919,59.1511329 57.4135744,57.7432078 C56.937002,56.3170078 55.7375392,55.5624086 54.7736851,54.9562926 C54.4103274,54.7278569 53.9123361,54.4141386 53.7784676,54.2329131 C53.643834,54.0501645 53.4961959,53.4813596 53.3883361,53.0656066 C53.1068295,51.9805372 52.7564763,50.6297211 51.5570134,49.7540509 C50.6023389,49.0580836 49.4969664,48.9773696 48.7480673,48.9773696 C48.4313723,48.9773696 48.1253868,48.9925986 47.830111,49.0078277 C47.5707883,49.0207723 47.326,49.0329556 47.1056905,49.0329556 C46.757632,49.0329556 46.609229,49.0009747 46.5518569,48.9819384 C46.319308,48.9050316 45.8710392,48.5456261 45.5107415,48.2562745 C44.5958449,47.5245187 43.4583443,46.6130604 41.8993485,46.6130604 C40.3411178,46.6130604 39.202852,47.5245187 38.2887205,48.2562745 C37.9284228,48.5448647 37.4801541,48.9050316 37.2476052,48.9819384 C37.1902329,49.0009747 37.0410651,49.0329556 36.6937716,49.0329556 C36.4734621,49.0329556 36.2279088,49.0207723 35.9685861,49.0070663 C35.6733101,48.9925986 35.3680898,48.9773696 35.0506299,48.9773696 C34.3024954,48.9773696 33.1971231,49.0580836 32.2432137,49.7540509 C31.0429858,50.6297211 30.6918674,51.9805372 30.4103609,53.0656066 C30.302501,53.4813596 30.1548631,54.0501645 30.0209945,54.2321517 C29.8863609,54.4141386 29.3883696,54.7278569 29.025012,54.9562926 C28.0611579,55.5624086 26.86246,56.3170078 26.3851228,57.7432078 C25.9139052,59.1518945 26.4042468,60.4821517 26.7982031,61.5512304 C26.9772044,62.0362756 27.1799199,62.5860441 27.1799199,62.8860563 C27.1799199,63.1860684 26.9772044,63.7365984 26.7982031,64.2216435 C26.4042468,65.2907224 25.9139052,66.6209795 26.3851228,68.0296663 C26.86246,69.4558663 28.0619229,70.2104655 29.025012,70.8165813 C29.3891347,71.0450172 29.8863609,71.3587353 30.0209945,71.5407224 C30.1548631,71.7227096 30.302501,72.2915144 30.4103609,72.7072673 C30.6161362,73.4991776 30.8601596,74.4319567 31.4422968,75.2185368 L31.4422968,83.435368 L3.91661338,83.435368 L3.91661338,3.89863548 L44.3686508,3.89863548 L44.3686508,19.5891205 C44.3686508,20.6658138 45.2452991,21.5384382 46.3269575,21.5384382 L62.0890316,21.5384382 L62.0890316,83.435368 L52.3571652,83.435368 Z" id="Path" fill="#FFFFFF"></path>
                            <path d="M30.4753829,60.2087903 C30.3376895,59.8364402 30.1135552,59.2280398 30.1082004,58.9790448 C30.2611931,58.7902047 30.7920777,58.4559271 31.1171874,58.2518579 C31.8148341,57.8132614 32.6058063,57.3152717 33.1795291,56.5370674 C33.7586065,55.7504873 33.9942152,54.8420749 34.2022853,54.0410271 C34.293316,53.6907591 34.440189,53.125 34.5656429,52.911032 C34.6344897,52.8965643 34.7790677,52.8760051 35.0506299,52.8760051 C35.2686444,52.8760051 35.5126678,52.8881883 35.7712254,52.9011329 C36.0680315,52.9156006 36.3740169,52.9308296 36.6937716,52.9308296 C37.3990679,52.9308296 37.9682007,52.8516386 38.4845512,52.6803119 C39.3864433,52.3818226 40.1078039,51.8038803 40.7442536,51.2937074 C41.0961368,51.01197 41.6851587,50.5398696 41.8901689,50.5109345 C42.1143034,50.5398696 42.7025603,51.01197 43.0544435,51.2937074 C43.6908932,51.8038803 44.4130188,52.3818226 45.3149109,52.6803119 C45.8312611,52.8516386 46.3996291,52.9308296 47.1056905,52.9308296 C47.4246802,52.9308296 47.7314306,52.9156006 48.0274715,52.9011329 C48.2860291,52.8881883 48.5300525,52.8760051 48.7488322,52.8760051 C49.0203941,52.8760051 49.1642074,52.8958029 49.233819,52.911032 C49.359273,53.125 49.506146,53.6907591 49.5964118,54.0410271 C49.8044819,54.8420749 50.0408556,55.7504873 50.6199329,56.5370674 C51.1928906,57.3152717 51.983863,57.8125 52.6822747,58.2518579 C53.0066192,58.4566885 53.537504,58.7902047 53.6904967,58.9790448 C53.6851419,59.2280398 53.4610077,59.8364402 53.3240791,60.2087903 C53.0326281,60.9984162 52.7029287,61.893884 52.7029287,62.8860563 C52.7029287,63.8782285 53.0326281,64.7736963 53.3233142,65.5640838 C53.4610077,65.9364339 53.6851419,66.5448343 53.6904967,66.7938292 C53.537504,66.9826694 53.0066192,67.3161854 52.6822747,67.521016 C51.983863,67.9596125 51.1928906,68.4576023 50.6199329,69.2358066 C50.0408556,70.0223867 49.8044819,70.9307992 49.5964118,71.731847 C49.506146,72.0813536 49.3585081,72.6478741 49.233819,72.8618421 C49.1642074,72.8763097 49.0203941,72.896869 48.7488322,72.896869 C48.5300525,72.896869 48.2860291,72.8846858 48.0274715,72.8717409 C47.7314306,72.8572733 47.4246802,72.8420444 47.1056905,72.8420444 C46.3996291,72.8420444 45.8312611,72.9212355 45.3149109,73.0925622 C44.4130188,73.3910515 43.6908932,73.9697552 43.0544435,74.4791667 C42.7079151,74.7578581 42.1296024,75.2200596 41.8993485,75.2611782 C41.6690945,75.2200596 41.091547,74.7578581 40.7450185,74.4791667 C40.1078039,73.9697552 39.3864433,73.3910515 38.4845512,73.0925622 C37.9682007,72.9212355 37.3990679,72.8420444 36.6937716,72.8420444 C36.3747818,72.8420444 36.0680315,72.8572733 35.7712254,72.8717409 C35.5134328,72.8846858 35.2694093,72.896869 35.0506299,72.896869 C34.7790677,72.896869 34.6352546,72.8763097 34.5656429,72.8618421 C34.440189,72.6478741 34.293316,72.082115 34.2022853,71.731847 C33.9949802,70.9307992 33.7586065,70.0223867 33.1795291,69.2358066 C32.6065713,68.4576023 31.815599,67.9596125 31.1171874,67.521016 C30.7928428,67.316947 30.261958,66.9826694 30.1089653,66.7938292 C30.1143201,66.5455957 30.3384544,65.9364339 30.4753829,65.5640838 C30.766834,64.7744579 31.0965333,63.8789901 31.0965333,62.8868177 C31.0965333,61.893884 30.7660691,60.9984162 30.4753829,60.2087903 L30.4753829,60.2087903 Z" id="Path" fill="#FCC3BA"></path>
                            <path d="M11.5272357,21.5384382 L36.7572636,21.5384382 C37.838157,21.5384382 38.7155703,20.6658138 38.7155703,19.5891205 C38.7155703,18.5124269 37.838157,17.6398027 36.7572636,17.6398027 L11.5272357,17.6398027 C10.4455773,17.6398027 9.568929,18.5124269 9.568929,19.5891205 C9.568929,20.6658138 10.4463422,21.5384382 11.5272357,21.5384382 Z" id="Path" fill="#E5322D"></path>
                            <path d="M54.6971888,27.4792885 L11.5272357,27.4792885 C10.4455773,27.4792885 9.568929,28.3519127 9.568929,29.4286062 C9.568929,30.5052998 10.4455773,31.377924 11.5272357,31.377924 L54.6971888,31.377924 C55.7788471,31.377924 56.6554954,30.5052998 56.6554954,29.4286062 C56.6554954,28.3519127 55.7788471,27.4792885 54.6971888,27.4792885 Z" id="Path" fill="#E5322D"></path>
                            <path d="M46.863962,37.3187743 L11.5272357,37.3187743 C10.4455773,37.3187743 9.568929,38.19216 9.568929,39.268092 C9.568929,40.3447856 10.4455773,41.2174097 11.5272357,41.2174097 L46.863962,41.2174097 C47.9456204,41.2174097 48.8222687,40.3447856 48.8222687,39.268092 C48.8222687,38.19216 47.9456204,37.3187743 46.863962,37.3187743 Z" id="Path" fill="#E5322D"></path>
                            <path d="M54.6971888,37.3187743 C53.61859,37.3187743 52.7388821,38.1944444 52.7388821,39.268092 C52.7388821,40.3417398 53.61859,41.2174097 54.6971888,41.2174097 C55.7765522,41.2174097 56.6554954,40.3417398 56.6554954,39.268092 C56.6554954,38.1944444 55.7765522,37.3187743 54.6971888,37.3187743 Z" id="Path" fill="#E5322D"></path>
                        </g>
                    </g>
                </g>
            </g>
        </g>
    </g>
</svg>