<?xml version="1.0" encoding="UTF-8"?>
<svg width="101px" height="102px" viewBox="0 0 101 102" version="1.1" xmlns="http://www.w3.org/2000/svg" xmlns:xlink="http://www.w3.org/1999/xlink">
    <!-- Generator: Sketch 55.1 (78136) - https://sketchapp.com -->
    <title>Security_protection</title>
    <desc>Created with Sketch.</desc>
    <g id="----↳-PDF---Bussiness" stroke="none" stroke-width="1" fill="none" fill-rule="evenodd">
        <g id="Bussiness-page" transform="translate(-632.000000, -1103.000000)" fill-rule="nonzero">
            <g id="Group-55" transform="translate(133.000000, 920.000000)">
                <g id="Security_protection" transform="translate(500.000000, 184.000000)">
                    <path d="M34.6931092,26.1535594 C35.2634625,25.8642299 38.518239,24.0432099 39.0793622,23.7003291 C39.2188149,23.6147493 39.2188149,23.6147493 39.3539633,23.5314206 C42.4169985,21.6382489 45.9311461,20.6367873 49.5145631,20.6367873 C53.0985445,20.6367873 56.6127058,21.6381989 59.675782,23.531396 C63.5314819,25.914366 67.3935167,27.7677811 71.1574013,29.0453576 L72.5145631,29.5060194 L72.5145631,50.6175984 C72.5145631,56.3055102 70.6756384,61.6522272 67.3122038,65.6717727 C62.7205104,71.1579853 57.0054297,75.4620381 50.3346171,78.4609341 L49.514509,78.8296176 L48.6944191,78.4608937 C42.0229216,75.4612941 36.3078933,71.1572337 31.7161264,65.6709334 C28.3529811,61.6517332 26.5145631,56.3057792 26.5145631,50.6175984 L26.5145631,29.5060035 L27.8717448,29.0453508 C30.1134849,28.2844626 32.4068047,27.3124638 34.6931093,26.1535594 Z M34.6931093,26.1535594 C34.6931825,26.1535223 34.6932557,26.1534852 34.6933289,26.153448 L34.6928897,26.1536707 C34.6929628,26.1536337 34.693036,26.1535966 34.6931092,26.1535594 Z" id="Path" stroke="#FFD7D0" stroke-width="4"></path>
                    <path d="M94.6772603,42.3976608 C92.786163,42.3976608 91.1738572,43.6197916 90.57472,45.3216374 L82.2986195,45.3216374 L82.2986195,43.6159844 C82.2986195,42.808845 81.6496173,42.1539961 80.8479976,42.1539961 C80.0471334,42.1539961 79.3973756,42.808845 79.3973756,43.6159844 L79.3973756,50.7431774 C79.3973756,58.0340827 76.9721171,64.8993361 72.5681193,70.0734039 C66.4173311,77.2973014 58.6625479,82.7904179 49.5145631,86.4035088 C41.3359263,83.1734285 34.249789,78.4257737 28.4503233,72.2907528 C27.8972737,71.7059575 26.9793019,71.683114 26.3990531,72.2404971 C25.81956,72.7971187 25.796894,73.722283 26.3491881,74.3070784 C28.3513485,76.4246772 30.5000823,78.3816094 32.7840564,80.1793981 L32.7840564,91.2851791 C31.0961974,91.8882493 29.8828125,93.5131883 29.8828125,95.4198647 C29.8828125,97.838237 31.8351079,99.8058296 34.2346784,99.8058296 C36.6342489,99.8058296 38.5865443,97.838237 38.5865443,95.4198647 C38.5865443,93.5139497 37.373915,91.8882493 35.6853004,91.2851791 L35.6853004,82.3213634 C39.6669555,85.0823891 44.0157991,87.3933967 48.7061435,89.2246893 C48.9675577,89.3259626 49.2410605,89.3769797 49.5153186,89.3769797 C49.7888214,89.3769797 50.062324,89.3259626 50.3222271,89.2246893 C60.0255281,85.4372259 68.251008,79.6349598 74.770496,71.9770347 C77.7865808,68.4339973 79.9594916,64.1805251 81.1743875,59.5516569 L86.0777919,59.5516569 C86.6769291,61.2535027 88.2892349,62.4756335 90.1803322,62.4756335 C92.5799027,62.4756335 94.5321981,60.5080409 94.5321981,58.0896686 C94.5321981,55.6712963 92.5799027,53.7037037 90.1803322,53.7037037 C88.2892349,53.7037037 86.6769291,54.9265961 86.0777919,56.6276803 L81.805257,56.6276803 C82.131647,54.7088207 82.2986195,52.7397053 82.2986195,50.7431774 L82.2986195,48.245614 L90.57472,48.245614 C91.1738572,49.9474598 92.786163,51.1695906 94.6772603,51.1695906 C97.0768308,51.1695906 99.0291262,49.2019981 99.0291262,46.7836257 C99.0291262,44.3652534 97.0768308,42.3976608 94.6772603,42.3976608 Z" id="Shape" stroke="#E5322D" fill="#E5322D"></path>
                    <path d="M19.6317506,50.7431774 L19.6317506,24.1471735 C24.9529645,22.8793556 30.4811941,20.5165692 36.0736439,17.1182078 C44.3640996,12.0812012 54.6650266,12.0812012 62.9554824,17.1182078 C65.4442056,18.6296904 67.9193293,19.9355811 70.3695205,21.0320723 C70.3967197,21.0450172 70.4239188,21.0579618 70.452629,21.068622 C73.4808023,22.4186768 76.4704437,23.4496832 79.3973756,24.1471735 L79.3973756,37.3614156 C79.3973756,38.1693166 80.0463779,38.8234039 80.8479976,38.8234039 C81.6496173,38.8234039 82.2986195,38.1693166 82.2986195,37.3614156 L82.2986195,23.6103497 C82.2986195,22.5648756 81.5838861,21.6458029 80.598672,21.4249817 C77.9346651,20.8280031 75.2056826,19.9310125 72.4343902,18.7477156 L72.4343902,8.52065068 C74.1230049,7.91681891 75.3356341,6.29187992 75.3356341,4.38596491 C75.3356341,1.96759259 73.3833387,5.68434189e-14 70.9837682,5.68434189e-14 C68.5841977,5.68434189e-14 66.6319023,1.96759259 66.6319023,4.38596491 C66.6319023,6.29187992 67.8452872,7.91681891 69.5331462,8.52065068 L69.5331462,17.4128899 C67.852087,16.5821454 66.157428,15.6493665 64.4537027,14.6145528 C55.2392311,9.01559454 43.7898951,9.01635595 34.576179,14.6145528 C29.051727,17.9702729 23.61945,20.2622441 18.4304542,21.4249817 C17.4452401,21.6458029 16.7305067,22.5648756 16.7305067,23.6103497 L16.7305067,32.4561404 L8.45440624,32.4561404 C7.855269,30.7542945 6.24296323,29.5321637 4.3518659,29.5321637 C1.9522954,29.5321637 -9.80548975e-13,31.4997563 -9.80548975e-13,33.9181287 C-9.80548975e-13,36.336501 1.9522954,38.3040936 4.3518659,38.3040936 C6.24296323,38.3040936 7.855269,37.0819628 8.45440624,35.380117 L16.7305067,35.380117 L16.7305067,43.7621832 L12.9513343,43.7621832 C12.3521971,42.0603374 10.7398913,40.8382066 8.84879399,40.8382066 C6.44922349,40.8382066 4.49692809,42.8057992 4.49692809,45.2241715 C4.49692809,47.6425439 6.44922349,49.6101365 8.84879399,49.6101365 C10.7398913,49.6101365 12.3521971,48.3880057 12.9513343,46.6861598 L16.7305067,46.6861598 L16.7305067,50.7431774 C16.7305067,57.7500608 18.7387114,64.3221552 22.5367722,69.7482639 C22.8193413,70.1518335 23.2681274,70.3673246 23.7237134,70.3673246 C24.0123268,70.3673246 24.3047177,70.2805189 24.5585765,70.1000548 C25.2128676,69.634046 25.3692626,68.7218263 24.9076325,68.0624086 C21.4563611,63.1320055 19.6317506,57.1431834 19.6317506,50.7431774 Z" id="Shape" stroke="#E5322D" fill="#E5322D"></path>
                    <path d="M70.9837682,2.92397661 C71.7838769,2.92397661 72.4343902,3.57958694 72.4343902,4.38596491 C72.4343902,5.19234288 71.7838769,5.84795322 70.9837682,5.84795322 C70.1836595,5.84795322 69.5331462,5.19234288 69.5331462,4.38596491 C69.5331462,3.57958694 70.1836595,2.92397661 70.9837682,2.92397661 Z" id="Path" fill="#FFD7D0"></path>
                    <path d="M4.3518659,35.380117 C3.55175717,35.380117 2.90124393,34.7245066 2.90124393,33.9181287 C2.90124393,33.1117507 3.55175717,32.4561404 4.3518659,32.4561404 C5.15197462,32.4561404 5.80248786,33.1117507 5.80248786,33.9181287 C5.80248786,34.7245066 5.15197462,35.380117 4.3518659,35.380117 Z" id="Path" fill="#FFD7D0"></path>
                    <path d="M8.84879399,46.6861598 C8.04868527,46.6861598 7.39817203,46.0305495 7.39817203,45.2241715 C7.39817203,44.4177936 8.04868527,43.7621832 8.84879399,43.7621832 C9.64890272,43.7621832 10.299416,44.4177936 10.299416,45.2241715 C10.299416,46.0305495 9.64890272,46.6861598 8.84879399,46.6861598 Z" id="Path" fill="#FFD7D0"></path>
                    <path d="M49.5145631,34.2105263 C45.5155308,34.2105263 42.2614533,37.4893396 42.2614533,41.5204678 L42.2614533,43.957115 L41.7779126,43.957115 C39.9117478,43.957115 38.393128,45.4876339 38.393128,47.3684211 L38.393128,59.0643275 C38.393128,60.9451146 39.9117478,62.4756335 41.7779126,62.4756335 L57.2512136,62.4756335 C59.1173784,62.4756335 60.6359982,60.9451146 60.6359982,59.0643275 L60.6359982,47.3684211 C60.6359982,45.4876339 59.1173784,43.957115 57.2512136,43.957115 L56.7676729,43.957115 L56.7676729,41.5204678 C56.7676729,37.4893396 53.5143511,34.2105263 49.5145631,34.2105263 Z M45.1626972,41.5204678 C45.1626972,39.1020955 47.1149926,37.1345029 49.5145631,37.1345029 C51.9141336,37.1345029 53.866429,39.1020955 53.866429,41.5204678 L53.866429,43.957115 L45.1626972,43.957115 L45.1626972,41.5204678 Z" id="Shape" fill="#5EA162"></path>
                    <path d="M34.2346784,96.8810916 C33.4345697,96.8810916 32.7840564,96.2254813 32.7840564,95.4191033 C32.7840564,94.6127253 33.4345697,93.957115 34.2346784,93.957115 C35.0347871,93.957115 35.6853004,94.6127253 35.6853004,95.4191033 C35.6853004,96.2254813 35.0347871,96.8810916 34.2346784,96.8810916 Z" id="Path" fill="#FFD7D0"></path>
                    <path d="M90.1803322,56.6276803 C90.9804409,56.6276803 91.6309542,57.2832906 91.6309542,58.0896686 C91.6309542,58.8960466 90.9804409,59.5516569 90.1803322,59.5516569 C89.3802235,59.5516569 88.7297103,58.8960466 88.7297103,58.0896686 C88.7297103,57.2832906 89.3802235,56.6276803 90.1803322,56.6276803 Z" id="Path" fill="#FFD7D0"></path>
                    <path d="M94.6772603,48.245614 C93.8771516,48.245614 93.2266383,47.5900037 93.2266383,46.7836257 C93.2266383,45.9772478 93.8771516,45.3216374 94.6772603,45.3216374 C95.477369,45.3216374 96.1278823,45.9772478 96.1278823,46.7836257 C96.1278823,47.5900037 95.477369,48.245614 94.6772603,48.245614 Z" id="Path" fill="#FFD7D0"></path>
                    <path d="M57.7347542,47.3684211 L57.7347542,59.0643275 C57.7347542,59.3331201 57.5179164,59.5516569 57.2512136,59.5516569 L41.7779126,59.5516569 C41.5112098,59.5516569 41.294372,59.3331201 41.294372,59.0643275 L41.294372,47.3684211 C41.294372,47.0996285 41.5112098,46.8810916 41.7779126,46.8810916 L57.2512136,46.8810916 C57.5179164,46.8810916 57.7347542,47.0996285 57.7347542,47.3684211 Z" id="Path" fill="#C2E5C3"></path>
                    <path d="M49.5,49 C47.5701389,49 46,50.5140625 46,52.375 C46,53.8416016 46.9758681,55.0919921 48.3333333,55.5566407 L48.3333333,55.875 C48.3333333,56.4960937 48.8559028,57 49.5,57 C50.1447048,57 50.6666667,56.4960937 50.6666667,55.875 L50.6666667,55.5566407 C52.0247396,55.0919921 53,53.8416016 53,52.375 C53,50.5140625 51.4298611,49 49.5,49 Z M49.5,53.5 C48.8565104,53.5 48.3333333,52.9955079 48.3333333,52.375 C48.3333333,51.7544921 48.8565104,51.25 49.5,51.25 C50.1434896,51.25 50.6666667,51.7544921 50.6666667,52.375 C50.6666667,52.9955079 50.1434896,53.5 49.5,53.5 Z" id="Shape" fill="#5EA162"></path>
                </g>
            </g>
        </g>
    </g>
</svg>