<?xml version="1.0" encoding="UTF-8"?>
<svg width="100px" height="100px" viewBox="0 0 100 100" version="1.1" xmlns="http://www.w3.org/2000/svg" xmlns:xlink="http://www.w3.org/1999/xlink">
    <!-- Generator: Sketch 55.1 (78136) - https://sketchapp.com -->
    <title>Group 41</title>
    <desc>Created with Sketch.</desc>
    <g id="----↳-PDF---Bussiness" stroke="none" stroke-width="1" fill="none" fill-rule="evenodd">
        <g id="Bussiness-page" transform="translate(-1060.000000, -1104.000000)">
            <g id="Group-55" transform="translate(175.000000, 920.000000)">
                <g id="Group-41" transform="translate(885.000000, 184.000000)">
                    <g id="whenever_icon" fill-rule="nonzero">
                        <g id="responsive" transform="translate(0.000000, 20.591837)" fill="#8F4172">
                            <path d="M60.6618367,0.190204082 L7.53693878,0.190204082 C3.38102041,0.190204082 0,3.57122449 0,7.72714286 L0,14.7746939 C0,15.7881633 0.821632653,16.61 1.83530612,16.61 C2.84897959,16.61 3.67061224,15.7883673 3.67061224,14.7746939 L3.67061224,7.72714286 C3.67061224,5.59530612 5.40510204,3.86081633 7.53693878,3.86081633 L60.6618367,3.86081633 C61.6757143,3.86081633 62.4971429,3.03918367 62.4971429,2.0255102 C62.4971429,1.01183673 61.6757143,0.190204082 60.6618367,0.190204082 Z" id="Path"></path>
                            <path d="M87.9693878,46.6889796 C86.9555102,46.6889796 86.1340816,47.5106122 86.1340816,48.5242857 L86.1340816,60.0832653 C86.1340816,62.2140816 84.4004082,63.9479592 82.2691837,63.9479592 L7.53530612,63.9479592 C5.4044898,63.9479592 3.67061224,62.2142857 3.67061224,60.0832653 L3.67061224,21.4481633 C3.67061224,20.4346939 2.84897959,19.6128571 1.83530612,19.6128571 C0.821632653,19.6128571 0,20.4346939 0,21.4481633 L0,60.0832653 C0,64.2381633 3.38040816,67.6185714 7.53530612,67.6185714 L37.1567347,67.6185714 L35.3808163,75.0155102 L28.1814286,75.0155102 C27.1679592,75.0155102 26.3461224,75.8371429 26.3461224,76.8508163 C26.3461224,77.8644898 27.1677551,78.6861224 28.1814286,78.6861224 L36.827551,78.6861224 L52.9767347,78.6861224 L61.6228571,78.6861224 C62.6367347,78.6861224 63.4581633,77.8644898 63.4581633,76.8508163 C63.4581633,75.8371429 62.6367347,75.0155102 61.6228571,75.0155102 L54.4236735,75.0155102 L52.6477551,67.6185714 L82.2691837,67.6185714 C86.4240816,67.6185714 89.8046939,64.2381633 89.8046939,60.0832653 L89.8046939,48.5242857 C89.8046939,47.5108163 88.9830612,46.6889796 87.9693878,46.6889796 Z M39.1559184,75.0157143 L40.9318367,67.6187755 L48.8732653,67.6187755 L50.6491837,75.0157143 L39.1559184,75.0157143 Z" id="Shape"></path>
                            <path d="M82.6763265,56.1285714 L7.12857143,56.1285714 C6.11510204,56.1285714 5.29326531,56.9502041 5.29326531,57.9638776 C5.29326531,58.977551 6.11489796,59.7991837 7.12857143,59.7991837 L82.6763265,59.7991837 C83.6902041,59.7991837 84.5116327,58.977551 84.5116327,57.9638776 C84.5116327,56.9502041 83.69,56.1285714 82.6763265,56.1285714 Z" id="Path"></path>
                        </g>
                        <g id="Group-47" transform="translate(65.000000, 0.000000)" fill="#E5322D">
                            <path d="M8.78176609,3.31991796 L5.35714286,3.31991796 C4.23760184,3.31991796 3.32512315,4.23175669 3.32512315,5.3519491 L3.32512315,49.7387772 C3.32512315,50.6552096 2.58107475,51.3987362 1.66256158,51.3987362 C0.744082713,51.3987362 -6.96331881e-13,50.6552438 -6.96331881e-13,49.7389003 L-6.96331881e-13,5.3519491 C-6.96331881e-13,2.40049173 2.40217648,-7.81597009e-14 5.35714286,-7.81597009e-14 L29.495197,-7.81597009e-14 C32.4501634,-7.81597009e-14 34.8523399,2.40049173 34.8523399,5.3519491 L34.8523399,37.5253243 C34.8523399,38.4417567 34.1082915,39.1852833 33.1897783,39.1852833 C32.2712652,39.1852833 31.5272167,38.4417567 31.5272167,37.5253243 L31.5272167,5.3519491 C31.5272167,4.23175669 30.6147381,3.31991796 29.495197,3.31991796 L26.0705738,3.31991796 C24.9374307,5.2269153 22.8652063,6.42525085 20.6152709,6.42525085 L14.237069,6.42525085 C11.9871336,6.42525085 9.91490915,5.2269153 8.78176609,3.31991796 Z M20.6152709,3.84229434 C21.7067734,3.84229434 22.7210591,3.36651988 23.4205665,2.58295651 L11.4318966,2.58295651 C12.1312808,3.36651988 13.1455665,3.84229434 14.237069,3.84229434 L20.6152709,3.84229434 Z" id="Combined-Shape"></path>
                            <path d="M21.2216749,59.1295734 C22.1401881,59.1295734 22.8842365,58.3860468 22.8842365,57.4696144 C22.8842365,56.553182 22.1401881,55.8096554 21.2216749,55.8096554 L13.630665,55.8096554 C12.7121518,55.8096554 11.9681034,56.553182 11.9681034,57.4696144 C11.9681034,58.3860468 12.7121518,59.1295734 13.630665,59.1295734 L21.2216749,59.1295734 Z" id="Path"></path>
                            <path d="M33.1897783,42.5052013 C32.2712652,42.5052013 31.5272167,43.2487278 31.5272167,44.1651603 L31.5272167,59.1427683 C31.5272167,60.2629607 30.6147381,61.1747994 29.495197,61.1747994 L5.35714286,61.1747994 C4.23760184,61.1747994 3.32512315,60.2629607 3.32512315,59.1427683 L3.32512315,46.0611528 C3.32512315,45.1447204 2.58107475,44.4011938 1.66256158,44.4011938 C0.744048401,44.4011938 -6.96331881e-13,45.1447204 -6.96331881e-13,46.0611528 L-6.96331881e-13,59.1427683 C-6.96331881e-13,62.0942257 2.40217648,64.4947174 5.35714286,64.4947174 L29.495197,64.4947174 C32.4501634,64.4947174 34.8523399,62.0942257 34.8523399,59.1427683 L34.8523399,44.1651603 C34.8523399,43.2487005 34.1083874,42.5052013 33.1897783,42.5052013 Z" id="Path"></path>
                        </g>
                    </g>
                    <path d="M16.5,37.2018367 L53,37.2018367" id="Line-5" stroke="#A7BAD2" stroke-width="3" stroke-linecap="round" stroke-linejoin="round"></path>
                    <path d="M16.5,44.2018367 L53,44.2018367" id="Line-5-Copy" stroke="#A7BAD2" stroke-width="3" stroke-linecap="round" stroke-linejoin="round"></path>
                    <path d="M16.5,51.2018367 L53,51.2018367" id="Line-5-Copy-2" stroke="#A7BAD2" stroke-width="3" stroke-linecap="round" stroke-linejoin="round"></path>
                    <path d="M16.5,58.2018367 L53,58.2018367" id="Line-5-Copy-3" stroke="#A7BAD2" stroke-width="3" stroke-linecap="round" stroke-linejoin="round"></path>
                    <path d="M16.5,65.2018367 L40,65.2018367" id="Line-5-Copy-4" stroke="#A7BAD2" stroke-width="3" stroke-linecap="round" stroke-linejoin="round"></path>
                    <g id="location-point-copy" transform="translate(74.000000, 18.000000)" fill-rule="nonzero">
                        <path d="M8.49355789,0 C3.82804211,0 0.0323894737,3.81135156 0.0323894737,8.49616406 C0.0323894737,11.1979453 2.28891579,15.2232148 3.63397368,17.3820703 C4.51895789,18.8024102 5.46997368,20.1541992 6.31174211,21.1883008 C7.66288421,22.8480742 8.14648947,22.9869727 8.49364737,22.9869727 C8.84599474,22.9869727 9.30257895,22.8479844 10.6495158,21.1873125 C11.4931632,20.1470117 12.4446263,18.7960313 13.3287158,17.3831484 C14.6829895,15.2189922 16.9548158,11.1865352 16.9548158,8.49607422 C16.9548158,3.81135156 13.1591632,0 8.49355789,0 Z" id="Shape" fill="#E5322D"></path>
                        <path d="M8.49355789,3.4859375 C5.74224211,3.4859375 3.50378947,5.73355859 3.50378947,8.49625391 C3.50378947,11.2589492 5.74224211,13.5065703 8.49355789,13.5065703 C11.2448737,13.5065703 13.4833263,11.2589492 13.4833263,8.49625391 C13.4833263,5.73355859 11.2448737,3.4859375 8.49355789,3.4859375 Z" id="Shape" fill="#FFFFFF"></path>
                    </g>
                </g>
            </g>
        </g>
    </g>
</svg>