<svg xmlns="http://www.w3.org/2000/svg" width="20" height="20" fill-rule="evenodd"><path d="M3.205 0h13.6c1.105 0 1.52.116 1.925.334s.728.538.946.945S20 2.1 20 3.205v13.6c0 1.105-.116 1.52-.334 1.925s-.538.728-.945.946-.82.334-1.926.334h-13.6c-1.105 0-1.52-.116-1.925-.334s-.728-.538-.946-.945S0 17.9 0 16.795v-13.6C0 2.1.116 1.686.334 1.28S.872.552 1.28.334 2.1 0 3.205 0z" fill="#EE6C4D"/><path d="M16 5.21L14.79 4 10 8.79 5.21 4 4 5.21 8.79 10 4 14.79 5.21 16 10 11.21 14.79 16 16 14.79 11.21 10z" fill="#fff"/></svg>