<svg xmlns="http://www.w3.org/2000/svg" width="20" height="20" fill-rule="evenodd"><path d="M3.205 0h13.6c1.114 0 1.52.116 1.926.334a2.27 2.27 0 0 1 .945.945c.218.407.334.812.334 1.926v13.6c0 1.114-.116 1.52-.334 1.926a2.27 2.27 0 0 1-.945.945c-.407.218-.812.334-1.926.334h-13.6c-1.114 0-1.52-.116-1.926-.334a2.27 2.27 0 0 1-.945-.945C.116 18.314 0 17.9 0 16.795v-13.6C0 2.1.116 1.686.334 1.28a2.27 2.27 0 0 1 .945-.945C1.686.116 2.1 0 3.205 0z" fill="#8FBC5D"/><path d="M8.327 10.945c.048.04.072.098.072.156 0 .046-.015.092-.046.13l-2.625 3.16c-.072.086-.2.098-.285.026-.048-.04-.072-.098-.072-.156a.2.2 0 0 1 .047-.13l2.625-3.16c.07-.086.2-.098.285-.026zm.852.717c.048.04.072.098.072.156 0 .046-.015.093-.046.13L6.58 15.1c-.07.086-.2.098-.285.026-.048-.04-.072-.098-.072-.156a.2.2 0 0 1 .047-.13l2.625-3.16c.072-.086.2-.098.285-.026zm-4.327 2.123c-.384.462-.322 1.157.137 1.543l.496.417c.46.386 1.15.324 1.533-.138l2.782-3.35L7.996 10l-3.143 3.786zm8.45-7.4a1.73 1.73 0 0 1 .529-.424l.124-.065a1.3 1.3 0 0 0 .399-.321l.415-.498c.055-.066.03-.175-.052-.245l-.677-.567c-.083-.07-.195-.074-.25-.008l-.415.498a1.47 1.47 0 0 0-.244.45l-.042.134c-.07.222-.178.424-.323.597l-2.17 2.6.515.472 2.19-2.635zm1.233 8.645c-.294.274-.753.257-1.026-.038a.73.73 0 0 1 .038-1.029c.294-.274.753-.257 1.026.038a.73.73 0 0 1-.038 1.029m-4.9-6.63a1.49 1.49 0 0 1-.464-1.327c.117-.712-.084-1.468-.6-2.037-.517-.558-1.235-.815-1.938-.763-.126.01-.185.16-.1.253l1.1 1.184a.58.58 0 0 1-.03.82l-.997.93a.58.58 0 0 1-.818-.03L4.683 6.248a.15.15 0 0 0-.259.081 2.42 2.42 0 0 0 .635 2.014c.52.547 1.236.796 1.934.74.494-.04.975.174 1.285.562l4.718 5.887a1.47 1.47 0 0 0 2.073.076 1.48 1.48 0 0 0 .075-2.08L9.636 8.4z" fill="#fff"/></svg>