<?xml version="1.0" encoding="UTF-8"?>
<svg width="106px" height="104px" viewBox="0 0 106 104" version="1.1" xmlns="http://www.w3.org/2000/svg" xmlns:xlink="http://www.w3.org/1999/xlink">
    <!-- Generator: Sketch 55.1 (78136) - https://sketchapp.com -->
    <title>Group 37</title>
    <desc>Created with Sketch.</desc>
    <defs>
        <path d="M96.6518318,49.4174174 L78.4179734,44.1290162 L78.3446845,44.1087936 C77.792274,43.9637355 77.207726,43.9637355 76.6553155,44.1087936 L58.3481682,49.4174174 C56.3744617,49.9560383 55,51.7420428 55,53.777524 L55,79.5918519 C55,83.5132839 57.1729976,87.0504868 60.6785215,88.8471859 L72.5907185,95.7948115 L72.7555206,95.8840632 C74.2408955,96.6280211 75.8704967,97 77.499902,97 C79.1293073,97 80.7589085,96.6280211 82.2442834,95.8840632 L82.3281542,95.8420624 L94.3214785,88.8471859 C97.8268064,87.0502923 100,83.5132839 100,79.5918519 L100,53.777524 C100,51.7420428 98.6255383,49.9564271 96.6518318,49.4174174 Z" id="path-1"></path>
    </defs>
    <g id="----↳-PDF/IMG---Features" stroke="none" stroke-width="1" fill="none" fill-rule="evenodd">
        <g id="Features-PDF" transform="translate(-843.000000, -1130.000000)">
            <g id="Group-37" transform="translate(845.000000, 1132.000000)">
                <circle id="Oval" stroke="#E5322D" stroke-width="4" fill="#FCC3BA" cx="50" cy="50" r="50"></circle>
                <path d="M10,51.2744469 L10.1570674,69.0519309 C10.2113915,75.3006998 24.1691354,80.2031103 41.3343614,79.9935225 C58.4984065,79.7894867 72.3723024,74.5511806 72.3157895,68.3065757 L72.1609109,50.5263158" id="Fill-47" stroke="#E5322D" stroke-width="4" fill="#FFFFFF"></path>
                <path d="M10,31.9231924 L10.1535304,50.2132356 C10.2102185,56.6368815 24.16495,61.6812782 41.3308287,61.4671091 C58.4967074,61.2515122 72.3711306,55.8715838 72.3157895,49.4422267 L72.1585501,31.1578947" id="Fill-51" stroke="#E5322D" stroke-width="4" fill="#FFFFFF"></path>
                <path d="M10,12.5590481 L10.1535304,30.8446506 C10.2102186,37.2725247 24.1673152,42.316878 41.3320166,42.0984274 C58.4978991,41.8856879 72.3687824,36.504378 72.3157895,30.0793596 L72.1609258,11.7894737" id="Fill-55" stroke="#E5322D" stroke-width="4" fill="#FFFFFF"></path>
                <path d="M41.2549777,22.7306642 C24.0499731,22.9355777 10.0546276,18.0176539 9.99983459,11.743398 C9.94452125,5.46774806 23.8522552,0.211089714 41.0584438,0.00617622229 C58.2681843,-0.198737269 72.2599779,4.72058049 72.3159549,10.9920485 C72.3712682,17.2635165 58.4647182,22.5243568 41.2549777,22.7306642 Z" id="Fill-57" stroke="#E5322D" stroke-width="4" fill="#FFFFFF"></path>
                <g id="Shape" fill-rule="nonzero" stroke-width="3.6">
                    <path stroke="#5EA162" d="M81.471019,94.2582091 L93.5003656,87.2453827 C96.4075959,85.7550846 98.2,82.8348249 98.2,79.5918519 L98.2,53.777524 C98.2,52.5573294 97.3721786,51.4800566 96.1776259,51.15383 L96.1504369,51.1461751 L77.9391924,45.8641729 L77.8875192,45.8497703 C77.6348053,45.7834099 77.3651947,45.7834099 77.1566204,45.8375774 L58.8220557,51.1539169 C57.6278809,51.479805 56.8,52.5572234 56.8,53.777524 L56.8,79.5918519 C56.8,82.8350034 58.5923583,85.7553057 61.5853768,87.2923182 L73.4479077,94.2120208 L73.5616062,94.2746452 C74.7794145,94.884591 76.130574,95.2 77.499902,95.2 C78.86923,95.2 80.2203896,94.884591 81.4382955,94.2745963 L81.471019,94.2582091 Z" stroke-linejoin="square" fill="#BAEFBE" fill-rule="evenodd"></path>
                    <path stroke="#FFFFFF" d="M97.1407729,47.6850477 C99.8886695,48.4425035 101.8,50.9348536 101.8,53.777524 L101.8,79.5918519 C101.8,84.1880935 99.2492852,88.3438247 95.2283274,90.4020573 L83.2350031,97.3969338 L83.1341421,97.4515292 L83.0503689,97.4934811 C81.3289448,98.3556655 79.4254902,98.8 77.499902,98.8 C75.5743139,98.8 73.6708592,98.3556655 71.8983314,97.4668539 L71.6838632,97.3496792 L59.8575153,90.4490439 C55.7507018,88.3441635 53.2,84.1882866 53.2,79.5918519 L53.2,53.777524 C53.2,50.9296055 55.1183751,48.4329994 57.8468633,47.6886336 L76.1981502,42.3678169 C77.0502574,42.144061 77.9497426,42.144061 78.8234655,42.373637 L78.9193684,42.4002585 L97.1407729,47.6850477 Z"></path>
                </g>
                <path d="M87.1837995,67.7294684 L76.8038307,76.8835134 C76.7826357,76.9022585 76.759745,76.9182564 76.7380413,76.9361935 C76.7080292,76.9609175 76.6783561,76.9856416 76.6474962,77.0087497 C76.6125667,77.0350897 76.57662,77.059329 76.5405036,77.0837299 C76.5087959,77.1050605 76.4772577,77.1267142 76.4447021,77.1465904 C76.4068902,77.1696985 76.3682304,77.1905443 76.3295707,77.2113901 C76.2973543,77.2288424 76.2654769,77.2467795 76.2327518,77.2627774 C76.1913791,77.2828152 76.1493282,77.3004291 76.1072772,77.3183661 C76.0755695,77.3317785 76.0443704,77.3459989 76.0123235,77.3581185 C75.9672205,77.375086 75.9214392,77.3893064 75.8754884,77.4036884 C75.8451371,77.4132225 75.8152945,77.4238878 75.7847737,77.4322907 C75.7352621,77.4458647 75.6850723,77.4563684 75.635052,77.4671953 C75.6072441,77.4731743 75.5799449,77.4806077 75.5519675,77.4856172 C75.4956735,77.4957977 75.4388708,77.5024231 75.3824073,77.5090485 C75.3600253,77.511634 75.3379825,77.5158355 75.3156005,77.5177746 C75.2364159,77.5248848 75.1570617,77.5286015 75.0777075,77.5286015 C74.9934361,77.5286015 74.9100124,77.5244 74.8267584,77.5166434 C74.8033591,77.5143811 74.7801293,77.5098564 74.75673,77.5069477 C74.6970448,77.4998375 74.6375291,77.4924042 74.5786917,77.4812541 C74.5491883,77.4755983 74.5201935,77.4673569 74.4908595,77.4608931 C74.438635,77.4490966 74.3862409,77.4376234 74.3348641,77.4227566 C74.3026477,77.4133841 74.271279,77.4015877 74.2394017,77.3909224 C74.1917553,77.375086 74.1441089,77.3597345 74.0973102,77.3409895 C74.0635678,77.3275771 74.0308426,77.3117407 73.9976088,77.296874 C73.9540318,77.2774825 73.9106244,77.2582527 73.8680648,77.2362758 C73.8336441,77.2185003 73.8004103,77.1984625 73.7666678,77.1792327 C73.7269907,77.1564477 73.6873136,77.1338244 73.6488234,77.1087771 C73.6147418,77.0866386 73.5820167,77.0625609 73.5487829,77.0386448 C73.5123274,77.0124664 73.4760415,76.986288 73.440773,76.9580088 C73.4085566,76.9321536 73.377527,76.9043592 73.346328,76.8767264 C73.3241156,76.8570118 73.3005467,76.8392364 73.278843,76.8185522 L68.743785,72.4958805 C67.7510098,71.5497406 67.7510098,70.0160405 68.743785,69.0699006 C69.7365601,68.1237607 71.3460259,68.1237607 72.3386315,69.0699006 L75.1448534,71.7443012 L83.7300271,64.1730812 C84.7601055,63.2642698 86.3685539,63.3238984 87.3221607,64.3059124 C88.2764457,65.2879265 88.2143866,66.820657 87.1837995,67.7294684 Z" id="Path" fill="#5EA162" fill-rule="nonzero"></path>
            </g>
        </g>
    </g>
</svg>