<svg xmlns="http://www.w3.org/2000/svg" xmlns:xlink="http://www.w3.org/1999/xlink" width="20" height="20"><g fill-rule="nonzero"><use xlink:href="#B" fill="#ab6993"/><use xlink:href="#B" fill="#4a7aab"/><path d="M.064 6.852l2.785 5.153c.023.043.077.06.12.036.03-.015.046-.045.046-.078V8.22c-.47-.1-.823-.532-.823-1.036a1.07 1.07 0 0 1 1.069-1.067A1.07 1.07 0 0 1 4.33 7.184c0 .505-.352.925-.823 1.036v3.73a.09.09 0 0 0 .09.09c.033 0 .062-.018.078-.046l2.784-5.14a.53.53 0 0 0 .017-.471L5 3.08a.53.53 0 0 0-.485-.313H2.013a.53.53 0 0 0-.485.314l-1.48 3.3a.53.53 0 0 0 .017.47zm5.04-4.485H1.428c-.196 0-.354-.198-.354-.443V.443c0-.245.16-.443.354-.443h3.677c.196 0 .354.198.354.443v1.48c0 .245-.16.443-.354.443z" transform="matrix(.866025 .5 -.5 .866025 10.292116 3.167245)" fill="#fff"/></g><defs ><path id="B" d="M3.205 0h13.6c1.114 0 1.52.116 1.926.334a2.27 2.27 0 0 1 .945.945c.218.407.334.812.334 1.926v13.6c0 1.114-.116 1.52-.334 1.926a2.27 2.27 0 0 1-.945.945c-.407.218-.812.334-1.926.334h-13.6c-1.114 0-1.52-.116-1.926-.334a2.27 2.27 0 0 1-.945-.945C.116 18.314 0 17.9 0 16.795v-13.6C0 2.1.116 1.686.334 1.28a2.27 2.27 0 0 1 .945-.945C1.686.116 2.1 0 3.205 0z"/></defs></svg>