<svg xmlns="http://www.w3.org/2000/svg" width="60" height="60" fill="#e5322d"><path d="M49.512 31.747c-.482 0-.873.399-.873.891 0 .624-.497 1.131-1.109 1.131s-1.109-.507-1.109-1.131c0-.492-.391-.891-.873-.891s-.873.399-.873.891c0 1.606 1.281 2.913 2.855 2.913s2.855-1.307 2.855-2.913c0-.492-.391-.891-.873-.891zm8.196.146l-2.458-.803a1.04 1.04 0 0 1-.664-.686c-.518-1.68-1.3-3.258-2.323-4.689-.467-.652-.985-1.275-1.552-1.868.363-1.623.56-3.46.534-5.047-.037-2.27-.481-3.602-1.359-4.071-.473-.253-1.912-1.022-9.701 2.617a2.79 2.79 0 0 0-.516.314 33.31 33.31 0 0 0-1.602-.397l-.198-.041a12.34 12.34 0 0 0 1.069-4.512c.022-.492-.351-.908-.833-.93a.88.88 0 0 0-.911.85 10.45 10.45 0 0 1-2.969 6.872 10.1 10.1 0 0 1-3.678 2.398 24.82 24.82 0 0 0-7.028 0 10.08 10.08 0 0 1-3.678-2.398c-1.921-1.96-2.979-4.567-2.979-7.339s1.058-5.379 2.979-7.339 4.476-3.04 7.192-3.04 5.271 1.08 7.192 3.04a10.37 10.37 0 0 1 1.896 2.672c.217.44.742.617 1.173.395a.9.9 0 0 0 .387-1.196c-.57-1.155-1.317-2.208-2.221-3.131a11.72 11.72 0 0 0-16.855 0c-2.251 2.297-3.491 5.351-3.491 8.599s1.24 6.302 3.491 8.599a11.96 11.96 0 0 0 2.103 1.71 24.3 24.3 0 0 0-1.614.487c-.457.156-.704.661-.551 1.128a.87.87 0 0 0 1.105.563 22.99 22.99 0 0 1 14.769 0c.092.031.185.046.277.046.365 0 .706-.236.828-.609.153-.467-.094-.972-.551-1.128-.533-.182-1.072-.344-1.615-.487.748-.477 1.454-1.047 2.104-1.71a12.13 12.13 0 0 0 1.522-1.907l.715.15a31.06 31.06 0 0 1 .935.222c-.01.039-.02.077-.028.117-.426 2.062-.398 3.886.082 5.42.432 1.379 1.211 2.497 2.316 3.321 1.302.972 2.874 1.392 4.298 1.392 1.072 0 2.06-.238 2.785-.657.821-.474 1.508-1.474 2.053-2.975.252.3.49.607.715.921a14.5 14.5 0 0 1 2.068 4.173c.271.878.942 1.569 1.797 1.848l2.458.803c.645.211 1.078.816 1.078 1.507v4.158c0 .691-.433 1.297-1.078 1.507l-3.96 1.294a2.71 2.71 0 0 0-1.51 1.251c-1.556 2.743-4.001 5.014-7.27 6.747-.378.201-.639.559-.718.984L42.45 57.89c-.035.189-.197.326-.385.326h-4.123c-.188 0-.35-.137-.385-.326l-.702-3.787c-.138-.745-.823-1.24-1.56-1.126a35.79 35.79 0 0 1-5.44.413c-1.364 0-2.71-.078-4.002-.231-.714-.084-1.38.413-1.513 1.133l-.668 3.598c-.035.189-.197.326-.385.326h-4.123c-.188 0-.35-.137-.386-.329l-1.221-6.472c-.079-.417-.335-.772-.705-.973-5.572-3.035-8.516-8.106-8.516-14.663 0-3.313.71-6.243 2.111-8.708 1.307-2.301 3.217-4.203 5.675-5.654a.9.9 0 0 0 .319-1.218c-.241-.426-.776-.571-1.193-.325-4.767 2.814-7.642 7.155-8.434 12.669h0l-.252-.024c.015-.595-.09-1.195-.32-1.778-.507-1.285-1.547-2.212-2.651-2.363-.87-.119-1.698.258-2.272 1.033-.833 1.123-.697 2.012-.437 2.56.44.925 1.57 1.579 3.446 1.99a3.49 3.49 0 0 1-.17.237C3.05 35.617 1.744 35.93.896 35.96c-.496.017-.894.424-.894.931v.004c0 .5.387.908.876.931.063.003.128.005.196.005 1.073 0 2.795-.404 4.449-2.521a5.1 5.1 0 0 0 .638-1.051l.475.05c-.03.482-.046.972-.046 1.47 0 3.71.867 7.018 2.576 9.833 1.576 2.595 3.833 4.719 6.71 6.317l1.187 6.292C17.252 59.253 18.136 60 19.162 60h4.123c1.027 0 1.91-.747 2.101-1.777l.604-3.253a36.07 36.07 0 0 0 3.863.204 37.61 37.61 0 0 0 5.35-.38l.636 3.43C36.031 59.253 36.915 60 37.941 60h4.123c1.027 0 1.91-.747 2.101-1.777l1.235-6.671c3.488-1.882 6.118-4.355 7.817-7.351a.96.96 0 0 1 .531-.446l3.96-1.294C59.079 42.012 60 40.724 60 39.256v-4.158c0-1.469-.921-2.756-2.292-3.204zm-8.34-10.589c-.336 2.933-1.238 5.441-2.143 5.965-1.03.595-3.407.71-5.192-.622s-2.382-3.732-1.72-6.936a1.07 1.07 0 0 1 .599-.744c4.372-2.042 6.892-2.71 7.828-2.71a.9.9 0 0 1 .317.043c.281.306.65 2.045.311 5.004zM2.452 31.196c-.09-.19.123-.524.258-.707.214-.289.412-.348.561-.348.032 0 .061.003.088.006.401.055.964.505 1.262 1.261a2.75 2.75 0 0 1 .183.84c-1.209-.256-2.148-.624-2.352-1.053zM27.881 11.14V7.952c1.078.079 1.478.581 1.847.581.462 0 .677-.597.677-.895 0-.77-1.478-1.1-2.525-1.131v-.424c0-.188-.231-.361-.462-.361-.262 0-.446.173-.446.361v.455c-1.462.157-2.925.943-2.925 2.922 0 2.011 1.539 2.576 2.925 3.079v3.691c-1.57-.126-1.986-1.225-2.494-1.225-.385 0-.708.518-.708.895 0 .77 1.293 1.822 3.202 1.853h0v.487c0 .188.185.361.446.361.231 0 .462-.173.462-.361v-.534c1.663-.236 2.802-1.304 2.802-3.236 0-2.136-1.462-2.827-2.802-3.33zm-.816-.298c-.816-.314-1.478-.644-1.478-1.539 0-.817.616-1.21 1.478-1.319v2.859h0zm.724 5.356v-3.314c.754.33 1.355.77 1.355 1.759 0 .896-.523 1.398-1.355 1.555z"/></svg>