<svg xmlns="http://www.w3.org/2000/svg" width="60" height="60" fill="#e5322d"><path d="M53.598 11.477h1.854a1.171 1.171 0 1 0 0-2.342h-4.45a1.17 1.17 0 0 0-1.171 1.171v4.45a1.171 1.171 0 1 0 2.342 0v-1.289A27.57 27.57 0 0 1 57.658 30c0 15.251-12.407 27.658-27.658 27.658S2.342 45.251 2.342 30 14.749 2.342 30 2.342c1.128 0 2.263.069 3.374.204a1.171 1.171 0 0 0 .283-2.325A30.31 30.31 0 0 0 30 0 29.8 29.8 0 0 0 8.787 8.787 29.8 29.8 0 0 0 0 30a29.8 29.8 0 0 0 8.787 21.213A29.8 29.8 0 0 0 30 60a29.8 29.8 0 0 0 21.213-8.787A29.8 29.8 0 0 0 60 30a29.9 29.9 0 0 0-6.402-18.523zm-40.895 6.208a1.17 1.17 0 0 0-1.616.363c-2.674 4.223-3.857 9.301-3.333 14.299a22.42 22.42 0 0 0 6.429 13.469c4.361 4.361 10.089 6.541 15.817 6.541s11.456-2.18 15.817-6.541c8.721-8.721 8.721-22.912 0-31.633a22.42 22.42 0 0 0-13.448-6.426c-4.989-.529-10.062.646-14.283 3.306a1.171 1.171 0 0 0 1.249 1.982C27.292 8.03 37.5 9.179 44.161 15.84c7.808 7.808 7.808 20.513 0 28.321s-20.513 7.808-28.321 0c-6.569-6.569-7.735-17.023-2.773-24.859a1.17 1.17 0 0 0-.363-1.616zM45.225 31.19h1.444a1.171 1.171 0 1 0 0-2.342h-1.444a1.171 1.171 0 1 0 0 2.342zM12.16 29.981a1.17 1.17 0 0 0 1.171 1.171h1.444a1.171 1.171 0 1 0 0-2.342h-1.444a1.17 1.17 0 0 0-1.171 1.171zm19.03-15.206v-1.444a1.171 1.171 0 1 0-2.342 0v1.444a1.171 1.171 0 1 0 2.342 0zm-2.38 30.45v1.444a1.171 1.171 0 1 0 2.342 0v-1.444a1.171 1.171 0 1 0-2.342 0zm-4.68-22.751a1.171 1.171 0 1 0-1.656 1.656l3.969 3.969A4.01 4.01 0 0 0 25.966 30 4.04 4.04 0 0 0 30 34.034 4.04 4.04 0 0 0 34.034 30a4.01 4.01 0 0 0-.477-1.901l8.008-8.008a1.171 1.171 0 1 0-1.656-1.656l-8.008 8.008a4.01 4.01 0 0 0-3.802 0l-3.969-3.969zM31.692 30c0 .933-.759 1.692-1.692 1.692s-1.692-.759-1.692-1.692.759-1.692 1.692-1.692 1.692.759 1.692 1.692zM15.839 15.839c.219-.218.344-.52.344-.828a1.18 1.18 0 0 0-1.172-1.171 1.18 1.18 0 0 0-1.171 1.171 1.18 1.18 0 0 0 1.171 1.171 1.18 1.18 0 0 0 .828-.343zm22.273-12.34c.309 0 .611-.124.829-.343a1.18 1.18 0 0 0 .343-.828 1.18 1.18 0 0 0-.343-.828 1.18 1.18 0 0 0-1.657 0 1.18 1.18 0 0 0-.343.828 1.18 1.18 0 0 0 .343.828c.218.219.52.343.828.343z"/></svg>