<svg xmlns="http://www.w3.org/2000/svg" width="60" height="60" fill="#e5322d"><path d="M30 5.236A24.63 24.63 0 0 0 20.561 7.1a.89.89 0 0 0-.442 1.252l22.789 41.634a.89.89 0 0 0 .579.44c.067.016.135.023.203.023a.89.89 0 0 0 .512-.162C50.815 45.65 54.763 38.066 54.763 30 54.763 16.345 43.654 5.236 30 5.236zm5.744 27.95l-5.332-9.74A6.58 6.58 0 0 1 36.569 30c0 1.122-.288 2.217-.825 3.186h0zm8.239 15.052l-4.429-8.092c5.035-1.871 9.511-5.257 12.691-9.621a.89.89 0 0 0 0-1.049c-1.884-2.587-4.183-4.81-6.831-6.605a.89.89 0 0 0-1 1.475A25.78 25.78 0 0 1 50.411 30c-2.998 3.899-7.119 6.908-11.724 8.564l-1.972-3.602c1.057-1.431 1.635-3.17 1.635-4.962 0-4.605-3.746-8.351-8.351-8.351-.188 0-.375.006-.561.019l-.928-1.695c.494-.028.992-.043 1.489-.043a25.48 25.48 0 0 1 11.445 2.68.88.88 0 0 0 .396.093.89.89 0 0 0 .398-1.689A27.24 27.24 0 0 0 30 18.148c-.813 0-1.627.037-2.429.107L22.17 8.388A22.86 22.86 0 0 1 30 7.018c12.671 0 22.981 10.309 22.981 22.982 0 7.152-3.345 13.897-8.998 18.238h0z"/><path d="M17.091 10.014a.89.89 0 0 0-1.293-.302C9.184 14.35 5.236 21.935 5.236 30c0 5.267 1.632 10.297 4.72 14.546a.891.891 0 0 0 1.442-1.047A22.81 22.81 0 0 1 7.018 30a23.02 23.02 0 0 1 8.998-18.237l4.429 8.091a27.78 27.78 0 0 0-12.689 9.621.89.89 0 0 0 0 1.049 27.75 27.75 0 0 0 9.567 8.238 27.58 27.58 0 0 0 15.105 2.982l5.401 9.868A22.85 22.85 0 0 1 30 52.981a22.81 22.81 0 0 1-16.383-6.865.891.891 0 1 0-1.27 1.25A24.58 24.58 0 0 0 30 54.764c3.267 0 6.442-.627 9.439-1.864a.89.89 0 0 0 .442-1.252l-22.79-41.634zm7.164 16.801l5.331 9.739A6.58 6.58 0 0 1 23.431 30a6.57 6.57 0 0 1 .824-3.184h0zM30 40.07c-4.124 0-8.222-.999-11.854-2.889A25.96 25.96 0 0 1 9.589 30a25.98 25.98 0 0 1 11.722-8.563l1.973 3.603c-1.057 1.43-1.635 3.168-1.635 4.96 0 4.605 3.746 8.351 8.351 8.351a8.65 8.65 0 0 0 .559-.019l.928 1.695c-.494.028-.991.043-1.488.043h0zM51.213 8.787A29.8 29.8 0 0 0 30 0 29.8 29.8 0 0 0 8.787 8.787 29.8 29.8 0 0 0 0 30a29.8 29.8 0 0 0 8.787 21.213A29.8 29.8 0 0 0 30 60a29.8 29.8 0 0 0 21.213-8.787A29.8 29.8 0 0 0 60 30a29.8 29.8 0 0 0-8.787-21.213zm-1.26 41.166A28.03 28.03 0 0 1 30 58.218a28.03 28.03 0 0 1-19.953-8.265A28.03 28.03 0 0 1 1.782 30a28.03 28.03 0 0 1 8.265-19.953A28.03 28.03 0 0 1 30 1.782a28.03 28.03 0 0 1 19.953 8.265A28.03 28.03 0 0 1 58.218 30a28.03 28.03 0 0 1-8.265 19.953z"/></svg>