<svg xmlns="http://www.w3.org/2000/svg" width="20" height="20" fill-rule="evenodd"><path d="M3.205 0h13.6c1.114 0 1.52.116 1.926.334a2.27 2.27 0 0 1 .945.945c.218.407.334.812.334 1.926v13.6c0 1.114-.116 1.52-.334 1.926a2.27 2.27 0 0 1-.945.945c-.407.218-.812.334-1.926.334h-13.6c-1.114 0-1.52-.116-1.926-.334a2.27 2.27 0 0 1-.945-.945C.116 18.314 0 17.9 0 16.795v-13.6C0 2.1.116 1.686.334 1.28a2.27 2.27 0 0 1 .945-.945C1.686.116 2.1 0 3.205 0z" fill="#4A7AAB"/><path d="M14.12 8.83H8.05l.007-2.1c.036-.446.275-.897.64-1.206.38-.32.818-.474 1.33-.47l.182.01c.917.074 1.68.818 1.736 1.693.006.086.003.16-.001.327l-.01.517a.53.53 0 0 0 .52.536.53.53 0 0 0 .536-.52L13 7.11V6.7c-.09-1.387-1.278-2.563-2.705-2.678L10.04 4h-.037c-.754 0-1.422.242-1.987.72-.575.486-.953 1.207-1.01 1.927C7 6.7 7 6.83 6.995 8.83H5.88a.28.28 0 0 0-.279.279v5.905a.28.28 0 0 0 .279.279h8.243a.28.28 0 0 0 .279-.279V9.1a.28.28 0 0 0-.279-.279zm-3.438 4.78H9.317l.21-1.694c-.2-.14-.332-.37-.332-.628 0-.43.36-.777.807-.777s.807.348.807.777c0 .258-.13.487-.332.628l.208 1.694z" fill="#fff" fill-rule="nonzero"/></svg>