<svg xmlns="http://www.w3.org/2000/svg" width="20" height="20" fill-rule="evenodd"><path d="M3.205 0h13.6c1.114 0 1.52.116 1.926.334a2.27 2.27 0 0 1 .945.945c.218.407.334.812.334 1.926v13.6c0 1.114-.116 1.52-.334 1.926a2.27 2.27 0 0 1-.945.945c-.407.218-.812.334-1.926.334h-13.6c-1.114 0-1.52-.116-1.926-.334a2.27 2.27 0 0 1-.945-.945C.116 18.314 0 17.9 0 16.795v-13.6C0 2.1.116 1.686.334 1.28a2.27 2.27 0 0 1 .945-.945C1.686.116 2.1 0 3.205 0z" fill="#AB6993"/><path d="M9.082 9c0 .344-.437 1.208-.844 1.866a.27.27 0 0 0-.031.21c.03.1.13.188.244.188h3.098a.25.25 0 0 0 .226-.142.26.26 0 0 0-.023-.269c-.578-.788-.835-1.36-.835-1.852s.258-1.064.837-1.856a2.2 2.2 0 0 0 .405-1.277c0-1.208-.97-2.2-2.16-2.2s-2.16.983-2.16 2.2a2.2 2.2 0 0 0 .408 1.281c.577.8.835 1.36.835 1.853zm5.608 2.632H5.3c-.14 0-.254.115-.254.257v2.586c0 .142.113.257.254.257h9.378c.14 0 .254-.115.254-.257V11.9c0-.142-.114-.257-.254-.257zM13.254 15.1H6.746c-.14 0-.254.115-.254.257v.292c0 .142.113.257.254.257h6.508c.14 0 .254-.115.254-.257v-.292c0-.142-.114-.257-.254-.257z" fill-rule="nonzero" fill="#fff"/></svg>